solid OpenSCAD_Model
  facet normal -0.671551 -0.740958 0
    outer loop
      vertex -16.4756 -16.4756 0
      vertex -14.7814 -18.0111 10
      vertex -16.4756 -16.4756 10
    endloop
  endfacet
  facet normal -0.671551 -0.740958 -0
    outer loop
      vertex -14.7814 -18.0111 10
      vertex -16.4756 -16.4756 0
      vertex -14.7814 -18.0111 0
    endloop
  endfacet
  facet normal -0.941546 0.336884 0
    outer loop
      vertex -22.2967 6.76363 0
      vertex -21.5264 8.91652 10
      vertex -21.5264 8.91652 0
    endloop
  endfacet
  facet normal -0.941546 0.336884 0
    outer loop
      vertex -21.5264 8.91652 10
      vertex -22.2967 6.76363 0
      vertex -22.2967 6.76363 10
    endloop
  endfacet
  facet normal 0.989177 0.146728 0
    outer loop
      vertex 23.1878 2.2838 10
      vertex 22.8523 4.5456 0
      vertex 22.8523 4.5456 10
    endloop
  endfacet
  facet normal 0.989177 0.146728 0
    outer loop
      vertex 22.8523 4.5456 0
      vertex 23.1878 2.2838 10
      vertex 23.1878 2.2838 0
    endloop
  endfacet
  facet normal 0.998795 0.0490695 0
    outer loop
      vertex 23.3 0 10
      vertex 23.1878 2.2838 0
      vertex 23.1878 2.2838 10
    endloop
  endfacet
  facet normal 0.998795 0.0490695 0
    outer loop
      vertex 23.1878 2.2838 0
      vertex 23.3 0 10
      vertex 23.3 0 0
    endloop
  endfacet
  facet normal -0.514116 -0.857721 0
    outer loop
      vertex -12.9448 -19.3732 0
      vertex -10.9835 -20.5488 10
      vertex -12.9448 -19.3732 10
    endloop
  endfacet
  facet normal -0.514116 -0.857721 -0
    outer loop
      vertex -10.9835 -20.5488 10
      vertex -12.9448 -19.3732 0
      vertex -10.9835 -20.5488 0
    endloop
  endfacet
  facet normal 0.671551 0.740958 -0
    outer loop
      vertex 16.4756 16.4756 0
      vertex 14.7814 18.0111 10
      vertex 16.4756 16.4756 10
    endloop
  endfacet
  facet normal 0.671551 0.740958 0
    outer loop
      vertex 14.7814 18.0111 10
      vertex 16.4756 16.4756 0
      vertex 14.7814 18.0111 0
    endloop
  endfacet
  facet normal -0.146728 -0.989177 0
    outer loop
      vertex -4.5456 -22.8523 0
      vertex -2.2838 -23.1878 10
      vertex -4.5456 -22.8523 10
    endloop
  endfacet
  facet normal -0.146728 -0.989177 -0
    outer loop
      vertex -2.2838 -23.1878 10
      vertex -4.5456 -22.8523 0
      vertex -2.2838 -23.1878 0
    endloop
  endfacet
  facet normal 0.740958 0.671551 0
    outer loop
      vertex 18.0111 14.7814 10
      vertex 16.4756 16.4756 0
      vertex 16.4756 16.4756 10
    endloop
  endfacet
  facet normal 0.740958 0.671551 0
    outer loop
      vertex 16.4756 16.4756 0
      vertex 18.0111 14.7814 10
      vertex 18.0111 14.7814 0
    endloop
  endfacet
  facet normal 0.427552 0.903991 -0
    outer loop
      vertex 10.9835 20.5488 0
      vertex 8.91652 21.5264 10
      vertex 10.9835 20.5488 10
    endloop
  endfacet
  facet normal 0.427552 0.903991 0
    outer loop
      vertex 8.91652 21.5264 10
      vertex 10.9835 20.5488 0
      vertex 8.91652 21.5264 0
    endloop
  endfacet
  facet normal 0.0490695 -0.998795 0
    outer loop
      vertex 0 -23.3 0
      vertex 2.2838 -23.1878 10
      vertex 0 -23.3 10
    endloop
  endfacet
  facet normal 0.0490695 -0.998795 0
    outer loop
      vertex 2.2838 -23.1878 10
      vertex 0 -23.3 0
      vertex 2.2838 -23.1878 0
    endloop
  endfacet
  facet normal -0.740958 0.671551 0
    outer loop
      vertex -18.0111 14.7814 0
      vertex -16.4756 16.4756 10
      vertex -16.4756 16.4756 0
    endloop
  endfacet
  facet normal -0.740958 0.671551 0
    outer loop
      vertex -16.4756 16.4756 10
      vertex -18.0111 14.7814 0
      vertex -18.0111 14.7814 10
    endloop
  endfacet
  facet normal 0.989177 -0.146728 0
    outer loop
      vertex 22.8523 -4.5456 10
      vertex 23.1878 -2.2838 0
      vertex 23.1878 -2.2838 10
    endloop
  endfacet
  facet normal 0.989177 -0.146728 0
    outer loop
      vertex 23.1878 -2.2838 0
      vertex 22.8523 -4.5456 10
      vertex 22.8523 -4.5456 0
    endloop
  endfacet
  facet normal 0.903991 0.427552 0
    outer loop
      vertex 21.5264 8.91652 10
      vertex 20.5488 10.9835 0
      vertex 20.5488 10.9835 10
    endloop
  endfacet
  facet normal 0.903991 0.427552 0
    outer loop
      vertex 20.5488 10.9835 0
      vertex 21.5264 8.91652 10
      vertex 21.5264 8.91652 0
    endloop
  endfacet
  facet normal -0.242985 0.97003 0
    outer loop
      vertex -4.5456 22.8523 0
      vertex -6.76363 22.2967 10
      vertex -4.5456 22.8523 10
    endloop
  endfacet
  facet normal -0.242985 0.97003 0
    outer loop
      vertex -6.76363 22.2967 10
      vertex -4.5456 22.8523 0
      vertex -6.76363 22.2967 0
    endloop
  endfacet
  facet normal -0.803211 0.595695 0
    outer loop
      vertex -19.3732 12.9448 0
      vertex -18.0111 14.7814 10
      vertex -18.0111 14.7814 0
    endloop
  endfacet
  facet normal -0.803211 0.595695 0
    outer loop
      vertex -18.0111 14.7814 10
      vertex -19.3732 12.9448 0
      vertex -19.3732 12.9448 10
    endloop
  endfacet
  facet normal 0.242985 0.97003 -0
    outer loop
      vertex 6.76363 22.2967 0
      vertex 4.5456 22.8523 10
      vertex 6.76363 22.2967 10
    endloop
  endfacet
  facet normal 0.242985 0.97003 0
    outer loop
      vertex 4.5456 22.8523 10
      vertex 6.76363 22.2967 0
      vertex 4.5456 22.8523 0
    endloop
  endfacet
  facet normal 0.336884 0.941546 -0
    outer loop
      vertex 8.91652 21.5264 0
      vertex 6.76363 22.2967 10
      vertex 8.91652 21.5264 10
    endloop
  endfacet
  facet normal 0.336884 0.941546 0
    outer loop
      vertex 6.76363 22.2967 10
      vertex 8.91652 21.5264 0
      vertex 6.76363 22.2967 0
    endloop
  endfacet
  facet normal 0.941546 0.336884 0
    outer loop
      vertex 22.2967 6.76363 10
      vertex 21.5264 8.91652 0
      vertex 21.5264 8.91652 10
    endloop
  endfacet
  facet normal 0.941546 0.336884 0
    outer loop
      vertex 21.5264 8.91652 0
      vertex 22.2967 6.76363 10
      vertex 22.2967 6.76363 0
    endloop
  endfacet
  facet normal 0.595695 0.803211 -0
    outer loop
      vertex 14.7814 18.0111 0
      vertex 12.9448 19.3732 10
      vertex 14.7814 18.0111 10
    endloop
  endfacet
  facet normal 0.595695 0.803211 0
    outer loop
      vertex 12.9448 19.3732 10
      vertex 14.7814 18.0111 0
      vertex 12.9448 19.3732 0
    endloop
  endfacet
  facet normal -0.857721 -0.514116 0
    outer loop
      vertex -19.3732 -12.9448 0
      vertex -20.5488 -10.9835 10
      vertex -20.5488 -10.9835 0
    endloop
  endfacet
  facet normal -0.857721 -0.514116 0
    outer loop
      vertex -20.5488 -10.9835 10
      vertex -19.3732 -12.9448 0
      vertex -19.3732 -12.9448 10
    endloop
  endfacet
  facet normal 0.514116 0.857721 -0
    outer loop
      vertex 12.9448 19.3732 0
      vertex 10.9835 20.5488 10
      vertex 12.9448 19.3732 10
    endloop
  endfacet
  facet normal 0.514116 0.857721 0
    outer loop
      vertex 10.9835 20.5488 10
      vertex 12.9448 19.3732 0
      vertex 10.9835 20.5488 0
    endloop
  endfacet
  facet normal 0.941546 -0.336884 0
    outer loop
      vertex 21.5264 -8.91652 10
      vertex 22.2967 -6.76363 0
      vertex 22.2967 -6.76363 10
    endloop
  endfacet
  facet normal 0.941546 -0.336884 0
    outer loop
      vertex 22.2967 -6.76363 0
      vertex 21.5264 -8.91652 10
      vertex 21.5264 -8.91652 0
    endloop
  endfacet
  facet normal -0.857721 0.514116 0
    outer loop
      vertex -20.5488 10.9835 0
      vertex -19.3732 12.9448 10
      vertex -19.3732 12.9448 0
    endloop
  endfacet
  facet normal -0.857721 0.514116 0
    outer loop
      vertex -19.3732 12.9448 10
      vertex -20.5488 10.9835 0
      vertex -20.5488 10.9835 10
    endloop
  endfacet
  facet normal -0.97003 -0.242985 0
    outer loop
      vertex -22.2967 -6.76363 0
      vertex -22.8523 -4.5456 10
      vertex -22.8523 -4.5456 0
    endloop
  endfacet
  facet normal -0.97003 -0.242985 0
    outer loop
      vertex -22.8523 -4.5456 10
      vertex -22.2967 -6.76363 0
      vertex -22.2967 -6.76363 10
    endloop
  endfacet
  facet normal 0.0490695 0.998795 -0
    outer loop
      vertex 2.2838 23.1878 0
      vertex 0 23.3 10
      vertex 2.2838 23.1878 10
    endloop
  endfacet
  facet normal 0.0490695 0.998795 0
    outer loop
      vertex 0 23.3 10
      vertex 2.2838 23.1878 0
      vertex 0 23.3 0
    endloop
  endfacet
  facet normal 0.857721 0.514116 0
    outer loop
      vertex 20.5488 10.9835 10
      vertex 19.3732 12.9448 0
      vertex 19.3732 12.9448 10
    endloop
  endfacet
  facet normal 0.857721 0.514116 0
    outer loop
      vertex 19.3732 12.9448 0
      vertex 20.5488 10.9835 10
      vertex 20.5488 10.9835 0
    endloop
  endfacet
  facet normal -0.941546 -0.336884 0
    outer loop
      vertex -21.5264 -8.91652 0
      vertex -22.2967 -6.76363 10
      vertex -22.2967 -6.76363 0
    endloop
  endfacet
  facet normal -0.941546 -0.336884 0
    outer loop
      vertex -22.2967 -6.76363 10
      vertex -21.5264 -8.91652 0
      vertex -21.5264 -8.91652 10
    endloop
  endfacet
  facet normal -0.671551 0.740958 0
    outer loop
      vertex -14.7814 18.0111 0
      vertex -16.4756 16.4756 10
      vertex -14.7814 18.0111 10
    endloop
  endfacet
  facet normal -0.671551 0.740958 0
    outer loop
      vertex -16.4756 16.4756 10
      vertex -14.7814 18.0111 0
      vertex -16.4756 16.4756 0
    endloop
  endfacet
  facet normal 0.97003 -0.242985 0
    outer loop
      vertex 22.2967 -6.76363 10
      vertex 22.8523 -4.5456 0
      vertex 22.8523 -4.5456 10
    endloop
  endfacet
  facet normal 0.97003 -0.242985 0
    outer loop
      vertex 22.8523 -4.5456 0
      vertex 22.2967 -6.76363 10
      vertex 22.2967 -6.76363 0
    endloop
  endfacet
  facet normal 0 0 -1
    outer loop
      vertex 23.1878 -2.2838 0
      vertex 23.1878 2.2838 0
      vertex 23.3 0 0
    endloop
  endfacet
  facet normal 0 0 -1
    outer loop
      vertex 22.8523 -4.5456 0
      vertex 23.1878 2.2838 0
      vertex 23.1878 -2.2838 0
    endloop
  endfacet
  facet normal 0 0 -1
    outer loop
      vertex 22.8523 -4.5456 0
      vertex 22.8523 4.5456 0
      vertex 23.1878 2.2838 0
    endloop
  endfacet
  facet normal 0 0 -1
    outer loop
      vertex 22.2967 -6.76363 0
      vertex 22.8523 4.5456 0
      vertex 22.8523 -4.5456 0
    endloop
  endfacet
  facet normal 0 0 -1
    outer loop
      vertex 22.2967 -6.76363 0
      vertex 22.2967 6.76363 0
      vertex 22.8523 4.5456 0
    endloop
  endfacet
  facet normal 0 0 -1
    outer loop
      vertex 21.5264 -8.91652 0
      vertex 22.2967 6.76363 0
      vertex 22.2967 -6.76363 0
    endloop
  endfacet
  facet normal 0 0 -1
    outer loop
      vertex 21.5264 -8.91652 0
      vertex 21.5264 8.91652 0
      vertex 22.2967 6.76363 0
    endloop
  endfacet
  facet normal 0 0 -1
    outer loop
      vertex 20.5488 -10.9835 0
      vertex 21.5264 8.91652 0
      vertex 21.5264 -8.91652 0
    endloop
  endfacet
  facet normal 0 0 -1
    outer loop
      vertex 20.5488 -10.9835 0
      vertex 20.5488 10.9835 0
      vertex 21.5264 8.91652 0
    endloop
  endfacet
  facet normal 0 0 -1
    outer loop
      vertex 19.3732 -12.9448 0
      vertex 20.5488 10.9835 0
      vertex 20.5488 -10.9835 0
    endloop
  endfacet
  facet normal 0 0 -1
    outer loop
      vertex 19.3732 -12.9448 0
      vertex 19.3732 12.9448 0
      vertex 20.5488 10.9835 0
    endloop
  endfacet
  facet normal 0 0 -1
    outer loop
      vertex 18.0111 -14.7814 0
      vertex 19.3732 12.9448 0
      vertex 19.3732 -12.9448 0
    endloop
  endfacet
  facet normal 0 0 -1
    outer loop
      vertex 18.0111 -14.7814 0
      vertex 18.0111 14.7814 0
      vertex 19.3732 12.9448 0
    endloop
  endfacet
  facet normal 0 0 -1
    outer loop
      vertex 16.4756 -16.4756 0
      vertex 18.0111 14.7814 0
      vertex 18.0111 -14.7814 0
    endloop
  endfacet
  facet normal 0 0 -1
    outer loop
      vertex 16.4756 -16.4756 0
      vertex 16.4756 16.4756 0
      vertex 18.0111 14.7814 0
    endloop
  endfacet
  facet normal 0 0 -1
    outer loop
      vertex 14.7814 -18.0111 0
      vertex 16.4756 16.4756 0
      vertex 16.4756 -16.4756 0
    endloop
  endfacet
  facet normal 0 0 -1
    outer loop
      vertex 14.7814 -18.0111 0
      vertex 14.7814 18.0111 0
      vertex 16.4756 16.4756 0
    endloop
  endfacet
  facet normal 0 0 -1
    outer loop
      vertex 12.9448 -19.3732 0
      vertex 14.7814 18.0111 0
      vertex 14.7814 -18.0111 0
    endloop
  endfacet
  facet normal 0 0 -1
    outer loop
      vertex 12.9448 -19.3732 0
      vertex 12.9448 19.3732 0
      vertex 14.7814 18.0111 0
    endloop
  endfacet
  facet normal 0 0 -1
    outer loop
      vertex 10.9835 -20.5488 0
      vertex 12.9448 19.3732 0
      vertex 12.9448 -19.3732 0
    endloop
  endfacet
  facet normal 0 0 -1
    outer loop
      vertex 10.9835 -20.5488 0
      vertex 10.9835 20.5488 0
      vertex 12.9448 19.3732 0
    endloop
  endfacet
  facet normal 0 0 -1
    outer loop
      vertex 8.91652 -21.5264 0
      vertex 10.9835 20.5488 0
      vertex 10.9835 -20.5488 0
    endloop
  endfacet
  facet normal 0 0 -1
    outer loop
      vertex 8.91652 -21.5264 0
      vertex 8.91652 21.5264 0
      vertex 10.9835 20.5488 0
    endloop
  endfacet
  facet normal 0 0 -1
    outer loop
      vertex 6.76363 -22.2967 0
      vertex 8.91652 21.5264 0
      vertex 8.91652 -21.5264 0
    endloop
  endfacet
  facet normal 0 0 -1
    outer loop
      vertex 6.76363 -22.2967 0
      vertex 6.76363 22.2967 0
      vertex 8.91652 21.5264 0
    endloop
  endfacet
  facet normal 0 0 -1
    outer loop
      vertex 4.5456 -22.8523 0
      vertex 6.76363 22.2967 0
      vertex 6.76363 -22.2967 0
    endloop
  endfacet
  facet normal 0 0 -1
    outer loop
      vertex 4.5456 -22.8523 0
      vertex 4.5456 22.8523 0
      vertex 6.76363 22.2967 0
    endloop
  endfacet
  facet normal 0 0 -1
    outer loop
      vertex 2.2838 -23.1878 0
      vertex 4.5456 22.8523 0
      vertex 4.5456 -22.8523 0
    endloop
  endfacet
  facet normal 0 0 -1
    outer loop
      vertex 2.2838 -23.1878 0
      vertex 2.2838 23.1878 0
      vertex 4.5456 22.8523 0
    endloop
  endfacet
  facet normal 0 0 -1
    outer loop
      vertex 0 -23.3 0
      vertex 2.2838 23.1878 0
      vertex 2.2838 -23.1878 0
    endloop
  endfacet
  facet normal 0 0 -1
    outer loop
      vertex 0 -23.3 0
      vertex 0 23.3 0
      vertex 2.2838 23.1878 0
    endloop
  endfacet
  facet normal 0 0 -1
    outer loop
      vertex -2.2838 -23.1878 0
      vertex 0 23.3 0
      vertex 0 -23.3 0
    endloop
  endfacet
  facet normal 0 0 -1
    outer loop
      vertex -2.2838 -23.1878 0
      vertex -2.2838 23.1878 0
      vertex 0 23.3 0
    endloop
  endfacet
  facet normal 0 0 -1
    outer loop
      vertex -4.5456 -22.8523 0
      vertex -2.2838 23.1878 0
      vertex -2.2838 -23.1878 0
    endloop
  endfacet
  facet normal 0 0 -1
    outer loop
      vertex -4.5456 -22.8523 0
      vertex -4.5456 22.8523 0
      vertex -2.2838 23.1878 0
    endloop
  endfacet
  facet normal 0 0 -1
    outer loop
      vertex -6.76363 -22.2967 0
      vertex -4.5456 22.8523 0
      vertex -4.5456 -22.8523 0
    endloop
  endfacet
  facet normal 0 0 -1
    outer loop
      vertex -6.76363 -22.2967 0
      vertex -6.76363 22.2967 0
      vertex -4.5456 22.8523 0
    endloop
  endfacet
  facet normal 0 0 -1
    outer loop
      vertex -8.91652 -21.5264 0
      vertex -6.76363 22.2967 0
      vertex -6.76363 -22.2967 0
    endloop
  endfacet
  facet normal 0 0 -1
    outer loop
      vertex -8.91652 -21.5264 0
      vertex -8.91652 21.5264 0
      vertex -6.76363 22.2967 0
    endloop
  endfacet
  facet normal 0 0 -1
    outer loop
      vertex -10.9835 -20.5488 0
      vertex -8.91652 21.5264 0
      vertex -8.91652 -21.5264 0
    endloop
  endfacet
  facet normal 0 0 -1
    outer loop
      vertex -10.9835 -20.5488 0
      vertex -10.9835 20.5488 0
      vertex -8.91652 21.5264 0
    endloop
  endfacet
  facet normal 0 0 -1
    outer loop
      vertex -12.9448 -19.3732 0
      vertex -10.9835 20.5488 0
      vertex -10.9835 -20.5488 0
    endloop
  endfacet
  facet normal 0 0 -1
    outer loop
      vertex -12.9448 -19.3732 0
      vertex -12.9448 19.3732 0
      vertex -10.9835 20.5488 0
    endloop
  endfacet
  facet normal 0 0 -1
    outer loop
      vertex -14.7814 -18.0111 0
      vertex -12.9448 19.3732 0
      vertex -12.9448 -19.3732 0
    endloop
  endfacet
  facet normal 0 0 -1
    outer loop
      vertex -14.7814 -18.0111 0
      vertex -14.7814 18.0111 0
      vertex -12.9448 19.3732 0
    endloop
  endfacet
  facet normal 0 0 -1
    outer loop
      vertex -16.4756 -16.4756 0
      vertex -14.7814 18.0111 0
      vertex -14.7814 -18.0111 0
    endloop
  endfacet
  facet normal 0 0 -1
    outer loop
      vertex -16.4756 -16.4756 0
      vertex -16.4756 16.4756 0
      vertex -14.7814 18.0111 0
    endloop
  endfacet
  facet normal 0 0 -1
    outer loop
      vertex -18.0111 -14.7814 0
      vertex -16.4756 16.4756 0
      vertex -16.4756 -16.4756 0
    endloop
  endfacet
  facet normal 0 0 -1
    outer loop
      vertex -18.0111 -14.7814 0
      vertex -18.0111 14.7814 0
      vertex -16.4756 16.4756 0
    endloop
  endfacet
  facet normal 0 0 -1
    outer loop
      vertex -19.3732 -12.9448 0
      vertex -18.0111 14.7814 0
      vertex -18.0111 -14.7814 0
    endloop
  endfacet
  facet normal 0 0 -1
    outer loop
      vertex -19.3732 -12.9448 0
      vertex -19.3732 12.9448 0
      vertex -18.0111 14.7814 0
    endloop
  endfacet
  facet normal 0 0 -1
    outer loop
      vertex -20.5488 -10.9835 0
      vertex -19.3732 12.9448 0
      vertex -19.3732 -12.9448 0
    endloop
  endfacet
  facet normal 0 0 -1
    outer loop
      vertex -20.5488 -10.9835 0
      vertex -20.5488 10.9835 0
      vertex -19.3732 12.9448 0
    endloop
  endfacet
  facet normal 0 0 -1
    outer loop
      vertex -21.5264 -8.91652 0
      vertex -20.5488 10.9835 0
      vertex -20.5488 -10.9835 0
    endloop
  endfacet
  facet normal 0 0 -1
    outer loop
      vertex -21.5264 -8.91652 0
      vertex -21.5264 8.91652 0
      vertex -20.5488 10.9835 0
    endloop
  endfacet
  facet normal 0 0 -1
    outer loop
      vertex -22.2967 -6.76363 0
      vertex -21.5264 8.91652 0
      vertex -21.5264 -8.91652 0
    endloop
  endfacet
  facet normal 0 0 -1
    outer loop
      vertex -22.2967 -6.76363 0
      vertex -22.2967 6.76363 0
      vertex -21.5264 8.91652 0
    endloop
  endfacet
  facet normal 0 0 -1
    outer loop
      vertex -22.8523 -4.5456 0
      vertex -22.2967 6.76363 0
      vertex -22.2967 -6.76363 0
    endloop
  endfacet
  facet normal 0 0 -1
    outer loop
      vertex -22.8523 -4.5456 0
      vertex -22.8523 4.5456 0
      vertex -22.2967 6.76363 0
    endloop
  endfacet
  facet normal 0 0 -1
    outer loop
      vertex -23.1878 -2.2838 0
      vertex -22.8523 4.5456 0
      vertex -22.8523 -4.5456 0
    endloop
  endfacet
  facet normal 0 0 -1
    outer loop
      vertex -23.1878 -2.2838 0
      vertex -23.1878 2.2838 0
      vertex -22.8523 4.5456 0
    endloop
  endfacet
  facet normal 0 -0 -1
    outer loop
      vertex -23.1878 2.2838 0
      vertex -23.1878 -2.2838 0
      vertex -23.3 0 0
    endloop
  endfacet
  facet normal -0.514116 0.857721 0
    outer loop
      vertex -10.9835 20.5488 0
      vertex -12.9448 19.3732 10
      vertex -10.9835 20.5488 10
    endloop
  endfacet
  facet normal -0.514116 0.857721 0
    outer loop
      vertex -12.9448 19.3732 10
      vertex -10.9835 20.5488 0
      vertex -12.9448 19.3732 0
    endloop
  endfacet
  facet normal -0.998795 -0.0490695 0
    outer loop
      vertex -23.1878 -2.2838 0
      vertex -23.3 0 10
      vertex -23.3 0 0
    endloop
  endfacet
  facet normal -0.998795 -0.0490695 0
    outer loop
      vertex -23.3 0 10
      vertex -23.1878 -2.2838 0
      vertex -23.1878 -2.2838 10
    endloop
  endfacet
  facet normal -0.97003 0.242985 0
    outer loop
      vertex -22.8523 4.5456 0
      vertex -22.2967 6.76363 10
      vertex -22.2967 6.76363 0
    endloop
  endfacet
  facet normal -0.97003 0.242985 0
    outer loop
      vertex -22.2967 6.76363 10
      vertex -22.8523 4.5456 0
      vertex -22.8523 4.5456 10
    endloop
  endfacet
  facet normal 0.427552 -0.903991 0
    outer loop
      vertex 8.91652 -21.5264 0
      vertex 10.9835 -20.5488 10
      vertex 8.91652 -21.5264 10
    endloop
  endfacet
  facet normal 0.427552 -0.903991 0
    outer loop
      vertex 10.9835 -20.5488 10
      vertex 8.91652 -21.5264 0
      vertex 10.9835 -20.5488 0
    endloop
  endfacet
  facet normal -0.336884 -0.941546 0
    outer loop
      vertex -8.91652 -21.5264 0
      vertex -6.76363 -22.2967 10
      vertex -8.91652 -21.5264 10
    endloop
  endfacet
  facet normal -0.336884 -0.941546 -0
    outer loop
      vertex -6.76363 -22.2967 10
      vertex -8.91652 -21.5264 0
      vertex -6.76363 -22.2967 0
    endloop
  endfacet
  facet normal -0.336884 0.941546 0
    outer loop
      vertex -6.76363 22.2967 0
      vertex -8.91652 21.5264 10
      vertex -6.76363 22.2967 10
    endloop
  endfacet
  facet normal -0.336884 0.941546 0
    outer loop
      vertex -8.91652 21.5264 10
      vertex -6.76363 22.2967 0
      vertex -8.91652 21.5264 0
    endloop
  endfacet
  facet normal 0.514116 -0.857721 0
    outer loop
      vertex 10.9835 -20.5488 0
      vertex 12.9448 -19.3732 10
      vertex 10.9835 -20.5488 10
    endloop
  endfacet
  facet normal 0.514116 -0.857721 0
    outer loop
      vertex 12.9448 -19.3732 10
      vertex 10.9835 -20.5488 0
      vertex 12.9448 -19.3732 0
    endloop
  endfacet
  facet normal 0.146728 -0.989177 0
    outer loop
      vertex 2.2838 -23.1878 0
      vertex 4.5456 -22.8523 10
      vertex 2.2838 -23.1878 10
    endloop
  endfacet
  facet normal 0.146728 -0.989177 0
    outer loop
      vertex 4.5456 -22.8523 10
      vertex 2.2838 -23.1878 0
      vertex 4.5456 -22.8523 0
    endloop
  endfacet
  facet normal 0.740958 -0.671551 0
    outer loop
      vertex 16.4756 -16.4756 10
      vertex 18.0111 -14.7814 0
      vertex 18.0111 -14.7814 10
    endloop
  endfacet
  facet normal 0.740958 -0.671551 0
    outer loop
      vertex 18.0111 -14.7814 0
      vertex 16.4756 -16.4756 10
      vertex 16.4756 -16.4756 0
    endloop
  endfacet
  facet normal 0.803211 -0.595695 0
    outer loop
      vertex 18.0111 -14.7814 10
      vertex 19.3732 -12.9448 0
      vertex 19.3732 -12.9448 10
    endloop
  endfacet
  facet normal 0.803211 -0.595695 0
    outer loop
      vertex 19.3732 -12.9448 0
      vertex 18.0111 -14.7814 10
      vertex 18.0111 -14.7814 0
    endloop
  endfacet
  facet normal -0.0490695 0.998795 0
    outer loop
      vertex 0 23.3 0
      vertex -2.2838 23.1878 10
      vertex 0 23.3 10
    endloop
  endfacet
  facet normal -0.0490695 0.998795 0
    outer loop
      vertex -2.2838 23.1878 10
      vertex 0 23.3 0
      vertex -2.2838 23.1878 0
    endloop
  endfacet
  facet normal -0.427552 0.903991 0
    outer loop
      vertex -8.91652 21.5264 0
      vertex -10.9835 20.5488 10
      vertex -8.91652 21.5264 10
    endloop
  endfacet
  facet normal -0.427552 0.903991 0
    outer loop
      vertex -10.9835 20.5488 10
      vertex -8.91652 21.5264 0
      vertex -10.9835 20.5488 0
    endloop
  endfacet
  facet normal -0.595695 0.803211 0
    outer loop
      vertex -12.9448 19.3732 0
      vertex -14.7814 18.0111 10
      vertex -12.9448 19.3732 10
    endloop
  endfacet
  facet normal -0.595695 0.803211 0
    outer loop
      vertex -14.7814 18.0111 10
      vertex -12.9448 19.3732 0
      vertex -14.7814 18.0111 0
    endloop
  endfacet
  facet normal -0.989177 0.146728 0
    outer loop
      vertex -23.1878 2.2838 0
      vertex -22.8523 4.5456 10
      vertex -22.8523 4.5456 0
    endloop
  endfacet
  facet normal -0.989177 0.146728 0
    outer loop
      vertex -22.8523 4.5456 10
      vertex -23.1878 2.2838 0
      vertex -23.1878 2.2838 10
    endloop
  endfacet
  facet normal -0.242985 -0.97003 0
    outer loop
      vertex -6.76363 -22.2967 0
      vertex -4.5456 -22.8523 10
      vertex -6.76363 -22.2967 10
    endloop
  endfacet
  facet normal -0.242985 -0.97003 -0
    outer loop
      vertex -4.5456 -22.8523 10
      vertex -6.76363 -22.2967 0
      vertex -4.5456 -22.8523 0
    endloop
  endfacet
  facet normal 0.97003 0.242985 0
    outer loop
      vertex 22.8523 4.5456 10
      vertex 22.2967 6.76363 0
      vertex 22.2967 6.76363 10
    endloop
  endfacet
  facet normal 0.97003 0.242985 0
    outer loop
      vertex 22.2967 6.76363 0
      vertex 22.8523 4.5456 10
      vertex 22.8523 4.5456 0
    endloop
  endfacet
  facet normal 0.803211 0.595695 0
    outer loop
      vertex 19.3732 12.9448 10
      vertex 18.0111 14.7814 0
      vertex 18.0111 14.7814 10
    endloop
  endfacet
  facet normal 0.803211 0.595695 0
    outer loop
      vertex 18.0111 14.7814 0
      vertex 19.3732 12.9448 10
      vertex 19.3732 12.9448 0
    endloop
  endfacet
  facet normal -0.803211 -0.595695 0
    outer loop
      vertex -18.0111 -14.7814 0
      vertex -19.3732 -12.9448 10
      vertex -19.3732 -12.9448 0
    endloop
  endfacet
  facet normal -0.803211 -0.595695 0
    outer loop
      vertex -19.3732 -12.9448 10
      vertex -18.0111 -14.7814 0
      vertex -18.0111 -14.7814 10
    endloop
  endfacet
  facet normal -0.903991 -0.427552 0
    outer loop
      vertex -20.5488 -10.9835 0
      vertex -21.5264 -8.91652 10
      vertex -21.5264 -8.91652 0
    endloop
  endfacet
  facet normal -0.903991 -0.427552 0
    outer loop
      vertex -21.5264 -8.91652 10
      vertex -20.5488 -10.9835 0
      vertex -20.5488 -10.9835 10
    endloop
  endfacet
  facet normal 0.146728 0.989177 -0
    outer loop
      vertex 4.5456 22.8523 0
      vertex 2.2838 23.1878 10
      vertex 4.5456 22.8523 10
    endloop
  endfacet
  facet normal 0.146728 0.989177 0
    outer loop
      vertex 2.2838 23.1878 10
      vertex 4.5456 22.8523 0
      vertex 2.2838 23.1878 0
    endloop
  endfacet
  facet normal -0.427552 -0.903991 0
    outer loop
      vertex -10.9835 -20.5488 0
      vertex -8.91652 -21.5264 10
      vertex -10.9835 -20.5488 10
    endloop
  endfacet
  facet normal -0.427552 -0.903991 -0
    outer loop
      vertex -8.91652 -21.5264 10
      vertex -10.9835 -20.5488 0
      vertex -8.91652 -21.5264 0
    endloop
  endfacet
  facet normal 0.595695 -0.803211 0
    outer loop
      vertex 12.9448 -19.3732 0
      vertex 14.7814 -18.0111 10
      vertex 12.9448 -19.3732 10
    endloop
  endfacet
  facet normal 0.595695 -0.803211 0
    outer loop
      vertex 14.7814 -18.0111 10
      vertex 12.9448 -19.3732 0
      vertex 14.7814 -18.0111 0
    endloop
  endfacet
  facet normal 0.998795 -0.0490695 0
    outer loop
      vertex 23.1878 -2.2838 10
      vertex 23.3 0 0
      vertex 23.3 0 10
    endloop
  endfacet
  facet normal 0.998795 -0.0490695 0
    outer loop
      vertex 23.3 0 0
      vertex 23.1878 -2.2838 10
      vertex 23.1878 -2.2838 0
    endloop
  endfacet
  facet normal -0.146728 0.989177 0
    outer loop
      vertex -2.2838 23.1878 0
      vertex -4.5456 22.8523 10
      vertex -2.2838 23.1878 10
    endloop
  endfacet
  facet normal -0.146728 0.989177 0
    outer loop
      vertex -4.5456 22.8523 10
      vertex -2.2838 23.1878 0
      vertex -4.5456 22.8523 0
    endloop
  endfacet
  facet normal -0.989177 -0.146728 0
    outer loop
      vertex -22.8523 -4.5456 0
      vertex -23.1878 -2.2838 10
      vertex -23.1878 -2.2838 0
    endloop
  endfacet
  facet normal -0.989177 -0.146728 0
    outer loop
      vertex -23.1878 -2.2838 10
      vertex -22.8523 -4.5456 0
      vertex -22.8523 -4.5456 10
    endloop
  endfacet
  facet normal 0.336884 -0.941546 0
    outer loop
      vertex 6.76363 -22.2967 0
      vertex 8.91652 -21.5264 10
      vertex 6.76363 -22.2967 10
    endloop
  endfacet
  facet normal 0.336884 -0.941546 0
    outer loop
      vertex 8.91652 -21.5264 10
      vertex 6.76363 -22.2967 0
      vertex 8.91652 -21.5264 0
    endloop
  endfacet
  facet normal 0.242985 -0.97003 0
    outer loop
      vertex 4.5456 -22.8523 0
      vertex 6.76363 -22.2967 10
      vertex 4.5456 -22.8523 10
    endloop
  endfacet
  facet normal 0.242985 -0.97003 0
    outer loop
      vertex 6.76363 -22.2967 10
      vertex 4.5456 -22.8523 0
      vertex 6.76363 -22.2967 0
    endloop
  endfacet
  facet normal -0.740958 -0.671551 0
    outer loop
      vertex -16.4756 -16.4756 0
      vertex -18.0111 -14.7814 10
      vertex -18.0111 -14.7814 0
    endloop
  endfacet
  facet normal -0.740958 -0.671551 0
    outer loop
      vertex -18.0111 -14.7814 10
      vertex -16.4756 -16.4756 0
      vertex -16.4756 -16.4756 10
    endloop
  endfacet
  facet normal -0.903991 0.427552 0
    outer loop
      vertex -21.5264 8.91652 0
      vertex -20.5488 10.9835 10
      vertex -20.5488 10.9835 0
    endloop
  endfacet
  facet normal -0.903991 0.427552 0
    outer loop
      vertex -20.5488 10.9835 10
      vertex -21.5264 8.91652 0
      vertex -21.5264 8.91652 10
    endloop
  endfacet
  facet normal -0.595695 -0.803211 0
    outer loop
      vertex -14.7814 -18.0111 0
      vertex -12.9448 -19.3732 10
      vertex -14.7814 -18.0111 10
    endloop
  endfacet
  facet normal -0.595695 -0.803211 -0
    outer loop
      vertex -12.9448 -19.3732 10
      vertex -14.7814 -18.0111 0
      vertex -12.9448 -19.3732 0
    endloop
  endfacet
  facet normal 0.903991 -0.427552 0
    outer loop
      vertex 20.5488 -10.9835 10
      vertex 21.5264 -8.91652 0
      vertex 21.5264 -8.91652 10
    endloop
  endfacet
  facet normal 0.903991 -0.427552 0
    outer loop
      vertex 21.5264 -8.91652 0
      vertex 20.5488 -10.9835 10
      vertex 20.5488 -10.9835 0
    endloop
  endfacet
  facet normal 0.857721 -0.514116 0
    outer loop
      vertex 19.3732 -12.9448 10
      vertex 20.5488 -10.9835 0
      vertex 20.5488 -10.9835 10
    endloop
  endfacet
  facet normal 0.857721 -0.514116 0
    outer loop
      vertex 20.5488 -10.9835 0
      vertex 19.3732 -12.9448 10
      vertex 19.3732 -12.9448 0
    endloop
  endfacet
  facet normal -0.0490695 -0.998795 0
    outer loop
      vertex -2.2838 -23.1878 0
      vertex 0 -23.3 10
      vertex -2.2838 -23.1878 10
    endloop
  endfacet
  facet normal -0.0490695 -0.998795 -0
    outer loop
      vertex 0 -23.3 10
      vertex -2.2838 -23.1878 0
      vertex 0 -23.3 0
    endloop
  endfacet
  facet normal 0 0 1
    outer loop
      vertex 16.1193 0 10
      vertex 23.3 0 10
      vertex 23.1878 2.2838 10
    endloop
  endfacet
  facet normal 0 0 1
    outer loop
      vertex 16.0417 1.57997 10
      vertex 23.1878 2.2838 10
      vertex 22.8523 4.5456 10
    endloop
  endfacet
  facet normal 0 0 1
    outer loop
      vertex 23.3 0 10
      vertex 16.1193 0 10
      vertex 23.1878 -2.2838 10
    endloop
  endfacet
  facet normal 0 0 1
    outer loop
      vertex 15.8096 3.14472 10
      vertex 22.8523 4.5456 10
      vertex 22.2967 6.76363 10
    endloop
  endfacet
  facet normal -0 0 1
    outer loop
      vertex 16.0417 -1.57997 10
      vertex 23.1878 -2.2838 10
      vertex 16.1193 0 10
    endloop
  endfacet
  facet normal 0 0 1
    outer loop
      vertex 15.4252 4.67918 10
      vertex 22.2967 6.76363 10
      vertex 21.5264 8.91652 10
    endloop
  endfacet
  facet normal 0 0 1
    outer loop
      vertex 23.1878 -2.2838 10
      vertex 16.0417 -1.57997 10
      vertex 22.8523 -4.5456 10
    endloop
  endfacet
  facet normal 0 0 1
    outer loop
      vertex 14.8923 6.16859 10
      vertex 21.5264 8.91652 10
      vertex 20.5488 10.9835 10
    endloop
  endfacet
  facet normal -0 0 1
    outer loop
      vertex 15.8096 -3.14472 10
      vertex 22.8523 -4.5456 10
      vertex 16.0417 -1.57997 10
    endloop
  endfacet
  facet normal 0 0 1
    outer loop
      vertex 14.2159 7.59858 10
      vertex 20.5488 10.9835 10
      vertex 19.3732 12.9448 10
    endloop
  endfacet
  facet normal 0 0 1
    outer loop
      vertex 22.8523 -4.5456 10
      vertex 15.8096 -3.14472 10
      vertex 22.2967 -6.76363 10
    endloop
  endfacet
  facet normal 0 0 1
    outer loop
      vertex 13.4027 8.9554 10
      vertex 19.3732 12.9448 10
      vertex 18.0111 14.7814 10
    endloop
  endfacet
  facet normal -0 0 1
    outer loop
      vertex 15.4252 -4.67918 10
      vertex 22.2967 -6.76363 10
      vertex 15.8096 -3.14472 10
    endloop
  endfacet
  facet normal 0 0 1
    outer loop
      vertex 12.4604 10.226 10
      vertex 18.0111 14.7814 10
      vertex 16.4756 16.4756 10
    endloop
  endfacet
  facet normal 0 0 1
    outer loop
      vertex 22.2967 -6.76363 10
      vertex 15.4252 -4.67918 10
      vertex 21.5264 -8.91652 10
    endloop
  endfacet
  facet normal -0 0 1
    outer loop
      vertex 14.8923 -6.16859 10
      vertex 21.5264 -8.91652 10
      vertex 15.4252 -4.67918 10
    endloop
  endfacet
  facet normal 0 0 1
    outer loop
      vertex 23.1878 2.2838 10
      vertex 16.0417 1.57997 10
      vertex 16.1193 0 10
    endloop
  endfacet
  facet normal 0 0 1
    outer loop
      vertex 22.8523 4.5456 10
      vertex 15.8096 3.14472 10
      vertex 16.0417 1.57997 10
    endloop
  endfacet
  facet normal 0 0 1
    outer loop
      vertex 22.2967 6.76363 10
      vertex 15.4252 4.67918 10
      vertex 15.8096 3.14472 10
    endloop
  endfacet
  facet normal 0 0 1
    outer loop
      vertex 21.5264 8.91652 10
      vertex 14.8923 6.16859 10
      vertex 15.4252 4.67918 10
    endloop
  endfacet
  facet normal 0 0 1
    outer loop
      vertex 11.3981 11.3981 10
      vertex 16.4756 16.4756 10
      vertex 14.7814 18.0111 10
    endloop
  endfacet
  facet normal 0 0 1
    outer loop
      vertex 20.5488 10.9835 10
      vertex 14.2159 7.59858 10
      vertex 14.8923 6.16859 10
    endloop
  endfacet
  facet normal 0 0 1
    outer loop
      vertex 19.3732 12.9448 10
      vertex 13.4027 8.9554 10
      vertex 14.2159 7.59858 10
    endloop
  endfacet
  facet normal 0 0 1
    outer loop
      vertex 10.226 12.4604 10
      vertex 14.7814 18.0111 10
      vertex 12.9448 19.3732 10
    endloop
  endfacet
  facet normal 0 0 1
    outer loop
      vertex 18.0111 14.7814 10
      vertex 12.4604 10.226 10
      vertex 13.4027 8.9554 10
    endloop
  endfacet
  facet normal 0 0 1
    outer loop
      vertex 16.4756 16.4756 10
      vertex 11.3981 11.3981 10
      vertex 12.4604 10.226 10
    endloop
  endfacet
  facet normal 0 0 1
    outer loop
      vertex 8.9554 13.4027 10
      vertex 12.9448 19.3732 10
      vertex 10.9835 20.5488 10
    endloop
  endfacet
  facet normal 0 0 1
    outer loop
      vertex 14.7814 18.0111 10
      vertex 10.226 12.4604 10
      vertex 11.3981 11.3981 10
    endloop
  endfacet
  facet normal 0 0 1
    outer loop
      vertex 12.9448 19.3732 10
      vertex 8.9554 13.4027 10
      vertex 10.226 12.4604 10
    endloop
  endfacet
  facet normal 0 0 1
    outer loop
      vertex 7.59858 14.2159 10
      vertex 10.9835 20.5488 10
      vertex 8.91652 21.5264 10
    endloop
  endfacet
  facet normal 0 0 1
    outer loop
      vertex 10.9835 20.5488 10
      vertex 7.59858 14.2159 10
      vertex 8.9554 13.4027 10
    endloop
  endfacet
  facet normal 0 0 1
    outer loop
      vertex 6.16859 14.8923 10
      vertex 8.91652 21.5264 10
      vertex 6.76363 22.2967 10
    endloop
  endfacet
  facet normal 0 0 1
    outer loop
      vertex 8.91652 21.5264 10
      vertex 6.16859 14.8923 10
      vertex 7.59858 14.2159 10
    endloop
  endfacet
  facet normal 0 0 1
    outer loop
      vertex 6.76363 22.2967 10
      vertex 4.67918 15.4252 10
      vertex 6.16859 14.8923 10
    endloop
  endfacet
  facet normal 0 0 1
    outer loop
      vertex 4.5456 22.8523 10
      vertex 4.67918 15.4252 10
      vertex 6.76363 22.2967 10
    endloop
  endfacet
  facet normal 0 0 1
    outer loop
      vertex 4.5456 22.8523 10
      vertex 3.14472 15.8096 10
      vertex 4.67918 15.4252 10
    endloop
  endfacet
  facet normal 0 0 1
    outer loop
      vertex 2.2838 23.1878 10
      vertex 3.14472 15.8096 10
      vertex 4.5456 22.8523 10
    endloop
  endfacet
  facet normal 0 0 1
    outer loop
      vertex 2.2838 23.1878 10
      vertex 1.57997 16.0417 10
      vertex 3.14472 15.8096 10
    endloop
  endfacet
  facet normal 0 0 1
    outer loop
      vertex 0 23.3 10
      vertex 1.57997 16.0417 10
      vertex 2.2838 23.1878 10
    endloop
  endfacet
  facet normal 0 0 1
    outer loop
      vertex 0 23.3 10
      vertex 0 16.1193 10
      vertex 1.57997 16.0417 10
    endloop
  endfacet
  facet normal 0 0 1
    outer loop
      vertex 0 23.3 10
      vertex -1.57997 16.0417 10
      vertex 0 16.1193 10
    endloop
  endfacet
  facet normal -0 0 1
    outer loop
      vertex -2.2838 23.1878 10
      vertex -1.57997 16.0417 10
      vertex 0 23.3 10
    endloop
  endfacet
  facet normal 0 0 1
    outer loop
      vertex -2.2838 23.1878 10
      vertex -3.14472 15.8096 10
      vertex -1.57997 16.0417 10
    endloop
  endfacet
  facet normal -0 0 1
    outer loop
      vertex -4.5456 22.8523 10
      vertex -3.14472 15.8096 10
      vertex -2.2838 23.1878 10
    endloop
  endfacet
  facet normal 0 0 1
    outer loop
      vertex -4.5456 22.8523 10
      vertex -4.67918 15.4252 10
      vertex -3.14472 15.8096 10
    endloop
  endfacet
  facet normal -0 0 1
    outer loop
      vertex -6.76363 22.2967 10
      vertex -4.67918 15.4252 10
      vertex -4.5456 22.8523 10
    endloop
  endfacet
  facet normal 0 0 1
    outer loop
      vertex -4.67918 15.4252 10
      vertex -6.76363 22.2967 10
      vertex -6.16859 14.8923 10
    endloop
  endfacet
  facet normal -0 0 1
    outer loop
      vertex -8.91652 21.5264 10
      vertex -6.16859 14.8923 10
      vertex -6.76363 22.2967 10
    endloop
  endfacet
  facet normal 0 0 1
    outer loop
      vertex -6.16859 14.8923 10
      vertex -8.91652 21.5264 10
      vertex -7.59858 14.2159 10
    endloop
  endfacet
  facet normal -0 0 1
    outer loop
      vertex -10.9835 20.5488 10
      vertex -7.59858 14.2159 10
      vertex -8.91652 21.5264 10
    endloop
  endfacet
  facet normal 0 0 1
    outer loop
      vertex -7.59858 14.2159 10
      vertex -10.9835 20.5488 10
      vertex -8.9554 13.4027 10
    endloop
  endfacet
  facet normal -0 0 1
    outer loop
      vertex -12.9448 19.3732 10
      vertex -8.9554 13.4027 10
      vertex -10.9835 20.5488 10
    endloop
  endfacet
  facet normal 0 0 1
    outer loop
      vertex -8.9554 13.4027 10
      vertex -12.9448 19.3732 10
      vertex -10.226 12.4604 10
    endloop
  endfacet
  facet normal -0 0 1
    outer loop
      vertex -14.7814 18.0111 10
      vertex -10.226 12.4604 10
      vertex -12.9448 19.3732 10
    endloop
  endfacet
  facet normal 0 0 1
    outer loop
      vertex -10.226 12.4604 10
      vertex -14.7814 18.0111 10
      vertex -11.3981 11.3981 10
    endloop
  endfacet
  facet normal -0 0 1
    outer loop
      vertex -16.4756 16.4756 10
      vertex -11.3981 11.3981 10
      vertex -14.7814 18.0111 10
    endloop
  endfacet
  facet normal 0 0 1
    outer loop
      vertex -11.3981 11.3981 10
      vertex -16.4756 16.4756 10
      vertex -12.4604 10.226 10
    endloop
  endfacet
  facet normal -0 0 1
    outer loop
      vertex -18.0111 14.7814 10
      vertex -12.4604 10.226 10
      vertex -16.4756 16.4756 10
    endloop
  endfacet
  facet normal 0 0 1
    outer loop
      vertex -12.4604 10.226 10
      vertex -18.0111 14.7814 10
      vertex -13.4027 8.9554 10
    endloop
  endfacet
  facet normal -0 0 1
    outer loop
      vertex -19.3732 12.9448 10
      vertex -13.4027 8.9554 10
      vertex -18.0111 14.7814 10
    endloop
  endfacet
  facet normal 0 0 1
    outer loop
      vertex -13.4027 8.9554 10
      vertex -19.3732 12.9448 10
      vertex -14.2159 7.59858 10
    endloop
  endfacet
  facet normal -0 0 1
    outer loop
      vertex -20.5488 10.9835 10
      vertex -14.2159 7.59858 10
      vertex -19.3732 12.9448 10
    endloop
  endfacet
  facet normal -0 0 1
    outer loop
      vertex -21.5264 8.91652 10
      vertex -14.8923 6.16859 10
      vertex -20.5488 10.9835 10
    endloop
  endfacet
  facet normal 0 0 1
    outer loop
      vertex -14.2159 7.59858 10
      vertex -20.5488 10.9835 10
      vertex -14.8923 6.16859 10
    endloop
  endfacet
  facet normal 0 0 1
    outer loop
      vertex 21.5264 -8.91652 10
      vertex 14.8923 -6.16859 10
      vertex 20.5488 -10.9835 10
    endloop
  endfacet
  facet normal -0 0 1
    outer loop
      vertex 14.2159 -7.59858 10
      vertex 20.5488 -10.9835 10
      vertex 14.8923 -6.16859 10
    endloop
  endfacet
  facet normal 0 0 1
    outer loop
      vertex 20.5488 -10.9835 10
      vertex 14.2159 -7.59858 10
      vertex 19.3732 -12.9448 10
    endloop
  endfacet
  facet normal -0 0 1
    outer loop
      vertex 13.4027 -8.9554 10
      vertex 19.3732 -12.9448 10
      vertex 14.2159 -7.59858 10
    endloop
  endfacet
  facet normal 0 0 1
    outer loop
      vertex 19.3732 -12.9448 10
      vertex 13.4027 -8.9554 10
      vertex 18.0111 -14.7814 10
    endloop
  endfacet
  facet normal -0 0 1
    outer loop
      vertex 12.4604 -10.226 10
      vertex 18.0111 -14.7814 10
      vertex 13.4027 -8.9554 10
    endloop
  endfacet
  facet normal 0 0 1
    outer loop
      vertex 18.0111 -14.7814 10
      vertex 12.4604 -10.226 10
      vertex 16.4756 -16.4756 10
    endloop
  endfacet
  facet normal -0 0 1
    outer loop
      vertex 11.3981 -11.3981 10
      vertex 16.4756 -16.4756 10
      vertex 12.4604 -10.226 10
    endloop
  endfacet
  facet normal 0 0 1
    outer loop
      vertex 16.4756 -16.4756 10
      vertex 11.3981 -11.3981 10
      vertex 14.7814 -18.0111 10
    endloop
  endfacet
  facet normal -0 0 1
    outer loop
      vertex 10.226 -12.4604 10
      vertex 14.7814 -18.0111 10
      vertex 11.3981 -11.3981 10
    endloop
  endfacet
  facet normal 0 0 1
    outer loop
      vertex 14.7814 -18.0111 10
      vertex 10.226 -12.4604 10
      vertex 12.9448 -19.3732 10
    endloop
  endfacet
  facet normal -0 0 1
    outer loop
      vertex 8.9554 -13.4027 10
      vertex 12.9448 -19.3732 10
      vertex 10.226 -12.4604 10
    endloop
  endfacet
  facet normal 0 0 1
    outer loop
      vertex 12.9448 -19.3732 10
      vertex 8.9554 -13.4027 10
      vertex 10.9835 -20.5488 10
    endloop
  endfacet
  facet normal -0 0 1
    outer loop
      vertex 7.59858 -14.2159 10
      vertex 10.9835 -20.5488 10
      vertex 8.9554 -13.4027 10
    endloop
  endfacet
  facet normal 0 0 1
    outer loop
      vertex 10.9835 -20.5488 10
      vertex 7.59858 -14.2159 10
      vertex 8.91652 -21.5264 10
    endloop
  endfacet
  facet normal -0 0 1
    outer loop
      vertex 6.16859 -14.8923 10
      vertex 8.91652 -21.5264 10
      vertex 7.59858 -14.2159 10
    endloop
  endfacet
  facet normal 0 0 1
    outer loop
      vertex 8.91652 -21.5264 10
      vertex 6.16859 -14.8923 10
      vertex 6.76363 -22.2967 10
    endloop
  endfacet
  facet normal -0 0 1
    outer loop
      vertex 4.67918 -15.4252 10
      vertex 6.76363 -22.2967 10
      vertex 6.16859 -14.8923 10
    endloop
  endfacet
  facet normal 0 0 1
    outer loop
      vertex 4.67918 -15.4252 10
      vertex 4.5456 -22.8523 10
      vertex 6.76363 -22.2967 10
    endloop
  endfacet
  facet normal -0 0 1
    outer loop
      vertex 3.14472 -15.8096 10
      vertex 4.5456 -22.8523 10
      vertex 4.67918 -15.4252 10
    endloop
  endfacet
  facet normal 0 0 1
    outer loop
      vertex 3.14472 -15.8096 10
      vertex 2.2838 -23.1878 10
      vertex 4.5456 -22.8523 10
    endloop
  endfacet
  facet normal -0 0 1
    outer loop
      vertex 1.57997 -16.0417 10
      vertex 2.2838 -23.1878 10
      vertex 3.14472 -15.8096 10
    endloop
  endfacet
  facet normal -0 0 1
    outer loop
      vertex 0 -16.1193 10
      vertex 2.2838 -23.1878 10
      vertex 1.57997 -16.0417 10
    endloop
  endfacet
  facet normal 0 0 1
    outer loop
      vertex 0 -16.1193 10
      vertex 0 -23.3 10
      vertex 2.2838 -23.1878 10
    endloop
  endfacet
  facet normal 0 0 1
    outer loop
      vertex -1.57997 -16.0417 10
      vertex 0 -23.3 10
      vertex 0 -16.1193 10
    endloop
  endfacet
  facet normal 0 0 1
    outer loop
      vertex -1.57997 -16.0417 10
      vertex -2.2838 -23.1878 10
      vertex 0 -23.3 10
    endloop
  endfacet
  facet normal 0 0 1
    outer loop
      vertex -3.14472 -15.8096 10
      vertex -2.2838 -23.1878 10
      vertex -1.57997 -16.0417 10
    endloop
  endfacet
  facet normal 0 0 1
    outer loop
      vertex -3.14472 -15.8096 10
      vertex -4.5456 -22.8523 10
      vertex -2.2838 -23.1878 10
    endloop
  endfacet
  facet normal 0 0 1
    outer loop
      vertex -4.67918 -15.4252 10
      vertex -4.5456 -22.8523 10
      vertex -3.14472 -15.8096 10
    endloop
  endfacet
  facet normal 0 0 1
    outer loop
      vertex -6.76363 -22.2967 10
      vertex -4.67918 -15.4252 10
      vertex -6.16859 -14.8923 10
    endloop
  endfacet
  facet normal 0 0 1
    outer loop
      vertex -4.67918 -15.4252 10
      vertex -6.76363 -22.2967 10
      vertex -4.5456 -22.8523 10
    endloop
  endfacet
  facet normal 0 0 1
    outer loop
      vertex -8.91652 -21.5264 10
      vertex -6.16859 -14.8923 10
      vertex -7.59858 -14.2159 10
    endloop
  endfacet
  facet normal 0 0 1
    outer loop
      vertex -6.16859 -14.8923 10
      vertex -8.91652 -21.5264 10
      vertex -6.76363 -22.2967 10
    endloop
  endfacet
  facet normal 0 0 1
    outer loop
      vertex -10.9835 -20.5488 10
      vertex -7.59858 -14.2159 10
      vertex -8.9554 -13.4027 10
    endloop
  endfacet
  facet normal 0 0 1
    outer loop
      vertex -12.9448 -19.3732 10
      vertex -8.9554 -13.4027 10
      vertex -10.226 -12.4604 10
    endloop
  endfacet
  facet normal 0 0 1
    outer loop
      vertex -7.59858 -14.2159 10
      vertex -10.9835 -20.5488 10
      vertex -8.91652 -21.5264 10
    endloop
  endfacet
  facet normal 0 0 1
    outer loop
      vertex -14.7814 -18.0111 10
      vertex -10.226 -12.4604 10
      vertex -11.3981 -11.3981 10
    endloop
  endfacet
  facet normal 0 0 1
    outer loop
      vertex -16.4756 -16.4756 10
      vertex -11.3981 -11.3981 10
      vertex -12.4604 -10.226 10
    endloop
  endfacet
  facet normal 0 0 1
    outer loop
      vertex -8.9554 -13.4027 10
      vertex -12.9448 -19.3732 10
      vertex -10.9835 -20.5488 10
    endloop
  endfacet
  facet normal 0 0 1
    outer loop
      vertex -18.0111 -14.7814 10
      vertex -12.4604 -10.226 10
      vertex -13.4027 -8.9554 10
    endloop
  endfacet
  facet normal 0 0 1
    outer loop
      vertex -19.3732 -12.9448 10
      vertex -13.4027 -8.9554 10
      vertex -14.2159 -7.59858 10
    endloop
  endfacet
  facet normal 0 0 1
    outer loop
      vertex -10.226 -12.4604 10
      vertex -14.7814 -18.0111 10
      vertex -12.9448 -19.3732 10
    endloop
  endfacet
  facet normal 0 0 1
    outer loop
      vertex -20.5488 -10.9835 10
      vertex -14.2159 -7.59858 10
      vertex -14.8923 -6.16859 10
    endloop
  endfacet
  facet normal 0 0 1
    outer loop
      vertex -21.5264 -8.91652 10
      vertex -14.8923 -6.16859 10
      vertex -15.4252 -4.67918 10
    endloop
  endfacet
  facet normal 0 0 1
    outer loop
      vertex -22.2967 -6.76363 10
      vertex -15.4252 -4.67918 10
      vertex -15.8096 -3.14472 10
    endloop
  endfacet
  facet normal 0 0 1
    outer loop
      vertex -22.8523 -4.5456 10
      vertex -15.8096 -3.14472 10
      vertex -16.0417 -1.57997 10
    endloop
  endfacet
  facet normal 0 0 1
    outer loop
      vertex -11.3981 -11.3981 10
      vertex -16.4756 -16.4756 10
      vertex -14.7814 -18.0111 10
    endloop
  endfacet
  facet normal 0 0 1
    outer loop
      vertex -23.1878 -2.2838 10
      vertex -16.0417 -1.57997 10
      vertex -16.1193 0 10
    endloop
  endfacet
  facet normal 0 0 1
    outer loop
      vertex -14.8923 6.16859 10
      vertex -21.5264 8.91652 10
      vertex -15.4252 4.67918 10
    endloop
  endfacet
  facet normal -0 0 1
    outer loop
      vertex -22.2967 6.76363 10
      vertex -15.4252 4.67918 10
      vertex -21.5264 8.91652 10
    endloop
  endfacet
  facet normal 0 0 1
    outer loop
      vertex -12.4604 -10.226 10
      vertex -18.0111 -14.7814 10
      vertex -16.4756 -16.4756 10
    endloop
  endfacet
  facet normal 0 0 1
    outer loop
      vertex -15.4252 4.67918 10
      vertex -22.2967 6.76363 10
      vertex -15.8096 3.14472 10
    endloop
  endfacet
  facet normal 0 0 1
    outer loop
      vertex -13.4027 -8.9554 10
      vertex -19.3732 -12.9448 10
      vertex -18.0111 -14.7814 10
    endloop
  endfacet
  facet normal -0 0 1
    outer loop
      vertex -22.8523 4.5456 10
      vertex -15.8096 3.14472 10
      vertex -22.2967 6.76363 10
    endloop
  endfacet
  facet normal 0 0 1
    outer loop
      vertex -14.2159 -7.59858 10
      vertex -20.5488 -10.9835 10
      vertex -19.3732 -12.9448 10
    endloop
  endfacet
  facet normal 0 0 1
    outer loop
      vertex -15.8096 3.14472 10
      vertex -22.8523 4.5456 10
      vertex -16.0417 1.57997 10
    endloop
  endfacet
  facet normal 0 0 1
    outer loop
      vertex -14.8923 -6.16859 10
      vertex -21.5264 -8.91652 10
      vertex -20.5488 -10.9835 10
    endloop
  endfacet
  facet normal -0 0 1
    outer loop
      vertex -23.1878 2.2838 10
      vertex -16.0417 1.57997 10
      vertex -22.8523 4.5456 10
    endloop
  endfacet
  facet normal 0 0 1
    outer loop
      vertex -15.4252 -4.67918 10
      vertex -22.2967 -6.76363 10
      vertex -21.5264 -8.91652 10
    endloop
  endfacet
  facet normal 0 0 1
    outer loop
      vertex -16.0417 1.57997 10
      vertex -23.1878 2.2838 10
      vertex -16.1193 0 10
    endloop
  endfacet
  facet normal 0 0 1
    outer loop
      vertex -15.8096 -3.14472 10
      vertex -22.8523 -4.5456 10
      vertex -22.2967 -6.76363 10
    endloop
  endfacet
  facet normal 0 0 1
    outer loop
      vertex -23.3 0 10
      vertex -16.1193 0 10
      vertex -23.1878 2.2838 10
    endloop
  endfacet
  facet normal 0 0 1
    outer loop
      vertex -16.0417 -1.57997 10
      vertex -23.1878 -2.2838 10
      vertex -22.8523 -4.5456 10
    endloop
  endfacet
  facet normal 0 0 1
    outer loop
      vertex -16.1193 0 10
      vertex -23.3 0 10
      vertex -23.1878 -2.2838 10
    endloop
  endfacet
  facet normal -0.998795 0.0490695 0
    outer loop
      vertex -23.3 0 0
      vertex -23.1878 2.2838 10
      vertex -23.1878 2.2838 0
    endloop
  endfacet
  facet normal -0.998795 0.0490695 0
    outer loop
      vertex -23.1878 2.2838 10
      vertex -23.3 0 0
      vertex -23.3 0 10
    endloop
  endfacet
  facet normal 0.671551 -0.740958 0
    outer loop
      vertex 14.7814 -18.0111 0
      vertex 16.4756 -16.4756 10
      vertex 14.7814 -18.0111 10
    endloop
  endfacet
  facet normal 0.671551 -0.740958 0
    outer loop
      vertex 16.4756 -16.4756 10
      vertex 14.7814 -18.0111 0
      vertex 16.4756 -16.4756 0
    endloop
  endfacet
  facet normal 0.80322 -0.595683 0
    outer loop
      vertex -13.4027 8.9554 10
      vertex -12.4604 10.226 3
      vertex -12.4604 10.226 10
    endloop
  endfacet
  facet normal 0.80322 -0.595683 0
    outer loop
      vertex -12.4604 10.226 3
      vertex -13.4027 8.9554 10
      vertex -13.4027 8.9554 3
    endloop
  endfacet
  facet normal -0.989177 -0.146725 0
    outer loop
      vertex 16.0417 1.57997 3
      vertex 15.8096 3.14472 10
      vertex 15.8096 3.14472 3
    endloop
  endfacet
  facet normal -0.989177 -0.146725 0
    outer loop
      vertex 15.8096 3.14472 10
      vertex 16.0417 1.57997 3
      vertex 16.0417 1.57997 10
    endloop
  endfacet
  facet normal -0.998796 -0.0490557 0
    outer loop
      vertex 16.1193 0 3
      vertex 16.0417 1.57997 10
      vertex 16.0417 1.57997 3
    endloop
  endfacet
  facet normal -0.998796 -0.0490557 0
    outer loop
      vertex 16.0417 1.57997 10
      vertex 16.1193 0 3
      vertex 16.1193 0 10
    endloop
  endfacet
  facet normal -0.970026 -0.243003 0
    outer loop
      vertex 15.8096 3.14472 3
      vertex 15.4252 4.67918 10
      vertex 15.4252 4.67918 3
    endloop
  endfacet
  facet normal -0.970026 -0.243003 0
    outer loop
      vertex 15.4252 4.67918 10
      vertex 15.8096 3.14472 3
      vertex 15.8096 3.14472 10
    endloop
  endfacet
  facet normal -0.336879 -0.941548 0
    outer loop
      vertex 4.67918 15.4252 3
      vertex 6.16859 14.8923 10
      vertex 4.67918 15.4252 10
    endloop
  endfacet
  facet normal -0.336879 -0.941548 -0
    outer loop
      vertex 6.16859 14.8923 10
      vertex 4.67918 15.4252 3
      vertex 6.16859 14.8923 3
    endloop
  endfacet
  facet normal -0.989177 0.146725 0
    outer loop
      vertex 15.8096 -3.14472 3
      vertex 16.0417 -1.57997 10
      vertex 16.0417 -1.57997 3
    endloop
  endfacet
  facet normal -0.989177 0.146725 0
    outer loop
      vertex 16.0417 -1.57997 10
      vertex 15.8096 -3.14472 3
      vertex 15.8096 -3.14472 10
    endloop
  endfacet
  facet normal -0.80322 -0.595683 0
    outer loop
      vertex 13.4027 8.9554 3
      vertex 12.4604 10.226 10
      vertex 12.4604 10.226 3
    endloop
  endfacet
  facet normal -0.80322 -0.595683 0
    outer loop
      vertex 12.4604 10.226 10
      vertex 13.4027 8.9554 3
      vertex 13.4027 8.9554 10
    endloop
  endfacet
  facet normal -0.595683 -0.80322 0
    outer loop
      vertex 8.9554 13.4027 3
      vertex 10.226 12.4604 10
      vertex 8.9554 13.4027 10
    endloop
  endfacet
  facet normal -0.595683 -0.80322 -0
    outer loop
      vertex 10.226 12.4604 10
      vertex 8.9554 13.4027 3
      vertex 10.226 12.4604 3
    endloop
  endfacet
  facet normal 0.903973 0.427589 0
    outer loop
      vertex -14.2159 -7.59858 10
      vertex -14.8923 -6.16859 3
      vertex -14.8923 -6.16859 10
    endloop
  endfacet
  facet normal 0.903973 0.427589 0
    outer loop
      vertex -14.8923 -6.16859 3
      vertex -14.2159 -7.59858 10
      vertex -14.2159 -7.59858 3
    endloop
  endfacet
  facet normal -0.998796 0.0490557 0
    outer loop
      vertex 16.0417 -1.57997 3
      vertex 16.1193 0 10
      vertex 16.1193 0 3
    endloop
  endfacet
  facet normal -0.998796 0.0490557 0
    outer loop
      vertex 16.1193 0 10
      vertex 16.0417 -1.57997 3
      vertex 16.0417 -1.57997 10
    endloop
  endfacet
  facet normal -0.74096 0.671549 0
    outer loop
      vertex 11.3981 -11.3981 3
      vertex 12.4604 -10.226 10
      vertex 12.4604 -10.226 3
    endloop
  endfacet
  facet normal -0.74096 0.671549 0
    outer loop
      vertex 12.4604 -10.226 10
      vertex 11.3981 -11.3981 3
      vertex 11.3981 -11.3981 10
    endloop
  endfacet
  facet normal 0.941548 -0.336879 0
    outer loop
      vertex -15.4252 4.67918 10
      vertex -14.8923 6.16859 3
      vertex -14.8923 6.16859 10
    endloop
  endfacet
  facet normal 0.941548 -0.336879 0
    outer loop
      vertex -14.8923 6.16859 3
      vertex -15.4252 4.67918 10
      vertex -15.4252 4.67918 3
    endloop
  endfacet
  facet normal 0.243003 0.970026 -0
    outer loop
      vertex -3.14472 -15.8096 3
      vertex -4.67918 -15.4252 10
      vertex -3.14472 -15.8096 10
    endloop
  endfacet
  facet normal 0.243003 0.970026 0
    outer loop
      vertex -4.67918 -15.4252 10
      vertex -3.14472 -15.8096 3
      vertex -4.67918 -15.4252 3
    endloop
  endfacet
  facet normal -0.427589 -0.903973 0
    outer loop
      vertex 6.16859 14.8923 3
      vertex 7.59858 14.2159 10
      vertex 6.16859 14.8923 10
    endloop
  endfacet
  facet normal -0.427589 -0.903973 -0
    outer loop
      vertex 7.59858 14.2159 10
      vertex 6.16859 14.8923 3
      vertex 7.59858 14.2159 3
    endloop
  endfacet
  facet normal -0.146725 -0.989177 0
    outer loop
      vertex 1.57997 16.0417 3
      vertex 3.14472 15.8096 10
      vertex 1.57997 16.0417 10
    endloop
  endfacet
  facet normal -0.146725 -0.989177 -0
    outer loop
      vertex 3.14472 15.8096 10
      vertex 1.57997 16.0417 3
      vertex 3.14472 15.8096 3
    endloop
  endfacet
  facet normal -0.941548 -0.336879 0
    outer loop
      vertex 15.4252 4.67918 3
      vertex 14.8923 6.16859 10
      vertex 14.8923 6.16859 3
    endloop
  endfacet
  facet normal -0.941548 -0.336879 0
    outer loop
      vertex 14.8923 6.16859 10
      vertex 15.4252 4.67918 3
      vertex 15.4252 4.67918 10
    endloop
  endfacet
  facet normal 0.74096 -0.671549 0
    outer loop
      vertex -12.4604 10.226 10
      vertex -11.3981 11.3981 3
      vertex -11.3981 11.3981 10
    endloop
  endfacet
  facet normal 0.74096 -0.671549 0
    outer loop
      vertex -11.3981 11.3981 3
      vertex -12.4604 10.226 10
      vertex -12.4604 10.226 3
    endloop
  endfacet
  facet normal -0.427589 0.903973 0
    outer loop
      vertex 7.59858 -14.2159 3
      vertex 6.16859 -14.8923 10
      vertex 7.59858 -14.2159 10
    endloop
  endfacet
  facet normal -0.427589 0.903973 0
    outer loop
      vertex 6.16859 -14.8923 10
      vertex 7.59858 -14.2159 3
      vertex 6.16859 -14.8923 3
    endloop
  endfacet
  facet normal -0.336879 0.941548 0
    outer loop
      vertex 6.16859 -14.8923 3
      vertex 4.67918 -15.4252 10
      vertex 6.16859 -14.8923 10
    endloop
  endfacet
  facet normal -0.336879 0.941548 0
    outer loop
      vertex 4.67918 -15.4252 10
      vertex 6.16859 -14.8923 3
      vertex 4.67918 -15.4252 3
    endloop
  endfacet
  facet normal 0.989177 0.146725 0
    outer loop
      vertex -15.8096 -3.14472 10
      vertex -16.0417 -1.57997 3
      vertex -16.0417 -1.57997 10
    endloop
  endfacet
  facet normal 0.989177 0.146725 0
    outer loop
      vertex -16.0417 -1.57997 3
      vertex -15.8096 -3.14472 10
      vertex -15.8096 -3.14472 3
    endloop
  endfacet
  facet normal -0.80322 0.595683 0
    outer loop
      vertex 12.4604 -10.226 3
      vertex 13.4027 -8.9554 10
      vertex 13.4027 -8.9554 3
    endloop
  endfacet
  facet normal -0.80322 0.595683 0
    outer loop
      vertex 13.4027 -8.9554 10
      vertex 12.4604 -10.226 3
      vertex 12.4604 -10.226 10
    endloop
  endfacet
  facet normal 0.941548 0.336879 0
    outer loop
      vertex -14.8923 -6.16859 10
      vertex -15.4252 -4.67918 3
      vertex -15.4252 -4.67918 10
    endloop
  endfacet
  facet normal 0.941548 0.336879 0
    outer loop
      vertex -15.4252 -4.67918 3
      vertex -14.8923 -6.16859 10
      vertex -14.8923 -6.16859 3
    endloop
  endfacet
  facet normal 0.989177 -0.146725 0
    outer loop
      vertex -16.0417 1.57997 10
      vertex -15.8096 3.14472 3
      vertex -15.8096 3.14472 10
    endloop
  endfacet
  facet normal 0.989177 -0.146725 0
    outer loop
      vertex -15.8096 3.14472 3
      vertex -16.0417 1.57997 10
      vertex -16.0417 1.57997 3
    endloop
  endfacet
  facet normal 0.514081 -0.857742 0
    outer loop
      vertex -8.9554 13.4027 3
      vertex -7.59858 14.2159 10
      vertex -8.9554 13.4027 10
    endloop
  endfacet
  facet normal 0.514081 -0.857742 0
    outer loop
      vertex -7.59858 14.2159 10
      vertex -8.9554 13.4027 3
      vertex -7.59858 14.2159 3
    endloop
  endfacet
  facet normal 0.857742 0.514081 0
    outer loop
      vertex -13.4027 -8.9554 10
      vertex -14.2159 -7.59858 3
      vertex -14.2159 -7.59858 10
    endloop
  endfacet
  facet normal 0.857742 0.514081 0
    outer loop
      vertex -14.2159 -7.59858 3
      vertex -13.4027 -8.9554 10
      vertex -13.4027 -8.9554 3
    endloop
  endfacet
  facet normal -0.857742 0.514081 0
    outer loop
      vertex 13.4027 -8.9554 3
      vertex 14.2159 -7.59858 10
      vertex 14.2159 -7.59858 3
    endloop
  endfacet
  facet normal -0.857742 0.514081 0
    outer loop
      vertex 14.2159 -7.59858 10
      vertex 13.4027 -8.9554 3
      vertex 13.4027 -8.9554 10
    endloop
  endfacet
  facet normal 0.243003 -0.970026 0
    outer loop
      vertex -4.67918 15.4252 3
      vertex -3.14472 15.8096 10
      vertex -4.67918 15.4252 10
    endloop
  endfacet
  facet normal 0.243003 -0.970026 0
    outer loop
      vertex -3.14472 15.8096 10
      vertex -4.67918 15.4252 3
      vertex -3.14472 15.8096 3
    endloop
  endfacet
  facet normal -0.903973 -0.427589 0
    outer loop
      vertex 14.8923 6.16859 3
      vertex 14.2159 7.59858 10
      vertex 14.2159 7.59858 3
    endloop
  endfacet
  facet normal -0.903973 -0.427589 0
    outer loop
      vertex 14.2159 7.59858 10
      vertex 14.8923 6.16859 3
      vertex 14.8923 6.16859 10
    endloop
  endfacet
  facet normal 0.146725 -0.989177 0
    outer loop
      vertex -3.14472 15.8096 3
      vertex -1.57997 16.0417 10
      vertex -3.14472 15.8096 10
    endloop
  endfacet
  facet normal 0.146725 -0.989177 0
    outer loop
      vertex -1.57997 16.0417 10
      vertex -3.14472 15.8096 3
      vertex -1.57997 16.0417 3
    endloop
  endfacet
  facet normal 0.336879 -0.941548 0
    outer loop
      vertex -6.16859 14.8923 3
      vertex -4.67918 15.4252 10
      vertex -6.16859 14.8923 10
    endloop
  endfacet
  facet normal 0.336879 -0.941548 0
    outer loop
      vertex -4.67918 15.4252 10
      vertex -6.16859 14.8923 3
      vertex -4.67918 15.4252 3
    endloop
  endfacet
  facet normal 0.146725 0.989177 -0
    outer loop
      vertex -1.57997 -16.0417 3
      vertex -3.14472 -15.8096 10
      vertex -1.57997 -16.0417 10
    endloop
  endfacet
  facet normal 0.146725 0.989177 0
    outer loop
      vertex -3.14472 -15.8096 10
      vertex -1.57997 -16.0417 3
      vertex -3.14472 -15.8096 3
    endloop
  endfacet
  facet normal -0.671549 -0.74096 0
    outer loop
      vertex 10.226 12.4604 3
      vertex 11.3981 11.3981 10
      vertex 10.226 12.4604 10
    endloop
  endfacet
  facet normal -0.671549 -0.74096 -0
    outer loop
      vertex 11.3981 11.3981 10
      vertex 10.226 12.4604 3
      vertex 11.3981 11.3981 3
    endloop
  endfacet
  facet normal 0.427589 -0.903973 0
    outer loop
      vertex -7.59858 14.2159 3
      vertex -6.16859 14.8923 10
      vertex -7.59858 14.2159 10
    endloop
  endfacet
  facet normal 0.427589 -0.903973 0
    outer loop
      vertex -6.16859 14.8923 10
      vertex -7.59858 14.2159 3
      vertex -6.16859 14.8923 3
    endloop
  endfacet
  facet normal 0.336879 0.941548 -0
    outer loop
      vertex -4.67918 -15.4252 3
      vertex -6.16859 -14.8923 10
      vertex -4.67918 -15.4252 10
    endloop
  endfacet
  facet normal 0.336879 0.941548 0
    outer loop
      vertex -6.16859 -14.8923 10
      vertex -4.67918 -15.4252 3
      vertex -6.16859 -14.8923 3
    endloop
  endfacet
  facet normal 0.970026 0.243003 0
    outer loop
      vertex -15.4252 -4.67918 10
      vertex -15.8096 -3.14472 3
      vertex -15.8096 -3.14472 10
    endloop
  endfacet
  facet normal 0.970026 0.243003 0
    outer loop
      vertex -15.8096 -3.14472 3
      vertex -15.4252 -4.67918 10
      vertex -15.4252 -4.67918 3
    endloop
  endfacet
  facet normal 0.0490557 0.998796 -0
    outer loop
      vertex 0 -16.1193 3
      vertex -1.57997 -16.0417 10
      vertex 0 -16.1193 10
    endloop
  endfacet
  facet normal 0.0490557 0.998796 0
    outer loop
      vertex -1.57997 -16.0417 10
      vertex 0 -16.1193 3
      vertex -1.57997 -16.0417 3
    endloop
  endfacet
  facet normal -0.243003 -0.970026 0
    outer loop
      vertex 3.14472 15.8096 3
      vertex 4.67918 15.4252 10
      vertex 3.14472 15.8096 10
    endloop
  endfacet
  facet normal -0.243003 -0.970026 -0
    outer loop
      vertex 4.67918 15.4252 10
      vertex 3.14472 15.8096 3
      vertex 4.67918 15.4252 3
    endloop
  endfacet
  facet normal -0.903973 0.427589 0
    outer loop
      vertex 14.2159 -7.59858 3
      vertex 14.8923 -6.16859 10
      vertex 14.8923 -6.16859 3
    endloop
  endfacet
  facet normal -0.903973 0.427589 0
    outer loop
      vertex 14.8923 -6.16859 10
      vertex 14.2159 -7.59858 3
      vertex 14.2159 -7.59858 10
    endloop
  endfacet
  facet normal -0.74096 -0.671549 0
    outer loop
      vertex 12.4604 10.226 3
      vertex 11.3981 11.3981 10
      vertex 11.3981 11.3981 3
    endloop
  endfacet
  facet normal -0.74096 -0.671549 0
    outer loop
      vertex 11.3981 11.3981 10
      vertex 12.4604 10.226 3
      vertex 12.4604 10.226 10
    endloop
  endfacet
  facet normal -0.514081 -0.857742 0
    outer loop
      vertex 7.59858 14.2159 3
      vertex 8.9554 13.4027 10
      vertex 7.59858 14.2159 10
    endloop
  endfacet
  facet normal -0.514081 -0.857742 -0
    outer loop
      vertex 8.9554 13.4027 10
      vertex 7.59858 14.2159 3
      vertex 8.9554 13.4027 3
    endloop
  endfacet
  facet normal 0.970026 -0.243003 0
    outer loop
      vertex -15.8096 3.14472 10
      vertex -15.4252 4.67918 3
      vertex -15.4252 4.67918 10
    endloop
  endfacet
  facet normal 0.970026 -0.243003 0
    outer loop
      vertex -15.4252 4.67918 3
      vertex -15.8096 3.14472 10
      vertex -15.8096 3.14472 3
    endloop
  endfacet
  facet normal -0.970026 0.243003 0
    outer loop
      vertex 15.4252 -4.67918 3
      vertex 15.8096 -3.14472 10
      vertex 15.8096 -3.14472 3
    endloop
  endfacet
  facet normal -0.970026 0.243003 0
    outer loop
      vertex 15.8096 -3.14472 10
      vertex 15.4252 -4.67918 3
      vertex 15.4252 -4.67918 10
    endloop
  endfacet
  facet normal 0.0490557 -0.998796 0
    outer loop
      vertex -1.57997 16.0417 3
      vertex 0 16.1193 10
      vertex -1.57997 16.0417 10
    endloop
  endfacet
  facet normal 0.0490557 -0.998796 0
    outer loop
      vertex 0 16.1193 10
      vertex -1.57997 16.0417 3
      vertex 0 16.1193 3
    endloop
  endfacet
  facet normal 0.74096 0.671549 0
    outer loop
      vertex -11.3981 -11.3981 10
      vertex -12.4604 -10.226 3
      vertex -12.4604 -10.226 10
    endloop
  endfacet
  facet normal 0.74096 0.671549 0
    outer loop
      vertex -12.4604 -10.226 3
      vertex -11.3981 -11.3981 10
      vertex -11.3981 -11.3981 3
    endloop
  endfacet
  facet normal -0.857742 -0.514081 0
    outer loop
      vertex 14.2159 7.59858 3
      vertex 13.4027 8.9554 10
      vertex 13.4027 8.9554 3
    endloop
  endfacet
  facet normal -0.857742 -0.514081 0
    outer loop
      vertex 13.4027 8.9554 10
      vertex 14.2159 7.59858 3
      vertex 14.2159 7.59858 10
    endloop
  endfacet
  facet normal -0.146725 0.989177 0
    outer loop
      vertex 3.14472 -15.8096 3
      vertex 1.57997 -16.0417 10
      vertex 3.14472 -15.8096 10
    endloop
  endfacet
  facet normal -0.146725 0.989177 0
    outer loop
      vertex 1.57997 -16.0417 10
      vertex 3.14472 -15.8096 3
      vertex 1.57997 -16.0417 3
    endloop
  endfacet
  facet normal -0.671549 0.74096 0
    outer loop
      vertex 11.3981 -11.3981 3
      vertex 10.226 -12.4604 10
      vertex 11.3981 -11.3981 10
    endloop
  endfacet
  facet normal -0.671549 0.74096 0
    outer loop
      vertex 10.226 -12.4604 10
      vertex 11.3981 -11.3981 3
      vertex 10.226 -12.4604 3
    endloop
  endfacet
  facet normal 0.595683 -0.80322 0
    outer loop
      vertex -10.226 12.4604 3
      vertex -8.9554 13.4027 10
      vertex -10.226 12.4604 10
    endloop
  endfacet
  facet normal 0.595683 -0.80322 0
    outer loop
      vertex -8.9554 13.4027 10
      vertex -10.226 12.4604 3
      vertex -8.9554 13.4027 3
    endloop
  endfacet
  facet normal 0.80322 0.595683 0
    outer loop
      vertex -12.4604 -10.226 10
      vertex -13.4027 -8.9554 3
      vertex -13.4027 -8.9554 10
    endloop
  endfacet
  facet normal 0.80322 0.595683 0
    outer loop
      vertex -13.4027 -8.9554 3
      vertex -12.4604 -10.226 10
      vertex -12.4604 -10.226 3
    endloop
  endfacet
  facet normal 0.671549 -0.74096 0
    outer loop
      vertex -11.3981 11.3981 3
      vertex -10.226 12.4604 10
      vertex -11.3981 11.3981 10
    endloop
  endfacet
  facet normal 0.671549 -0.74096 0
    outer loop
      vertex -10.226 12.4604 10
      vertex -11.3981 11.3981 3
      vertex -10.226 12.4604 3
    endloop
  endfacet
  facet normal -0.243003 0.970026 0
    outer loop
      vertex 4.67918 -15.4252 3
      vertex 3.14472 -15.8096 10
      vertex 4.67918 -15.4252 10
    endloop
  endfacet
  facet normal -0.243003 0.970026 0
    outer loop
      vertex 3.14472 -15.8096 10
      vertex 4.67918 -15.4252 3
      vertex 3.14472 -15.8096 3
    endloop
  endfacet
  facet normal 0.595683 0.80322 -0
    outer loop
      vertex -8.9554 -13.4027 3
      vertex -10.226 -12.4604 10
      vertex -8.9554 -13.4027 10
    endloop
  endfacet
  facet normal 0.595683 0.80322 0
    outer loop
      vertex -10.226 -12.4604 10
      vertex -8.9554 -13.4027 3
      vertex -10.226 -12.4604 3
    endloop
  endfacet
  facet normal 0.671549 0.74096 -0
    outer loop
      vertex -10.226 -12.4604 3
      vertex -11.3981 -11.3981 10
      vertex -10.226 -12.4604 10
    endloop
  endfacet
  facet normal 0.671549 0.74096 0
    outer loop
      vertex -11.3981 -11.3981 10
      vertex -10.226 -12.4604 3
      vertex -11.3981 -11.3981 3
    endloop
  endfacet
  facet normal -0.0490557 0.998796 0
    outer loop
      vertex 1.57997 -16.0417 3
      vertex 0 -16.1193 10
      vertex 1.57997 -16.0417 10
    endloop
  endfacet
  facet normal -0.0490557 0.998796 0
    outer loop
      vertex 0 -16.1193 10
      vertex 1.57997 -16.0417 3
      vertex 0 -16.1193 3
    endloop
  endfacet
  facet normal -0.0490557 -0.998796 0
    outer loop
      vertex 0 16.1193 3
      vertex 1.57997 16.0417 10
      vertex 0 16.1193 10
    endloop
  endfacet
  facet normal -0.0490557 -0.998796 -0
    outer loop
      vertex 1.57997 16.0417 10
      vertex 0 16.1193 3
      vertex 1.57997 16.0417 3
    endloop
  endfacet
  facet normal 0.998796 0.0490557 0
    outer loop
      vertex -16.0417 -1.57997 10
      vertex -16.1193 0 3
      vertex -16.1193 0 10
    endloop
  endfacet
  facet normal 0.998796 0.0490557 0
    outer loop
      vertex -16.1193 0 3
      vertex -16.0417 -1.57997 10
      vertex -16.0417 -1.57997 3
    endloop
  endfacet
  facet normal 0.857742 -0.514081 0
    outer loop
      vertex -14.2159 7.59858 10
      vertex -13.4027 8.9554 3
      vertex -13.4027 8.9554 10
    endloop
  endfacet
  facet normal 0.857742 -0.514081 0
    outer loop
      vertex -13.4027 8.9554 3
      vertex -14.2159 7.59858 10
      vertex -14.2159 7.59858 3
    endloop
  endfacet
  facet normal -0.941548 0.336879 0
    outer loop
      vertex 14.8923 -6.16859 3
      vertex 15.4252 -4.67918 10
      vertex 15.4252 -4.67918 3
    endloop
  endfacet
  facet normal -0.941548 0.336879 0
    outer loop
      vertex 15.4252 -4.67918 10
      vertex 14.8923 -6.16859 3
      vertex 14.8923 -6.16859 10
    endloop
  endfacet
  facet normal -0.595683 0.80322 0
    outer loop
      vertex 10.226 -12.4604 3
      vertex 8.9554 -13.4027 10
      vertex 10.226 -12.4604 10
    endloop
  endfacet
  facet normal -0.595683 0.80322 0
    outer loop
      vertex 8.9554 -13.4027 10
      vertex 10.226 -12.4604 3
      vertex 8.9554 -13.4027 3
    endloop
  endfacet
  facet normal -0.514081 0.857742 0
    outer loop
      vertex 8.9554 -13.4027 3
      vertex 7.59858 -14.2159 10
      vertex 8.9554 -13.4027 10
    endloop
  endfacet
  facet normal -0.514081 0.857742 0
    outer loop
      vertex 7.59858 -14.2159 10
      vertex 8.9554 -13.4027 3
      vertex 7.59858 -14.2159 3
    endloop
  endfacet
  facet normal 0.998796 -0.0490557 0
    outer loop
      vertex -16.1193 0 10
      vertex -16.0417 1.57997 3
      vertex -16.0417 1.57997 10
    endloop
  endfacet
  facet normal 0.998796 -0.0490557 0
    outer loop
      vertex -16.0417 1.57997 3
      vertex -16.1193 0 10
      vertex -16.1193 0 3
    endloop
  endfacet
  facet normal 0 0 1
    outer loop
      vertex 16.0417 1.57997 3
      vertex 16.0417 -1.57997 3
      vertex 16.1193 0 3
    endloop
  endfacet
  facet normal 0 0 1
    outer loop
      vertex 15.8096 3.14472 3
      vertex 16.0417 -1.57997 3
      vertex 16.0417 1.57997 3
    endloop
  endfacet
  facet normal 0 0 1
    outer loop
      vertex 15.8096 3.14472 3
      vertex 15.8096 -3.14472 3
      vertex 16.0417 -1.57997 3
    endloop
  endfacet
  facet normal 0 0 1
    outer loop
      vertex 15.4252 4.67918 3
      vertex 15.8096 -3.14472 3
      vertex 15.8096 3.14472 3
    endloop
  endfacet
  facet normal 0 0 1
    outer loop
      vertex 15.4252 4.67918 3
      vertex 15.4252 -4.67918 3
      vertex 15.8096 -3.14472 3
    endloop
  endfacet
  facet normal 0 0 1
    outer loop
      vertex 14.8923 6.16859 3
      vertex 15.4252 -4.67918 3
      vertex 15.4252 4.67918 3
    endloop
  endfacet
  facet normal 0 0 1
    outer loop
      vertex 14.8923 6.16859 3
      vertex 14.8923 -6.16859 3
      vertex 15.4252 -4.67918 3
    endloop
  endfacet
  facet normal 0 0 1
    outer loop
      vertex 14.2159 7.59858 3
      vertex 14.8923 -6.16859 3
      vertex 14.8923 6.16859 3
    endloop
  endfacet
  facet normal 0 0 1
    outer loop
      vertex 14.2159 7.59858 3
      vertex 14.2159 -7.59858 3
      vertex 14.8923 -6.16859 3
    endloop
  endfacet
  facet normal 0 0 1
    outer loop
      vertex 13.4027 8.9554 3
      vertex 14.2159 -7.59858 3
      vertex 14.2159 7.59858 3
    endloop
  endfacet
  facet normal 0 0 1
    outer loop
      vertex 13.4027 8.9554 3
      vertex 13.4027 -8.9554 3
      vertex 14.2159 -7.59858 3
    endloop
  endfacet
  facet normal 0 0 1
    outer loop
      vertex 12.4604 10.226 3
      vertex 13.4027 -8.9554 3
      vertex 13.4027 8.9554 3
    endloop
  endfacet
  facet normal 0 0 1
    outer loop
      vertex 12.4604 10.226 3
      vertex 12.4604 -10.226 3
      vertex 13.4027 -8.9554 3
    endloop
  endfacet
  facet normal 0 0 1
    outer loop
      vertex 11.3981 11.3981 3
      vertex 12.4604 -10.226 3
      vertex 12.4604 10.226 3
    endloop
  endfacet
  facet normal 0 0 1
    outer loop
      vertex 11.3981 11.3981 3
      vertex 11.3981 -11.3981 3
      vertex 12.4604 -10.226 3
    endloop
  endfacet
  facet normal 0 0 1
    outer loop
      vertex 10.226 12.4604 3
      vertex 11.3981 -11.3981 3
      vertex 11.3981 11.3981 3
    endloop
  endfacet
  facet normal 0 0 1
    outer loop
      vertex 10.226 12.4604 3
      vertex 10.226 -12.4604 3
      vertex 11.3981 -11.3981 3
    endloop
  endfacet
  facet normal 0 0 1
    outer loop
      vertex 8.9554 13.4027 3
      vertex 10.226 -12.4604 3
      vertex 10.226 12.4604 3
    endloop
  endfacet
  facet normal 0 0 1
    outer loop
      vertex 8.9554 13.4027 3
      vertex 8.9554 -13.4027 3
      vertex 10.226 -12.4604 3
    endloop
  endfacet
  facet normal 0 0 1
    outer loop
      vertex 7.59858 14.2159 3
      vertex 8.9554 -13.4027 3
      vertex 8.9554 13.4027 3
    endloop
  endfacet
  facet normal 0 0 1
    outer loop
      vertex 7.59858 14.2159 3
      vertex 7.59858 -14.2159 3
      vertex 8.9554 -13.4027 3
    endloop
  endfacet
  facet normal 0 0 1
    outer loop
      vertex 6.16859 14.8923 3
      vertex 7.59858 -14.2159 3
      vertex 7.59858 14.2159 3
    endloop
  endfacet
  facet normal 0 0 1
    outer loop
      vertex 6.16859 14.8923 3
      vertex 6.16859 -14.8923 3
      vertex 7.59858 -14.2159 3
    endloop
  endfacet
  facet normal 0 0 1
    outer loop
      vertex 4.67918 15.4252 3
      vertex 6.16859 -14.8923 3
      vertex 6.16859 14.8923 3
    endloop
  endfacet
  facet normal 0 0 1
    outer loop
      vertex 4.67918 15.4252 3
      vertex 4.67918 -15.4252 3
      vertex 6.16859 -14.8923 3
    endloop
  endfacet
  facet normal 0 0 1
    outer loop
      vertex 3.14472 15.8096 3
      vertex 4.67918 -15.4252 3
      vertex 4.67918 15.4252 3
    endloop
  endfacet
  facet normal 0 0 1
    outer loop
      vertex 3.14472 15.8096 3
      vertex 3.14472 -15.8096 3
      vertex 4.67918 -15.4252 3
    endloop
  endfacet
  facet normal 0 0 1
    outer loop
      vertex 1.57997 16.0417 3
      vertex 3.14472 -15.8096 3
      vertex 3.14472 15.8096 3
    endloop
  endfacet
  facet normal 0 0 1
    outer loop
      vertex 1.57997 16.0417 3
      vertex 1.57997 -16.0417 3
      vertex 3.14472 -15.8096 3
    endloop
  endfacet
  facet normal 0 0 1
    outer loop
      vertex 0 16.1193 3
      vertex 1.57997 -16.0417 3
      vertex 1.57997 16.0417 3
    endloop
  endfacet
  facet normal 0 0 1
    outer loop
      vertex 0 16.1193 3
      vertex 0 -16.1193 3
      vertex 1.57997 -16.0417 3
    endloop
  endfacet
  facet normal -0 0 1
    outer loop
      vertex -1.57997 16.0417 3
      vertex 0 -16.1193 3
      vertex 0 16.1193 3
    endloop
  endfacet
  facet normal 0 0 1
    outer loop
      vertex -1.57997 16.0417 3
      vertex -1.57997 -16.0417 3
      vertex 0 -16.1193 3
    endloop
  endfacet
  facet normal -0 0 1
    outer loop
      vertex -3.14472 15.8096 3
      vertex -1.57997 -16.0417 3
      vertex -1.57997 16.0417 3
    endloop
  endfacet
  facet normal 0 0 1
    outer loop
      vertex -3.14472 15.8096 3
      vertex -3.14472 -15.8096 3
      vertex -1.57997 -16.0417 3
    endloop
  endfacet
  facet normal -0 0 1
    outer loop
      vertex -4.67918 15.4252 3
      vertex -3.14472 -15.8096 3
      vertex -3.14472 15.8096 3
    endloop
  endfacet
  facet normal 0 0 1
    outer loop
      vertex -4.67918 15.4252 3
      vertex -4.67918 -15.4252 3
      vertex -3.14472 -15.8096 3
    endloop
  endfacet
  facet normal -0 0 1
    outer loop
      vertex -6.16859 14.8923 3
      vertex -4.67918 -15.4252 3
      vertex -4.67918 15.4252 3
    endloop
  endfacet
  facet normal 0 0 1
    outer loop
      vertex -6.16859 14.8923 3
      vertex -6.16859 -14.8923 3
      vertex -4.67918 -15.4252 3
    endloop
  endfacet
  facet normal -0 0 1
    outer loop
      vertex -7.59858 14.2159 3
      vertex -6.16859 -14.8923 3
      vertex -6.16859 14.8923 3
    endloop
  endfacet
  facet normal 0 0 1
    outer loop
      vertex -7.59858 14.2159 3
      vertex -7.59858 -14.2159 3
      vertex -6.16859 -14.8923 3
    endloop
  endfacet
  facet normal -0 0 1
    outer loop
      vertex -8.9554 13.4027 3
      vertex -7.59858 -14.2159 3
      vertex -7.59858 14.2159 3
    endloop
  endfacet
  facet normal 0 0 1
    outer loop
      vertex -8.9554 13.4027 3
      vertex -8.9554 -13.4027 3
      vertex -7.59858 -14.2159 3
    endloop
  endfacet
  facet normal -0 0 1
    outer loop
      vertex -10.226 12.4604 3
      vertex -8.9554 -13.4027 3
      vertex -8.9554 13.4027 3
    endloop
  endfacet
  facet normal 0 0 1
    outer loop
      vertex -10.226 12.4604 3
      vertex -10.226 -12.4604 3
      vertex -8.9554 -13.4027 3
    endloop
  endfacet
  facet normal -0 0 1
    outer loop
      vertex -11.3981 11.3981 3
      vertex -10.226 -12.4604 3
      vertex -10.226 12.4604 3
    endloop
  endfacet
  facet normal 0 0 1
    outer loop
      vertex -11.3981 11.3981 3
      vertex -11.3981 -11.3981 3
      vertex -10.226 -12.4604 3
    endloop
  endfacet
  facet normal -0 0 1
    outer loop
      vertex -12.4604 10.226 3
      vertex -11.3981 -11.3981 3
      vertex -11.3981 11.3981 3
    endloop
  endfacet
  facet normal 0 0 1
    outer loop
      vertex -12.4604 10.226 3
      vertex -12.4604 -10.226 3
      vertex -11.3981 -11.3981 3
    endloop
  endfacet
  facet normal -0 0 1
    outer loop
      vertex -13.4027 8.9554 3
      vertex -12.4604 -10.226 3
      vertex -12.4604 10.226 3
    endloop
  endfacet
  facet normal 0 0 1
    outer loop
      vertex -13.4027 8.9554 3
      vertex -13.4027 -8.9554 3
      vertex -12.4604 -10.226 3
    endloop
  endfacet
  facet normal -0 0 1
    outer loop
      vertex -14.2159 7.59858 3
      vertex -13.4027 -8.9554 3
      vertex -13.4027 8.9554 3
    endloop
  endfacet
  facet normal 0 0 1
    outer loop
      vertex -14.2159 7.59858 3
      vertex -14.2159 -7.59858 3
      vertex -13.4027 -8.9554 3
    endloop
  endfacet
  facet normal -0 0 1
    outer loop
      vertex -14.8923 6.16859 3
      vertex -14.2159 -7.59858 3
      vertex -14.2159 7.59858 3
    endloop
  endfacet
  facet normal 0 0 1
    outer loop
      vertex -14.8923 6.16859 3
      vertex -14.8923 -6.16859 3
      vertex -14.2159 -7.59858 3
    endloop
  endfacet
  facet normal -0 0 1
    outer loop
      vertex -15.4252 4.67918 3
      vertex -14.8923 -6.16859 3
      vertex -14.8923 6.16859 3
    endloop
  endfacet
  facet normal 0 0 1
    outer loop
      vertex -15.4252 4.67918 3
      vertex -15.4252 -4.67918 3
      vertex -14.8923 -6.16859 3
    endloop
  endfacet
  facet normal -0 0 1
    outer loop
      vertex -15.8096 3.14472 3
      vertex -15.4252 -4.67918 3
      vertex -15.4252 4.67918 3
    endloop
  endfacet
  facet normal 0 0 1
    outer loop
      vertex -15.8096 3.14472 3
      vertex -15.8096 -3.14472 3
      vertex -15.4252 -4.67918 3
    endloop
  endfacet
  facet normal -0 0 1
    outer loop
      vertex -16.0417 1.57997 3
      vertex -15.8096 -3.14472 3
      vertex -15.8096 3.14472 3
    endloop
  endfacet
  facet normal 0 0 1
    outer loop
      vertex -16.0417 1.57997 3
      vertex -16.0417 -1.57997 3
      vertex -15.8096 -3.14472 3
    endloop
  endfacet
  facet normal 0 -0 1
    outer loop
      vertex -16.0417 -1.57997 3
      vertex -16.0417 1.57997 3
      vertex -16.1193 0 3
    endloop
  endfacet
  facet normal 0.903973 -0.427589 0
    outer loop
      vertex -14.8923 6.16859 10
      vertex -14.2159 7.59858 3
      vertex -14.2159 7.59858 10
    endloop
  endfacet
  facet normal 0.903973 -0.427589 0
    outer loop
      vertex -14.2159 7.59858 3
      vertex -14.8923 6.16859 10
      vertex -14.8923 6.16859 3
    endloop
  endfacet
  facet normal 0.514081 0.857742 -0
    outer loop
      vertex -7.59858 -14.2159 3
      vertex -8.9554 -13.4027 10
      vertex -7.59858 -14.2159 10
    endloop
  endfacet
  facet normal 0.514081 0.857742 0
    outer loop
      vertex -8.9554 -13.4027 10
      vertex -7.59858 -14.2159 3
      vertex -8.9554 -13.4027 3
    endloop
  endfacet
  facet normal 0.427589 0.903973 -0
    outer loop
      vertex -6.16859 -14.8923 3
      vertex -7.59858 -14.2159 10
      vertex -6.16859 -14.8923 10
    endloop
  endfacet
  facet normal 0.427589 0.903973 0
    outer loop
      vertex -7.59858 -14.2159 10
      vertex -6.16859 -14.8923 3
      vertex -7.59858 -14.2159 3
    endloop
  endfacet
endsolid OpenSCAD_Model
