solid OpenSCAD_Model
  facet normal 0.998795 0.0490681 0
    outer loop
      vertex 21.9 0 10
      vertex 21.7945 2.14657 0
      vertex 21.7945 2.14657 10
    endloop
  endfacet
  facet normal 0.998795 0.0490681 0
    outer loop
      vertex 21.7945 2.14657 0
      vertex 21.9 0 10
      vertex 21.9 0 0
    endloop
  endfacet
  facet normal -0.998795 0.0490681 0
    outer loop
      vertex -21.9 0 0
      vertex -21.7945 2.14657 10
      vertex -21.7945 2.14657 0
    endloop
  endfacet
  facet normal -0.998795 0.0490681 0
    outer loop
      vertex -21.7945 2.14657 10
      vertex -21.9 0 0
      vertex -21.9 0 10
    endloop
  endfacet
  facet normal -0.0490681 0.998795 0
    outer loop
      vertex 0 21.9 0
      vertex -2.14657 21.7945 10
      vertex 0 21.9 10
    endloop
  endfacet
  facet normal -0.0490681 0.998795 0
    outer loop
      vertex -2.14657 21.7945 10
      vertex 0 21.9 0
      vertex -2.14657 21.7945 0
    endloop
  endfacet
  facet normal 0.671559 0.740951 -0
    outer loop
      vertex 15.4856 15.4856 0
      vertex 13.8932 16.9289 10
      vertex 15.4856 15.4856 10
    endloop
  endfacet
  facet normal 0.671559 0.740951 0
    outer loop
      vertex 13.8932 16.9289 10
      vertex 15.4856 15.4856 0
      vertex 13.8932 16.9289 0
    endloop
  endfacet
  facet normal -0.740951 0.671559 0
    outer loop
      vertex -16.9289 13.8932 0
      vertex -15.4856 15.4856 10
      vertex -15.4856 15.4856 0
    endloop
  endfacet
  facet normal -0.740951 0.671559 0
    outer loop
      vertex -15.4856 15.4856 10
      vertex -16.9289 13.8932 0
      vertex -16.9289 13.8932 10
    endloop
  endfacet
  facet normal -0.427555 0.903989 0
    outer loop
      vertex -8.38077 20.233 0
      vertex -10.3236 19.3141 10
      vertex -8.38077 20.233 10
    endloop
  endfacet
  facet normal -0.427555 0.903989 0
    outer loop
      vertex -10.3236 19.3141 10
      vertex -8.38077 20.233 0
      vertex -10.3236 19.3141 0
    endloop
  endfacet
  facet normal 0.903989 0.427555 0
    outer loop
      vertex 20.233 8.38077 10
      vertex 19.3141 10.3236 0
      vertex 19.3141 10.3236 10
    endloop
  endfacet
  facet normal 0.903989 0.427555 0
    outer loop
      vertex 19.3141 10.3236 0
      vertex 20.233 8.38077 10
      vertex 20.233 8.38077 0
    endloop
  endfacet
  facet normal 0.33689 0.941544 -0
    outer loop
      vertex 8.38077 20.233 0
      vertex 6.35723 20.957 10
      vertex 8.38077 20.233 10
    endloop
  endfacet
  facet normal 0.33689 0.941544 0
    outer loop
      vertex 6.35723 20.957 10
      vertex 8.38077 20.233 0
      vertex 6.35723 20.957 0
    endloop
  endfacet
  facet normal 0.514103 0.857728 -0
    outer loop
      vertex 12.167 18.2092 0
      vertex 10.3236 19.3141 10
      vertex 12.167 18.2092 10
    endloop
  endfacet
  facet normal 0.514103 0.857728 0
    outer loop
      vertex 10.3236 19.3141 10
      vertex 12.167 18.2092 0
      vertex 10.3236 19.3141 0
    endloop
  endfacet
  facet normal -0.903989 0.427555 0
    outer loop
      vertex -20.233 8.38077 0
      vertex -19.3141 10.3236 10
      vertex -19.3141 10.3236 0
    endloop
  endfacet
  facet normal -0.903989 0.427555 0
    outer loop
      vertex -19.3141 10.3236 10
      vertex -20.233 8.38077 0
      vertex -20.233 8.38077 10
    endloop
  endfacet
  facet normal -0.242981 0.970031 0
    outer loop
      vertex -4.27248 21.4792 0
      vertex -6.35723 20.957 10
      vertex -4.27248 21.4792 10
    endloop
  endfacet
  facet normal -0.242981 0.970031 0
    outer loop
      vertex -6.35723 20.957 10
      vertex -4.27248 21.4792 0
      vertex -6.35723 20.957 0
    endloop
  endfacet
  facet normal 0.970031 -0.242981 0
    outer loop
      vertex 20.957 -6.35723 10
      vertex 21.4792 -4.27248 0
      vertex 21.4792 -4.27248 10
    endloop
  endfacet
  facet normal 0.970031 -0.242981 0
    outer loop
      vertex 21.4792 -4.27248 0
      vertex 20.957 -6.35723 10
      vertex 20.957 -6.35723 0
    endloop
  endfacet
  facet normal -0.0490681 -0.998795 0
    outer loop
      vertex -2.14657 -21.7945 0
      vertex 0 -21.9 10
      vertex -2.14657 -21.7945 10
    endloop
  endfacet
  facet normal -0.0490681 -0.998795 -0
    outer loop
      vertex 0 -21.9 10
      vertex -2.14657 -21.7945 0
      vertex 0 -21.9 0
    endloop
  endfacet
  facet normal 0.14673 -0.989177 0
    outer loop
      vertex 2.14657 -21.7945 0
      vertex 4.27248 -21.4792 10
      vertex 2.14657 -21.7945 10
    endloop
  endfacet
  facet normal 0.14673 -0.989177 0
    outer loop
      vertex 4.27248 -21.4792 10
      vertex 2.14657 -21.7945 0
      vertex 4.27248 -21.4792 0
    endloop
  endfacet
  facet normal 0.427555 -0.903989 0
    outer loop
      vertex 8.38077 -20.233 0
      vertex 10.3236 -19.3141 10
      vertex 8.38077 -20.233 10
    endloop
  endfacet
  facet normal 0.427555 -0.903989 0
    outer loop
      vertex 10.3236 -19.3141 10
      vertex 8.38077 -20.233 0
      vertex 10.3236 -19.3141 0
    endloop
  endfacet
  facet normal 0.970031 0.242981 0
    outer loop
      vertex 21.4792 4.27248 10
      vertex 20.957 6.35723 0
      vertex 20.957 6.35723 10
    endloop
  endfacet
  facet normal 0.970031 0.242981 0
    outer loop
      vertex 20.957 6.35723 0
      vertex 21.4792 4.27248 10
      vertex 21.4792 4.27248 0
    endloop
  endfacet
  facet normal 0.989177 0.14673 0
    outer loop
      vertex 21.7945 2.14657 10
      vertex 21.4792 4.27248 0
      vertex 21.4792 4.27248 10
    endloop
  endfacet
  facet normal 0.989177 0.14673 0
    outer loop
      vertex 21.4792 4.27248 0
      vertex 21.7945 2.14657 10
      vertex 21.7945 2.14657 0
    endloop
  endfacet
  facet normal 0.941544 0.33689 0
    outer loop
      vertex 20.957 6.35723 10
      vertex 20.233 8.38077 0
      vertex 20.233 8.38077 10
    endloop
  endfacet
  facet normal 0.941544 0.33689 0
    outer loop
      vertex 20.233 8.38077 0
      vertex 20.957 6.35723 10
      vertex 20.957 6.35723 0
    endloop
  endfacet
  facet normal 0.803208 0.595699 0
    outer loop
      vertex 18.2092 12.167 10
      vertex 16.9289 13.8932 0
      vertex 16.9289 13.8932 10
    endloop
  endfacet
  facet normal 0.803208 0.595699 0
    outer loop
      vertex 16.9289 13.8932 0
      vertex 18.2092 12.167 10
      vertex 18.2092 12.167 0
    endloop
  endfacet
  facet normal 0.740951 0.671559 0
    outer loop
      vertex 16.9289 13.8932 10
      vertex 15.4856 15.4856 0
      vertex 15.4856 15.4856 10
    endloop
  endfacet
  facet normal 0.740951 0.671559 0
    outer loop
      vertex 15.4856 15.4856 0
      vertex 16.9289 13.8932 10
      vertex 16.9289 13.8932 0
    endloop
  endfacet
  facet normal 0.857728 0.514103 0
    outer loop
      vertex 19.3141 10.3236 10
      vertex 18.2092 12.167 0
      vertex 18.2092 12.167 10
    endloop
  endfacet
  facet normal 0.857728 0.514103 0
    outer loop
      vertex 18.2092 12.167 0
      vertex 19.3141 10.3236 10
      vertex 19.3141 10.3236 0
    endloop
  endfacet
  facet normal 0.14673 0.989177 -0
    outer loop
      vertex 4.27248 21.4792 0
      vertex 2.14657 21.7945 10
      vertex 4.27248 21.4792 10
    endloop
  endfacet
  facet normal 0.14673 0.989177 0
    outer loop
      vertex 2.14657 21.7945 10
      vertex 4.27248 21.4792 0
      vertex 2.14657 21.7945 0
    endloop
  endfacet
  facet normal 0.242981 0.970031 -0
    outer loop
      vertex 6.35723 20.957 0
      vertex 4.27248 21.4792 10
      vertex 6.35723 20.957 10
    endloop
  endfacet
  facet normal 0.242981 0.970031 0
    outer loop
      vertex 4.27248 21.4792 10
      vertex 6.35723 20.957 0
      vertex 4.27248 21.4792 0
    endloop
  endfacet
  facet normal 0.0490681 0.998795 -0
    outer loop
      vertex 2.14657 21.7945 0
      vertex 0 21.9 10
      vertex 2.14657 21.7945 10
    endloop
  endfacet
  facet normal 0.0490681 0.998795 0
    outer loop
      vertex 0 21.9 10
      vertex 2.14657 21.7945 0
      vertex 0 21.9 0
    endloop
  endfacet
  facet normal 0.427555 0.903989 -0
    outer loop
      vertex 10.3236 19.3141 0
      vertex 8.38077 20.233 10
      vertex 10.3236 19.3141 10
    endloop
  endfacet
  facet normal 0.427555 0.903989 0
    outer loop
      vertex 8.38077 20.233 10
      vertex 10.3236 19.3141 0
      vertex 8.38077 20.233 0
    endloop
  endfacet
  facet normal 0.595699 0.803208 -0
    outer loop
      vertex 13.8932 16.9289 0
      vertex 12.167 18.2092 10
      vertex 13.8932 16.9289 10
    endloop
  endfacet
  facet normal 0.595699 0.803208 0
    outer loop
      vertex 12.167 18.2092 10
      vertex 13.8932 16.9289 0
      vertex 12.167 18.2092 0
    endloop
  endfacet
  facet normal -0.970031 0.242981 0
    outer loop
      vertex -21.4792 4.27248 0
      vertex -20.957 6.35723 10
      vertex -20.957 6.35723 0
    endloop
  endfacet
  facet normal -0.970031 0.242981 0
    outer loop
      vertex -20.957 6.35723 10
      vertex -21.4792 4.27248 0
      vertex -21.4792 4.27248 10
    endloop
  endfacet
  facet normal -0.857728 0.514103 0
    outer loop
      vertex -19.3141 10.3236 0
      vertex -18.2092 12.167 10
      vertex -18.2092 12.167 0
    endloop
  endfacet
  facet normal -0.857728 0.514103 0
    outer loop
      vertex -18.2092 12.167 10
      vertex -19.3141 10.3236 0
      vertex -19.3141 10.3236 10
    endloop
  endfacet
  facet normal -0.803208 0.595699 0
    outer loop
      vertex -18.2092 12.167 0
      vertex -16.9289 13.8932 10
      vertex -16.9289 13.8932 0
    endloop
  endfacet
  facet normal -0.803208 0.595699 0
    outer loop
      vertex -16.9289 13.8932 10
      vertex -18.2092 12.167 0
      vertex -18.2092 12.167 10
    endloop
  endfacet
  facet normal -0.941544 0.33689 0
    outer loop
      vertex -20.957 6.35723 0
      vertex -20.233 8.38077 10
      vertex -20.233 8.38077 0
    endloop
  endfacet
  facet normal -0.941544 0.33689 0
    outer loop
      vertex -20.233 8.38077 10
      vertex -20.957 6.35723 0
      vertex -20.957 6.35723 10
    endloop
  endfacet
  facet normal -0.989177 0.14673 0
    outer loop
      vertex -21.7945 2.14657 0
      vertex -21.4792 4.27248 10
      vertex -21.4792 4.27248 0
    endloop
  endfacet
  facet normal -0.989177 0.14673 0
    outer loop
      vertex -21.4792 4.27248 10
      vertex -21.7945 2.14657 0
      vertex -21.7945 2.14657 10
    endloop
  endfacet
  facet normal 0 0 1
    outer loop
      vertex 16.1193 0 10
      vertex 21.9 0 10
      vertex 21.7945 2.14657 10
    endloop
  endfacet
  facet normal 0 0 1
    outer loop
      vertex 16.0417 1.57997 10
      vertex 21.7945 2.14657 10
      vertex 21.4792 4.27248 10
    endloop
  endfacet
  facet normal 0 0 1
    outer loop
      vertex 21.9 0 10
      vertex 16.1193 0 10
      vertex 21.7945 -2.14657 10
    endloop
  endfacet
  facet normal 0 0 1
    outer loop
      vertex 15.8096 3.14472 10
      vertex 21.4792 4.27248 10
      vertex 20.957 6.35723 10
    endloop
  endfacet
  facet normal -0 0 1
    outer loop
      vertex 16.0417 -1.57997 10
      vertex 21.7945 -2.14657 10
      vertex 16.1193 0 10
    endloop
  endfacet
  facet normal 0 0 1
    outer loop
      vertex 15.4252 4.67918 10
      vertex 20.957 6.35723 10
      vertex 20.233 8.38077 10
    endloop
  endfacet
  facet normal 0 0 1
    outer loop
      vertex 21.7945 -2.14657 10
      vertex 16.0417 -1.57997 10
      vertex 21.4792 -4.27248 10
    endloop
  endfacet
  facet normal 0 0 1
    outer loop
      vertex 14.8923 6.16859 10
      vertex 20.233 8.38077 10
      vertex 19.3141 10.3236 10
    endloop
  endfacet
  facet normal -0 0 1
    outer loop
      vertex 15.8096 -3.14472 10
      vertex 21.4792 -4.27248 10
      vertex 16.0417 -1.57997 10
    endloop
  endfacet
  facet normal 0 0 1
    outer loop
      vertex 14.2159 7.59858 10
      vertex 19.3141 10.3236 10
      vertex 18.2092 12.167 10
    endloop
  endfacet
  facet normal 0 0 1
    outer loop
      vertex 21.4792 -4.27248 10
      vertex 15.8096 -3.14472 10
      vertex 20.957 -6.35723 10
    endloop
  endfacet
  facet normal 0 0 1
    outer loop
      vertex 13.4027 8.9554 10
      vertex 18.2092 12.167 10
      vertex 16.9289 13.8932 10
    endloop
  endfacet
  facet normal -0 0 1
    outer loop
      vertex 15.4252 -4.67918 10
      vertex 20.957 -6.35723 10
      vertex 15.8096 -3.14472 10
    endloop
  endfacet
  facet normal 0 0 1
    outer loop
      vertex 20.957 -6.35723 10
      vertex 15.4252 -4.67918 10
      vertex 20.233 -8.38077 10
    endloop
  endfacet
  facet normal 0 0 1
    outer loop
      vertex 21.7945 2.14657 10
      vertex 16.0417 1.57997 10
      vertex 16.1193 0 10
    endloop
  endfacet
  facet normal 0 0 1
    outer loop
      vertex 21.4792 4.27248 10
      vertex 15.8096 3.14472 10
      vertex 16.0417 1.57997 10
    endloop
  endfacet
  facet normal 0 0 1
    outer loop
      vertex 12.4604 10.226 10
      vertex 16.9289 13.8932 10
      vertex 15.4856 15.4856 10
    endloop
  endfacet
  facet normal 0 0 1
    outer loop
      vertex 20.957 6.35723 10
      vertex 15.4252 4.67918 10
      vertex 15.8096 3.14472 10
    endloop
  endfacet
  facet normal 0 0 1
    outer loop
      vertex 20.233 8.38077 10
      vertex 14.8923 6.16859 10
      vertex 15.4252 4.67918 10
    endloop
  endfacet
  facet normal 0 0 1
    outer loop
      vertex 19.3141 10.3236 10
      vertex 14.2159 7.59858 10
      vertex 14.8923 6.16859 10
    endloop
  endfacet
  facet normal 0 0 1
    outer loop
      vertex 11.3981 11.3981 10
      vertex 15.4856 15.4856 10
      vertex 13.8932 16.9289 10
    endloop
  endfacet
  facet normal 0 0 1
    outer loop
      vertex 18.2092 12.167 10
      vertex 13.4027 8.9554 10
      vertex 14.2159 7.59858 10
    endloop
  endfacet
  facet normal 0 0 1
    outer loop
      vertex 16.9289 13.8932 10
      vertex 12.4604 10.226 10
      vertex 13.4027 8.9554 10
    endloop
  endfacet
  facet normal 0 0 1
    outer loop
      vertex 10.226 12.4604 10
      vertex 13.8932 16.9289 10
      vertex 12.167 18.2092 10
    endloop
  endfacet
  facet normal 0 0 1
    outer loop
      vertex 15.4856 15.4856 10
      vertex 11.3981 11.3981 10
      vertex 12.4604 10.226 10
    endloop
  endfacet
  facet normal 0 0 1
    outer loop
      vertex 8.9554 13.4027 10
      vertex 12.167 18.2092 10
      vertex 10.3236 19.3141 10
    endloop
  endfacet
  facet normal 0 0 1
    outer loop
      vertex 13.8932 16.9289 10
      vertex 10.226 12.4604 10
      vertex 11.3981 11.3981 10
    endloop
  endfacet
  facet normal 0 0 1
    outer loop
      vertex 12.167 18.2092 10
      vertex 8.9554 13.4027 10
      vertex 10.226 12.4604 10
    endloop
  endfacet
  facet normal 0 0 1
    outer loop
      vertex 7.59858 14.2159 10
      vertex 10.3236 19.3141 10
      vertex 8.38077 20.233 10
    endloop
  endfacet
  facet normal 0 0 1
    outer loop
      vertex 10.3236 19.3141 10
      vertex 7.59858 14.2159 10
      vertex 8.9554 13.4027 10
    endloop
  endfacet
  facet normal 0 0 1
    outer loop
      vertex 6.16859 14.8923 10
      vertex 8.38077 20.233 10
      vertex 6.35723 20.957 10
    endloop
  endfacet
  facet normal 0 0 1
    outer loop
      vertex 8.38077 20.233 10
      vertex 6.16859 14.8923 10
      vertex 7.59858 14.2159 10
    endloop
  endfacet
  facet normal 0 0 1
    outer loop
      vertex 6.35723 20.957 10
      vertex 4.67918 15.4252 10
      vertex 6.16859 14.8923 10
    endloop
  endfacet
  facet normal 0 0 1
    outer loop
      vertex 4.27248 21.4792 10
      vertex 4.67918 15.4252 10
      vertex 6.35723 20.957 10
    endloop
  endfacet
  facet normal 0 0 1
    outer loop
      vertex 4.27248 21.4792 10
      vertex 3.14472 15.8096 10
      vertex 4.67918 15.4252 10
    endloop
  endfacet
  facet normal 0 0 1
    outer loop
      vertex 2.14657 21.7945 10
      vertex 3.14472 15.8096 10
      vertex 4.27248 21.4792 10
    endloop
  endfacet
  facet normal 0 0 1
    outer loop
      vertex 2.14657 21.7945 10
      vertex 1.57997 16.0417 10
      vertex 3.14472 15.8096 10
    endloop
  endfacet
  facet normal 0 0 1
    outer loop
      vertex 0 21.9 10
      vertex 1.57997 16.0417 10
      vertex 2.14657 21.7945 10
    endloop
  endfacet
  facet normal 0 0 1
    outer loop
      vertex 0 21.9 10
      vertex 0 16.1193 10
      vertex 1.57997 16.0417 10
    endloop
  endfacet
  facet normal 0 0 1
    outer loop
      vertex 0 21.9 10
      vertex -1.57997 16.0417 10
      vertex 0 16.1193 10
    endloop
  endfacet
  facet normal -0 0 1
    outer loop
      vertex -2.14657 21.7945 10
      vertex -1.57997 16.0417 10
      vertex 0 21.9 10
    endloop
  endfacet
  facet normal 0 0 1
    outer loop
      vertex -2.14657 21.7945 10
      vertex -3.14472 15.8096 10
      vertex -1.57997 16.0417 10
    endloop
  endfacet
  facet normal -0 0 1
    outer loop
      vertex -4.27248 21.4792 10
      vertex -3.14472 15.8096 10
      vertex -2.14657 21.7945 10
    endloop
  endfacet
  facet normal 0 0 1
    outer loop
      vertex -4.27248 21.4792 10
      vertex -4.67918 15.4252 10
      vertex -3.14472 15.8096 10
    endloop
  endfacet
  facet normal -0 0 1
    outer loop
      vertex -6.35723 20.957 10
      vertex -4.67918 15.4252 10
      vertex -4.27248 21.4792 10
    endloop
  endfacet
  facet normal 0 0 1
    outer loop
      vertex -4.67918 15.4252 10
      vertex -6.35723 20.957 10
      vertex -6.16859 14.8923 10
    endloop
  endfacet
  facet normal -0 0 1
    outer loop
      vertex -8.38077 20.233 10
      vertex -6.16859 14.8923 10
      vertex -6.35723 20.957 10
    endloop
  endfacet
  facet normal 0 0 1
    outer loop
      vertex -6.16859 14.8923 10
      vertex -8.38077 20.233 10
      vertex -7.59858 14.2159 10
    endloop
  endfacet
  facet normal -0 0 1
    outer loop
      vertex -10.3236 19.3141 10
      vertex -7.59858 14.2159 10
      vertex -8.38077 20.233 10
    endloop
  endfacet
  facet normal 0 0 1
    outer loop
      vertex -7.59858 14.2159 10
      vertex -10.3236 19.3141 10
      vertex -8.9554 13.4027 10
    endloop
  endfacet
  facet normal -0 0 1
    outer loop
      vertex -12.167 18.2092 10
      vertex -8.9554 13.4027 10
      vertex -10.3236 19.3141 10
    endloop
  endfacet
  facet normal 0 0 1
    outer loop
      vertex -8.9554 13.4027 10
      vertex -12.167 18.2092 10
      vertex -10.226 12.4604 10
    endloop
  endfacet
  facet normal -0 0 1
    outer loop
      vertex -13.8932 16.9289 10
      vertex -10.226 12.4604 10
      vertex -12.167 18.2092 10
    endloop
  endfacet
  facet normal 0 0 1
    outer loop
      vertex -10.226 12.4604 10
      vertex -13.8932 16.9289 10
      vertex -11.3981 11.3981 10
    endloop
  endfacet
  facet normal -0 0 1
    outer loop
      vertex -15.4856 15.4856 10
      vertex -11.3981 11.3981 10
      vertex -13.8932 16.9289 10
    endloop
  endfacet
  facet normal 0 0 1
    outer loop
      vertex -11.3981 11.3981 10
      vertex -15.4856 15.4856 10
      vertex -12.4604 10.226 10
    endloop
  endfacet
  facet normal -0 0 1
    outer loop
      vertex -16.9289 13.8932 10
      vertex -12.4604 10.226 10
      vertex -15.4856 15.4856 10
    endloop
  endfacet
  facet normal 0 0 1
    outer loop
      vertex -12.4604 10.226 10
      vertex -16.9289 13.8932 10
      vertex -13.4027 8.9554 10
    endloop
  endfacet
  facet normal -0 0 1
    outer loop
      vertex -18.2092 12.167 10
      vertex -13.4027 8.9554 10
      vertex -16.9289 13.8932 10
    endloop
  endfacet
  facet normal 0 0 1
    outer loop
      vertex -13.4027 8.9554 10
      vertex -18.2092 12.167 10
      vertex -14.2159 7.59858 10
    endloop
  endfacet
  facet normal -0 0 1
    outer loop
      vertex -19.3141 10.3236 10
      vertex -14.2159 7.59858 10
      vertex -18.2092 12.167 10
    endloop
  endfacet
  facet normal 0 0 1
    outer loop
      vertex -14.2159 7.59858 10
      vertex -19.3141 10.3236 10
      vertex -14.8923 6.16859 10
    endloop
  endfacet
  facet normal -0 0 1
    outer loop
      vertex -20.233 8.38077 10
      vertex -14.8923 6.16859 10
      vertex -19.3141 10.3236 10
    endloop
  endfacet
  facet normal 0 0 1
    outer loop
      vertex -14.8923 6.16859 10
      vertex -20.233 8.38077 10
      vertex -15.4252 4.67918 10
    endloop
  endfacet
  facet normal -0 0 1
    outer loop
      vertex 14.8923 -6.16859 10
      vertex 20.233 -8.38077 10
      vertex 15.4252 -4.67918 10
    endloop
  endfacet
  facet normal 0 0 1
    outer loop
      vertex 20.233 -8.38077 10
      vertex 14.8923 -6.16859 10
      vertex 19.3141 -10.3236 10
    endloop
  endfacet
  facet normal -0 0 1
    outer loop
      vertex 14.2159 -7.59858 10
      vertex 19.3141 -10.3236 10
      vertex 14.8923 -6.16859 10
    endloop
  endfacet
  facet normal 0 0 1
    outer loop
      vertex 19.3141 -10.3236 10
      vertex 14.2159 -7.59858 10
      vertex 18.2092 -12.167 10
    endloop
  endfacet
  facet normal -0 0 1
    outer loop
      vertex 13.4027 -8.9554 10
      vertex 18.2092 -12.167 10
      vertex 14.2159 -7.59858 10
    endloop
  endfacet
  facet normal 0 0 1
    outer loop
      vertex 18.2092 -12.167 10
      vertex 13.4027 -8.9554 10
      vertex 16.9289 -13.8932 10
    endloop
  endfacet
  facet normal -0 0 1
    outer loop
      vertex 12.4604 -10.226 10
      vertex 16.9289 -13.8932 10
      vertex 13.4027 -8.9554 10
    endloop
  endfacet
  facet normal 0 0 1
    outer loop
      vertex 16.9289 -13.8932 10
      vertex 12.4604 -10.226 10
      vertex 15.4856 -15.4856 10
    endloop
  endfacet
  facet normal -0 0 1
    outer loop
      vertex 11.3981 -11.3981 10
      vertex 15.4856 -15.4856 10
      vertex 12.4604 -10.226 10
    endloop
  endfacet
  facet normal 0 0 1
    outer loop
      vertex 15.4856 -15.4856 10
      vertex 11.3981 -11.3981 10
      vertex 13.8932 -16.9289 10
    endloop
  endfacet
  facet normal -0 0 1
    outer loop
      vertex 10.226 -12.4604 10
      vertex 13.8932 -16.9289 10
      vertex 11.3981 -11.3981 10
    endloop
  endfacet
  facet normal 0 0 1
    outer loop
      vertex 13.8932 -16.9289 10
      vertex 10.226 -12.4604 10
      vertex 12.167 -18.2092 10
    endloop
  endfacet
  facet normal -0 0 1
    outer loop
      vertex 8.9554 -13.4027 10
      vertex 12.167 -18.2092 10
      vertex 10.226 -12.4604 10
    endloop
  endfacet
  facet normal 0 0 1
    outer loop
      vertex 12.167 -18.2092 10
      vertex 8.9554 -13.4027 10
      vertex 10.3236 -19.3141 10
    endloop
  endfacet
  facet normal -0 0 1
    outer loop
      vertex 7.59858 -14.2159 10
      vertex 10.3236 -19.3141 10
      vertex 8.9554 -13.4027 10
    endloop
  endfacet
  facet normal 0 0 1
    outer loop
      vertex 10.3236 -19.3141 10
      vertex 7.59858 -14.2159 10
      vertex 8.38077 -20.233 10
    endloop
  endfacet
  facet normal -0 0 1
    outer loop
      vertex 6.16859 -14.8923 10
      vertex 8.38077 -20.233 10
      vertex 7.59858 -14.2159 10
    endloop
  endfacet
  facet normal 0 0 1
    outer loop
      vertex 8.38077 -20.233 10
      vertex 6.16859 -14.8923 10
      vertex 6.35723 -20.957 10
    endloop
  endfacet
  facet normal -0 0 1
    outer loop
      vertex 4.67918 -15.4252 10
      vertex 6.35723 -20.957 10
      vertex 6.16859 -14.8923 10
    endloop
  endfacet
  facet normal 0 0 1
    outer loop
      vertex 4.67918 -15.4252 10
      vertex 4.27248 -21.4792 10
      vertex 6.35723 -20.957 10
    endloop
  endfacet
  facet normal -0 0 1
    outer loop
      vertex 3.14472 -15.8096 10
      vertex 4.27248 -21.4792 10
      vertex 4.67918 -15.4252 10
    endloop
  endfacet
  facet normal 0 0 1
    outer loop
      vertex 3.14472 -15.8096 10
      vertex 2.14657 -21.7945 10
      vertex 4.27248 -21.4792 10
    endloop
  endfacet
  facet normal -0 0 1
    outer loop
      vertex 1.57997 -16.0417 10
      vertex 2.14657 -21.7945 10
      vertex 3.14472 -15.8096 10
    endloop
  endfacet
  facet normal -0 0 1
    outer loop
      vertex 0 -16.1193 10
      vertex 2.14657 -21.7945 10
      vertex 1.57997 -16.0417 10
    endloop
  endfacet
  facet normal 0 0 1
    outer loop
      vertex 0 -16.1193 10
      vertex 0 -21.9 10
      vertex 2.14657 -21.7945 10
    endloop
  endfacet
  facet normal 0 0 1
    outer loop
      vertex -1.57997 -16.0417 10
      vertex 0 -21.9 10
      vertex 0 -16.1193 10
    endloop
  endfacet
  facet normal 0 0 1
    outer loop
      vertex -1.57997 -16.0417 10
      vertex -2.14657 -21.7945 10
      vertex 0 -21.9 10
    endloop
  endfacet
  facet normal 0 0 1
    outer loop
      vertex -3.14472 -15.8096 10
      vertex -2.14657 -21.7945 10
      vertex -1.57997 -16.0417 10
    endloop
  endfacet
  facet normal 0 0 1
    outer loop
      vertex -3.14472 -15.8096 10
      vertex -4.27248 -21.4792 10
      vertex -2.14657 -21.7945 10
    endloop
  endfacet
  facet normal 0 0 1
    outer loop
      vertex -4.67918 -15.4252 10
      vertex -4.27248 -21.4792 10
      vertex -3.14472 -15.8096 10
    endloop
  endfacet
  facet normal 0 0 1
    outer loop
      vertex -6.35723 -20.957 10
      vertex -4.67918 -15.4252 10
      vertex -6.16859 -14.8923 10
    endloop
  endfacet
  facet normal 0 0 1
    outer loop
      vertex -4.67918 -15.4252 10
      vertex -6.35723 -20.957 10
      vertex -4.27248 -21.4792 10
    endloop
  endfacet
  facet normal 0 0 1
    outer loop
      vertex -8.38077 -20.233 10
      vertex -6.16859 -14.8923 10
      vertex -7.59858 -14.2159 10
    endloop
  endfacet
  facet normal 0 0 1
    outer loop
      vertex -6.16859 -14.8923 10
      vertex -8.38077 -20.233 10
      vertex -6.35723 -20.957 10
    endloop
  endfacet
  facet normal 0 0 1
    outer loop
      vertex -10.3236 -19.3141 10
      vertex -7.59858 -14.2159 10
      vertex -8.9554 -13.4027 10
    endloop
  endfacet
  facet normal 0 0 1
    outer loop
      vertex -12.167 -18.2092 10
      vertex -8.9554 -13.4027 10
      vertex -10.226 -12.4604 10
    endloop
  endfacet
  facet normal 0 0 1
    outer loop
      vertex -7.59858 -14.2159 10
      vertex -10.3236 -19.3141 10
      vertex -8.38077 -20.233 10
    endloop
  endfacet
  facet normal 0 0 1
    outer loop
      vertex -13.8932 -16.9289 10
      vertex -10.226 -12.4604 10
      vertex -11.3981 -11.3981 10
    endloop
  endfacet
  facet normal 0 0 1
    outer loop
      vertex -8.9554 -13.4027 10
      vertex -12.167 -18.2092 10
      vertex -10.3236 -19.3141 10
    endloop
  endfacet
  facet normal 0 0 1
    outer loop
      vertex -15.4856 -15.4856 10
      vertex -11.3981 -11.3981 10
      vertex -12.4604 -10.226 10
    endloop
  endfacet
  facet normal 0 0 1
    outer loop
      vertex -16.9289 -13.8932 10
      vertex -12.4604 -10.226 10
      vertex -13.4027 -8.9554 10
    endloop
  endfacet
  facet normal 0 0 1
    outer loop
      vertex -10.226 -12.4604 10
      vertex -13.8932 -16.9289 10
      vertex -12.167 -18.2092 10
    endloop
  endfacet
  facet normal 0 0 1
    outer loop
      vertex -18.2092 -12.167 10
      vertex -13.4027 -8.9554 10
      vertex -14.2159 -7.59858 10
    endloop
  endfacet
  facet normal 0 0 1
    outer loop
      vertex -19.3141 -10.3236 10
      vertex -14.2159 -7.59858 10
      vertex -14.8923 -6.16859 10
    endloop
  endfacet
  facet normal 0 0 1
    outer loop
      vertex -20.233 -8.38077 10
      vertex -14.8923 -6.16859 10
      vertex -15.4252 -4.67918 10
    endloop
  endfacet
  facet normal 0 0 1
    outer loop
      vertex -11.3981 -11.3981 10
      vertex -15.4856 -15.4856 10
      vertex -13.8932 -16.9289 10
    endloop
  endfacet
  facet normal 0 0 1
    outer loop
      vertex -20.957 -6.35723 10
      vertex -15.4252 -4.67918 10
      vertex -15.8096 -3.14472 10
    endloop
  endfacet
  facet normal 0 0 1
    outer loop
      vertex -21.4792 -4.27248 10
      vertex -15.8096 -3.14472 10
      vertex -16.0417 -1.57997 10
    endloop
  endfacet
  facet normal 0 0 1
    outer loop
      vertex -21.7945 -2.14657 10
      vertex -16.0417 -1.57997 10
      vertex -16.1193 0 10
    endloop
  endfacet
  facet normal -0 0 1
    outer loop
      vertex -20.957 6.35723 10
      vertex -15.4252 4.67918 10
      vertex -20.233 8.38077 10
    endloop
  endfacet
  facet normal 0 0 1
    outer loop
      vertex -12.4604 -10.226 10
      vertex -16.9289 -13.8932 10
      vertex -15.4856 -15.4856 10
    endloop
  endfacet
  facet normal 0 0 1
    outer loop
      vertex -15.4252 4.67918 10
      vertex -20.957 6.35723 10
      vertex -15.8096 3.14472 10
    endloop
  endfacet
  facet normal 0 0 1
    outer loop
      vertex -13.4027 -8.9554 10
      vertex -18.2092 -12.167 10
      vertex -16.9289 -13.8932 10
    endloop
  endfacet
  facet normal -0 0 1
    outer loop
      vertex -21.4792 4.27248 10
      vertex -15.8096 3.14472 10
      vertex -20.957 6.35723 10
    endloop
  endfacet
  facet normal 0 0 1
    outer loop
      vertex -14.2159 -7.59858 10
      vertex -19.3141 -10.3236 10
      vertex -18.2092 -12.167 10
    endloop
  endfacet
  facet normal 0 0 1
    outer loop
      vertex -15.8096 3.14472 10
      vertex -21.4792 4.27248 10
      vertex -16.0417 1.57997 10
    endloop
  endfacet
  facet normal 0 0 1
    outer loop
      vertex -14.8923 -6.16859 10
      vertex -20.233 -8.38077 10
      vertex -19.3141 -10.3236 10
    endloop
  endfacet
  facet normal -0 0 1
    outer loop
      vertex -21.7945 2.14657 10
      vertex -16.0417 1.57997 10
      vertex -21.4792 4.27248 10
    endloop
  endfacet
  facet normal 0 0 1
    outer loop
      vertex -15.4252 -4.67918 10
      vertex -20.957 -6.35723 10
      vertex -20.233 -8.38077 10
    endloop
  endfacet
  facet normal 0 0 1
    outer loop
      vertex -16.0417 1.57997 10
      vertex -21.7945 2.14657 10
      vertex -16.1193 0 10
    endloop
  endfacet
  facet normal 0 0 1
    outer loop
      vertex -15.8096 -3.14472 10
      vertex -21.4792 -4.27248 10
      vertex -20.957 -6.35723 10
    endloop
  endfacet
  facet normal 0 0 1
    outer loop
      vertex -21.9 0 10
      vertex -16.1193 0 10
      vertex -21.7945 2.14657 10
    endloop
  endfacet
  facet normal 0 0 1
    outer loop
      vertex -16.0417 -1.57997 10
      vertex -21.7945 -2.14657 10
      vertex -21.4792 -4.27248 10
    endloop
  endfacet
  facet normal 0 0 1
    outer loop
      vertex -16.1193 0 10
      vertex -21.9 0 10
      vertex -21.7945 -2.14657 10
    endloop
  endfacet
  facet normal -0.595699 0.803208 0
    outer loop
      vertex -12.167 18.2092 0
      vertex -13.8932 16.9289 10
      vertex -12.167 18.2092 10
    endloop
  endfacet
  facet normal -0.595699 0.803208 0
    outer loop
      vertex -13.8932 16.9289 10
      vertex -12.167 18.2092 0
      vertex -13.8932 16.9289 0
    endloop
  endfacet
  facet normal -0.514103 0.857728 0
    outer loop
      vertex -10.3236 19.3141 0
      vertex -12.167 18.2092 10
      vertex -10.3236 19.3141 10
    endloop
  endfacet
  facet normal -0.514103 0.857728 0
    outer loop
      vertex -12.167 18.2092 10
      vertex -10.3236 19.3141 0
      vertex -12.167 18.2092 0
    endloop
  endfacet
  facet normal -0.671559 0.740951 0
    outer loop
      vertex -13.8932 16.9289 0
      vertex -15.4856 15.4856 10
      vertex -13.8932 16.9289 10
    endloop
  endfacet
  facet normal -0.671559 0.740951 0
    outer loop
      vertex -15.4856 15.4856 10
      vertex -13.8932 16.9289 0
      vertex -15.4856 15.4856 0
    endloop
  endfacet
  facet normal -0.33689 0.941544 0
    outer loop
      vertex -6.35723 20.957 0
      vertex -8.38077 20.233 10
      vertex -6.35723 20.957 10
    endloop
  endfacet
  facet normal -0.33689 0.941544 0
    outer loop
      vertex -8.38077 20.233 10
      vertex -6.35723 20.957 0
      vertex -8.38077 20.233 0
    endloop
  endfacet
  facet normal -0.14673 0.989177 0
    outer loop
      vertex -2.14657 21.7945 0
      vertex -4.27248 21.4792 10
      vertex -2.14657 21.7945 10
    endloop
  endfacet
  facet normal -0.14673 0.989177 0
    outer loop
      vertex -4.27248 21.4792 10
      vertex -2.14657 21.7945 0
      vertex -4.27248 21.4792 0
    endloop
  endfacet
  facet normal 0.998795 -0.0490681 0
    outer loop
      vertex 21.7945 -2.14657 10
      vertex 21.9 0 0
      vertex 21.9 0 10
    endloop
  endfacet
  facet normal 0.998795 -0.0490681 0
    outer loop
      vertex 21.9 0 0
      vertex 21.7945 -2.14657 10
      vertex 21.7945 -2.14657 0
    endloop
  endfacet
  facet normal 0.514103 -0.857728 0
    outer loop
      vertex 10.3236 -19.3141 0
      vertex 12.167 -18.2092 10
      vertex 10.3236 -19.3141 10
    endloop
  endfacet
  facet normal 0.514103 -0.857728 0
    outer loop
      vertex 12.167 -18.2092 10
      vertex 10.3236 -19.3141 0
      vertex 12.167 -18.2092 0
    endloop
  endfacet
  facet normal -0.740951 -0.671559 0
    outer loop
      vertex -15.4856 -15.4856 0
      vertex -16.9289 -13.8932 10
      vertex -16.9289 -13.8932 0
    endloop
  endfacet
  facet normal -0.740951 -0.671559 0
    outer loop
      vertex -16.9289 -13.8932 10
      vertex -15.4856 -15.4856 0
      vertex -15.4856 -15.4856 10
    endloop
  endfacet
  facet normal 0.903989 -0.427555 0
    outer loop
      vertex 19.3141 -10.3236 10
      vertex 20.233 -8.38077 0
      vertex 20.233 -8.38077 10
    endloop
  endfacet
  facet normal 0.903989 -0.427555 0
    outer loop
      vertex 20.233 -8.38077 0
      vertex 19.3141 -10.3236 10
      vertex 19.3141 -10.3236 0
    endloop
  endfacet
  facet normal 0.941544 -0.33689 0
    outer loop
      vertex 20.233 -8.38077 10
      vertex 20.957 -6.35723 0
      vertex 20.957 -6.35723 10
    endloop
  endfacet
  facet normal 0.941544 -0.33689 0
    outer loop
      vertex 20.957 -6.35723 0
      vertex 20.233 -8.38077 10
      vertex 20.233 -8.38077 0
    endloop
  endfacet
  facet normal 0.989177 -0.14673 0
    outer loop
      vertex 21.4792 -4.27248 10
      vertex 21.7945 -2.14657 0
      vertex 21.7945 -2.14657 10
    endloop
  endfacet
  facet normal 0.989177 -0.14673 0
    outer loop
      vertex 21.7945 -2.14657 0
      vertex 21.4792 -4.27248 10
      vertex 21.4792 -4.27248 0
    endloop
  endfacet
  facet normal 0.857728 -0.514103 0
    outer loop
      vertex 18.2092 -12.167 10
      vertex 19.3141 -10.3236 0
      vertex 19.3141 -10.3236 10
    endloop
  endfacet
  facet normal 0.857728 -0.514103 0
    outer loop
      vertex 19.3141 -10.3236 0
      vertex 18.2092 -12.167 10
      vertex 18.2092 -12.167 0
    endloop
  endfacet
  facet normal 0.803208 -0.595699 0
    outer loop
      vertex 16.9289 -13.8932 10
      vertex 18.2092 -12.167 0
      vertex 18.2092 -12.167 10
    endloop
  endfacet
  facet normal 0.803208 -0.595699 0
    outer loop
      vertex 18.2092 -12.167 0
      vertex 16.9289 -13.8932 10
      vertex 16.9289 -13.8932 0
    endloop
  endfacet
  facet normal -0.803208 -0.595699 0
    outer loop
      vertex -16.9289 -13.8932 0
      vertex -18.2092 -12.167 10
      vertex -18.2092 -12.167 0
    endloop
  endfacet
  facet normal -0.803208 -0.595699 0
    outer loop
      vertex -18.2092 -12.167 10
      vertex -16.9289 -13.8932 0
      vertex -16.9289 -13.8932 10
    endloop
  endfacet
  facet normal -0.998795 -0.0490681 0
    outer loop
      vertex -21.7945 -2.14657 0
      vertex -21.9 0 10
      vertex -21.9 0 0
    endloop
  endfacet
  facet normal -0.998795 -0.0490681 0
    outer loop
      vertex -21.9 0 10
      vertex -21.7945 -2.14657 0
      vertex -21.7945 -2.14657 10
    endloop
  endfacet
  facet normal -0.989177 -0.14673 0
    outer loop
      vertex -21.4792 -4.27248 0
      vertex -21.7945 -2.14657 10
      vertex -21.7945 -2.14657 0
    endloop
  endfacet
  facet normal -0.989177 -0.14673 0
    outer loop
      vertex -21.7945 -2.14657 10
      vertex -21.4792 -4.27248 0
      vertex -21.4792 -4.27248 10
    endloop
  endfacet
  facet normal 0.671559 -0.740951 0
    outer loop
      vertex 13.8932 -16.9289 0
      vertex 15.4856 -15.4856 10
      vertex 13.8932 -16.9289 10
    endloop
  endfacet
  facet normal 0.671559 -0.740951 0
    outer loop
      vertex 15.4856 -15.4856 10
      vertex 13.8932 -16.9289 0
      vertex 15.4856 -15.4856 0
    endloop
  endfacet
  facet normal 0.595699 -0.803208 0
    outer loop
      vertex 12.167 -18.2092 0
      vertex 13.8932 -16.9289 10
      vertex 12.167 -18.2092 10
    endloop
  endfacet
  facet normal 0.595699 -0.803208 0
    outer loop
      vertex 13.8932 -16.9289 10
      vertex 12.167 -18.2092 0
      vertex 13.8932 -16.9289 0
    endloop
  endfacet
  facet normal 0.0490681 -0.998795 0
    outer loop
      vertex 0 -21.9 0
      vertex 2.14657 -21.7945 10
      vertex 0 -21.9 10
    endloop
  endfacet
  facet normal 0.0490681 -0.998795 0
    outer loop
      vertex 2.14657 -21.7945 10
      vertex 0 -21.9 0
      vertex 2.14657 -21.7945 0
    endloop
  endfacet
  facet normal -0.14673 -0.989177 0
    outer loop
      vertex -4.27248 -21.4792 0
      vertex -2.14657 -21.7945 10
      vertex -4.27248 -21.4792 10
    endloop
  endfacet
  facet normal -0.14673 -0.989177 -0
    outer loop
      vertex -2.14657 -21.7945 10
      vertex -4.27248 -21.4792 0
      vertex -2.14657 -21.7945 0
    endloop
  endfacet
  facet normal -0.33689 -0.941544 0
    outer loop
      vertex -8.38077 -20.233 0
      vertex -6.35723 -20.957 10
      vertex -8.38077 -20.233 10
    endloop
  endfacet
  facet normal -0.33689 -0.941544 -0
    outer loop
      vertex -6.35723 -20.957 10
      vertex -8.38077 -20.233 0
      vertex -6.35723 -20.957 0
    endloop
  endfacet
  facet normal -0.671559 -0.740951 0
    outer loop
      vertex -15.4856 -15.4856 0
      vertex -13.8932 -16.9289 10
      vertex -15.4856 -15.4856 10
    endloop
  endfacet
  facet normal -0.671559 -0.740951 -0
    outer loop
      vertex -13.8932 -16.9289 10
      vertex -15.4856 -15.4856 0
      vertex -13.8932 -16.9289 0
    endloop
  endfacet
  facet normal -0.857728 -0.514103 0
    outer loop
      vertex -18.2092 -12.167 0
      vertex -19.3141 -10.3236 10
      vertex -19.3141 -10.3236 0
    endloop
  endfacet
  facet normal -0.857728 -0.514103 0
    outer loop
      vertex -19.3141 -10.3236 10
      vertex -18.2092 -12.167 0
      vertex -18.2092 -12.167 10
    endloop
  endfacet
  facet normal -0.903989 -0.427555 0
    outer loop
      vertex -19.3141 -10.3236 0
      vertex -20.233 -8.38077 10
      vertex -20.233 -8.38077 0
    endloop
  endfacet
  facet normal -0.903989 -0.427555 0
    outer loop
      vertex -20.233 -8.38077 10
      vertex -19.3141 -10.3236 0
      vertex -19.3141 -10.3236 10
    endloop
  endfacet
  facet normal 0 0 -1
    outer loop
      vertex 21.7945 -2.14657 0
      vertex 21.7945 2.14657 0
      vertex 21.9 0 0
    endloop
  endfacet
  facet normal 0 0 -1
    outer loop
      vertex 21.4792 -4.27248 0
      vertex 21.7945 2.14657 0
      vertex 21.7945 -2.14657 0
    endloop
  endfacet
  facet normal 0 0 -1
    outer loop
      vertex 21.4792 -4.27248 0
      vertex 21.4792 4.27248 0
      vertex 21.7945 2.14657 0
    endloop
  endfacet
  facet normal 0 0 -1
    outer loop
      vertex 20.957 -6.35723 0
      vertex 21.4792 4.27248 0
      vertex 21.4792 -4.27248 0
    endloop
  endfacet
  facet normal 0 0 -1
    outer loop
      vertex 20.957 -6.35723 0
      vertex 20.957 6.35723 0
      vertex 21.4792 4.27248 0
    endloop
  endfacet
  facet normal 0 0 -1
    outer loop
      vertex 20.233 -8.38077 0
      vertex 20.957 6.35723 0
      vertex 20.957 -6.35723 0
    endloop
  endfacet
  facet normal 0 0 -1
    outer loop
      vertex 20.233 -8.38077 0
      vertex 20.233 8.38077 0
      vertex 20.957 6.35723 0
    endloop
  endfacet
  facet normal 0 0 -1
    outer loop
      vertex 19.3141 -10.3236 0
      vertex 20.233 8.38077 0
      vertex 20.233 -8.38077 0
    endloop
  endfacet
  facet normal 0 0 -1
    outer loop
      vertex 19.3141 -10.3236 0
      vertex 19.3141 10.3236 0
      vertex 20.233 8.38077 0
    endloop
  endfacet
  facet normal 0 0 -1
    outer loop
      vertex 18.2092 -12.167 0
      vertex 19.3141 10.3236 0
      vertex 19.3141 -10.3236 0
    endloop
  endfacet
  facet normal 0 0 -1
    outer loop
      vertex 18.2092 -12.167 0
      vertex 18.2092 12.167 0
      vertex 19.3141 10.3236 0
    endloop
  endfacet
  facet normal 0 0 -1
    outer loop
      vertex 16.9289 -13.8932 0
      vertex 18.2092 12.167 0
      vertex 18.2092 -12.167 0
    endloop
  endfacet
  facet normal 0 0 -1
    outer loop
      vertex 16.9289 -13.8932 0
      vertex 16.9289 13.8932 0
      vertex 18.2092 12.167 0
    endloop
  endfacet
  facet normal 0 0 -1
    outer loop
      vertex 15.4856 -15.4856 0
      vertex 16.9289 13.8932 0
      vertex 16.9289 -13.8932 0
    endloop
  endfacet
  facet normal 0 0 -1
    outer loop
      vertex 15.4856 -15.4856 0
      vertex 15.4856 15.4856 0
      vertex 16.9289 13.8932 0
    endloop
  endfacet
  facet normal 0 0 -1
    outer loop
      vertex 13.8932 -16.9289 0
      vertex 15.4856 15.4856 0
      vertex 15.4856 -15.4856 0
    endloop
  endfacet
  facet normal 0 0 -1
    outer loop
      vertex 13.8932 -16.9289 0
      vertex 13.8932 16.9289 0
      vertex 15.4856 15.4856 0
    endloop
  endfacet
  facet normal 0 0 -1
    outer loop
      vertex 12.167 -18.2092 0
      vertex 13.8932 16.9289 0
      vertex 13.8932 -16.9289 0
    endloop
  endfacet
  facet normal 0 0 -1
    outer loop
      vertex 12.167 -18.2092 0
      vertex 12.167 18.2092 0
      vertex 13.8932 16.9289 0
    endloop
  endfacet
  facet normal 0 0 -1
    outer loop
      vertex 10.3236 -19.3141 0
      vertex 12.167 18.2092 0
      vertex 12.167 -18.2092 0
    endloop
  endfacet
  facet normal 0 0 -1
    outer loop
      vertex 10.3236 -19.3141 0
      vertex 10.3236 19.3141 0
      vertex 12.167 18.2092 0
    endloop
  endfacet
  facet normal 0 0 -1
    outer loop
      vertex 8.38077 -20.233 0
      vertex 10.3236 19.3141 0
      vertex 10.3236 -19.3141 0
    endloop
  endfacet
  facet normal 0 0 -1
    outer loop
      vertex 8.38077 -20.233 0
      vertex 8.38077 20.233 0
      vertex 10.3236 19.3141 0
    endloop
  endfacet
  facet normal 0 0 -1
    outer loop
      vertex 6.35723 -20.957 0
      vertex 8.38077 20.233 0
      vertex 8.38077 -20.233 0
    endloop
  endfacet
  facet normal 0 0 -1
    outer loop
      vertex 6.35723 -20.957 0
      vertex 6.35723 20.957 0
      vertex 8.38077 20.233 0
    endloop
  endfacet
  facet normal 0 0 -1
    outer loop
      vertex 4.27248 -21.4792 0
      vertex 6.35723 20.957 0
      vertex 6.35723 -20.957 0
    endloop
  endfacet
  facet normal 0 0 -1
    outer loop
      vertex 4.27248 -21.4792 0
      vertex 4.27248 21.4792 0
      vertex 6.35723 20.957 0
    endloop
  endfacet
  facet normal 0 0 -1
    outer loop
      vertex 2.14657 -21.7945 0
      vertex 4.27248 21.4792 0
      vertex 4.27248 -21.4792 0
    endloop
  endfacet
  facet normal 0 0 -1
    outer loop
      vertex 2.14657 -21.7945 0
      vertex 2.14657 21.7945 0
      vertex 4.27248 21.4792 0
    endloop
  endfacet
  facet normal 0 0 -1
    outer loop
      vertex 0 -21.9 0
      vertex 2.14657 21.7945 0
      vertex 2.14657 -21.7945 0
    endloop
  endfacet
  facet normal 0 0 -1
    outer loop
      vertex 0 -21.9 0
      vertex 0 21.9 0
      vertex 2.14657 21.7945 0
    endloop
  endfacet
  facet normal 0 0 -1
    outer loop
      vertex -2.14657 -21.7945 0
      vertex 0 21.9 0
      vertex 0 -21.9 0
    endloop
  endfacet
  facet normal 0 0 -1
    outer loop
      vertex -2.14657 -21.7945 0
      vertex -2.14657 21.7945 0
      vertex 0 21.9 0
    endloop
  endfacet
  facet normal 0 0 -1
    outer loop
      vertex -4.27248 -21.4792 0
      vertex -2.14657 21.7945 0
      vertex -2.14657 -21.7945 0
    endloop
  endfacet
  facet normal 0 0 -1
    outer loop
      vertex -4.27248 -21.4792 0
      vertex -4.27248 21.4792 0
      vertex -2.14657 21.7945 0
    endloop
  endfacet
  facet normal 0 0 -1
    outer loop
      vertex -6.35723 -20.957 0
      vertex -4.27248 21.4792 0
      vertex -4.27248 -21.4792 0
    endloop
  endfacet
  facet normal 0 0 -1
    outer loop
      vertex -6.35723 -20.957 0
      vertex -6.35723 20.957 0
      vertex -4.27248 21.4792 0
    endloop
  endfacet
  facet normal 0 0 -1
    outer loop
      vertex -8.38077 -20.233 0
      vertex -6.35723 20.957 0
      vertex -6.35723 -20.957 0
    endloop
  endfacet
  facet normal 0 0 -1
    outer loop
      vertex -8.38077 -20.233 0
      vertex -8.38077 20.233 0
      vertex -6.35723 20.957 0
    endloop
  endfacet
  facet normal 0 0 -1
    outer loop
      vertex -10.3236 -19.3141 0
      vertex -8.38077 20.233 0
      vertex -8.38077 -20.233 0
    endloop
  endfacet
  facet normal 0 0 -1
    outer loop
      vertex -10.3236 -19.3141 0
      vertex -10.3236 19.3141 0
      vertex -8.38077 20.233 0
    endloop
  endfacet
  facet normal 0 0 -1
    outer loop
      vertex -12.167 -18.2092 0
      vertex -10.3236 19.3141 0
      vertex -10.3236 -19.3141 0
    endloop
  endfacet
  facet normal 0 0 -1
    outer loop
      vertex -12.167 -18.2092 0
      vertex -12.167 18.2092 0
      vertex -10.3236 19.3141 0
    endloop
  endfacet
  facet normal 0 0 -1
    outer loop
      vertex -13.8932 -16.9289 0
      vertex -12.167 18.2092 0
      vertex -12.167 -18.2092 0
    endloop
  endfacet
  facet normal 0 0 -1
    outer loop
      vertex -13.8932 -16.9289 0
      vertex -13.8932 16.9289 0
      vertex -12.167 18.2092 0
    endloop
  endfacet
  facet normal 0 0 -1
    outer loop
      vertex -15.4856 -15.4856 0
      vertex -13.8932 16.9289 0
      vertex -13.8932 -16.9289 0
    endloop
  endfacet
  facet normal 0 0 -1
    outer loop
      vertex -15.4856 -15.4856 0
      vertex -15.4856 15.4856 0
      vertex -13.8932 16.9289 0
    endloop
  endfacet
  facet normal 0 0 -1
    outer loop
      vertex -16.9289 -13.8932 0
      vertex -15.4856 15.4856 0
      vertex -15.4856 -15.4856 0
    endloop
  endfacet
  facet normal 0 0 -1
    outer loop
      vertex -16.9289 -13.8932 0
      vertex -16.9289 13.8932 0
      vertex -15.4856 15.4856 0
    endloop
  endfacet
  facet normal 0 0 -1
    outer loop
      vertex -18.2092 -12.167 0
      vertex -16.9289 13.8932 0
      vertex -16.9289 -13.8932 0
    endloop
  endfacet
  facet normal 0 0 -1
    outer loop
      vertex -18.2092 -12.167 0
      vertex -18.2092 12.167 0
      vertex -16.9289 13.8932 0
    endloop
  endfacet
  facet normal 0 0 -1
    outer loop
      vertex -19.3141 -10.3236 0
      vertex -18.2092 12.167 0
      vertex -18.2092 -12.167 0
    endloop
  endfacet
  facet normal 0 0 -1
    outer loop
      vertex -19.3141 -10.3236 0
      vertex -19.3141 10.3236 0
      vertex -18.2092 12.167 0
    endloop
  endfacet
  facet normal 0 0 -1
    outer loop
      vertex -20.233 -8.38077 0
      vertex -19.3141 10.3236 0
      vertex -19.3141 -10.3236 0
    endloop
  endfacet
  facet normal 0 0 -1
    outer loop
      vertex -20.233 -8.38077 0
      vertex -20.233 8.38077 0
      vertex -19.3141 10.3236 0
    endloop
  endfacet
  facet normal 0 0 -1
    outer loop
      vertex -20.957 -6.35723 0
      vertex -20.233 8.38077 0
      vertex -20.233 -8.38077 0
    endloop
  endfacet
  facet normal 0 0 -1
    outer loop
      vertex -20.957 -6.35723 0
      vertex -20.957 6.35723 0
      vertex -20.233 8.38077 0
    endloop
  endfacet
  facet normal 0 0 -1
    outer loop
      vertex -21.4792 -4.27248 0
      vertex -20.957 6.35723 0
      vertex -20.957 -6.35723 0
    endloop
  endfacet
  facet normal 0 0 -1
    outer loop
      vertex -21.4792 -4.27248 0
      vertex -21.4792 4.27248 0
      vertex -20.957 6.35723 0
    endloop
  endfacet
  facet normal 0 0 -1
    outer loop
      vertex -21.7945 -2.14657 0
      vertex -21.4792 4.27248 0
      vertex -21.4792 -4.27248 0
    endloop
  endfacet
  facet normal 0 0 -1
    outer loop
      vertex -21.7945 -2.14657 0
      vertex -21.7945 2.14657 0
      vertex -21.4792 4.27248 0
    endloop
  endfacet
  facet normal 0 -0 -1
    outer loop
      vertex -21.7945 2.14657 0
      vertex -21.7945 -2.14657 0
      vertex -21.9 0 0
    endloop
  endfacet
  facet normal 0.740951 -0.671559 0
    outer loop
      vertex 15.4856 -15.4856 10
      vertex 16.9289 -13.8932 0
      vertex 16.9289 -13.8932 10
    endloop
  endfacet
  facet normal 0.740951 -0.671559 0
    outer loop
      vertex 16.9289 -13.8932 0
      vertex 15.4856 -15.4856 10
      vertex 15.4856 -15.4856 0
    endloop
  endfacet
  facet normal -0.242981 -0.970031 0
    outer loop
      vertex -6.35723 -20.957 0
      vertex -4.27248 -21.4792 10
      vertex -6.35723 -20.957 10
    endloop
  endfacet
  facet normal -0.242981 -0.970031 -0
    outer loop
      vertex -4.27248 -21.4792 10
      vertex -6.35723 -20.957 0
      vertex -4.27248 -21.4792 0
    endloop
  endfacet
  facet normal -0.595699 -0.803208 0
    outer loop
      vertex -13.8932 -16.9289 0
      vertex -12.167 -18.2092 10
      vertex -13.8932 -16.9289 10
    endloop
  endfacet
  facet normal -0.595699 -0.803208 -0
    outer loop
      vertex -12.167 -18.2092 10
      vertex -13.8932 -16.9289 0
      vertex -12.167 -18.2092 0
    endloop
  endfacet
  facet normal -0.427555 -0.903989 0
    outer loop
      vertex -10.3236 -19.3141 0
      vertex -8.38077 -20.233 10
      vertex -10.3236 -19.3141 10
    endloop
  endfacet
  facet normal -0.427555 -0.903989 -0
    outer loop
      vertex -8.38077 -20.233 10
      vertex -10.3236 -19.3141 0
      vertex -8.38077 -20.233 0
    endloop
  endfacet
  facet normal -0.941544 -0.33689 0
    outer loop
      vertex -20.233 -8.38077 0
      vertex -20.957 -6.35723 10
      vertex -20.957 -6.35723 0
    endloop
  endfacet
  facet normal -0.941544 -0.33689 0
    outer loop
      vertex -20.957 -6.35723 10
      vertex -20.233 -8.38077 0
      vertex -20.233 -8.38077 10
    endloop
  endfacet
  facet normal -0.970031 -0.242981 0
    outer loop
      vertex -20.957 -6.35723 0
      vertex -21.4792 -4.27248 10
      vertex -21.4792 -4.27248 0
    endloop
  endfacet
  facet normal -0.970031 -0.242981 0
    outer loop
      vertex -21.4792 -4.27248 10
      vertex -20.957 -6.35723 0
      vertex -20.957 -6.35723 10
    endloop
  endfacet
  facet normal 0.33689 -0.941544 0
    outer loop
      vertex 6.35723 -20.957 0
      vertex 8.38077 -20.233 10
      vertex 6.35723 -20.957 10
    endloop
  endfacet
  facet normal 0.33689 -0.941544 0
    outer loop
      vertex 8.38077 -20.233 10
      vertex 6.35723 -20.957 0
      vertex 8.38077 -20.233 0
    endloop
  endfacet
  facet normal 0.242981 -0.970031 0
    outer loop
      vertex 4.27248 -21.4792 0
      vertex 6.35723 -20.957 10
      vertex 4.27248 -21.4792 10
    endloop
  endfacet
  facet normal 0.242981 -0.970031 0
    outer loop
      vertex 6.35723 -20.957 10
      vertex 4.27248 -21.4792 0
      vertex 6.35723 -20.957 0
    endloop
  endfacet
  facet normal -0.514103 -0.857728 0
    outer loop
      vertex -12.167 -18.2092 0
      vertex -10.3236 -19.3141 10
      vertex -12.167 -18.2092 10
    endloop
  endfacet
  facet normal -0.514103 -0.857728 -0
    outer loop
      vertex -10.3236 -19.3141 10
      vertex -12.167 -18.2092 0
      vertex -10.3236 -19.3141 0
    endloop
  endfacet
  facet normal -0.857729 -0.514103 0
    outer loop
      vertex 14.2159 7.59858 3
      vertex 13.4027 8.9554 10
      vertex 13.4027 8.9554 3
    endloop
  endfacet
  facet normal -0.857729 -0.514103 0
    outer loop
      vertex 13.4027 8.9554 10
      vertex 14.2159 7.59858 3
      vertex 14.2159 7.59858 10
    endloop
  endfacet
  facet normal -0.33689 -0.941544 0
    outer loop
      vertex 4.67918 15.4252 3
      vertex 6.16859 14.8923 10
      vertex 4.67918 15.4252 10
    endloop
  endfacet
  facet normal -0.33689 -0.941544 -0
    outer loop
      vertex 6.16859 14.8923 10
      vertex 4.67918 15.4252 3
      vertex 6.16859 14.8923 3
    endloop
  endfacet
  facet normal 0.33689 -0.941544 0
    outer loop
      vertex -6.16859 14.8923 3
      vertex -4.67918 15.4252 10
      vertex -6.16859 14.8923 10
    endloop
  endfacet
  facet normal 0.33689 -0.941544 0
    outer loop
      vertex -4.67918 15.4252 10
      vertex -6.16859 14.8923 3
      vertex -4.67918 15.4252 3
    endloop
  endfacet
  facet normal 0.903989 -0.427555 0
    outer loop
      vertex -14.8923 6.16859 10
      vertex -14.2159 7.59858 3
      vertex -14.2159 7.59858 10
    endloop
  endfacet
  facet normal 0.903989 -0.427555 0
    outer loop
      vertex -14.2159 7.59858 3
      vertex -14.8923 6.16859 10
      vertex -14.8923 6.16859 3
    endloop
  endfacet
  facet normal -0.998795 0.0490682 0
    outer loop
      vertex 16.0417 -1.57997 3
      vertex 16.1193 0 10
      vertex 16.1193 0 3
    endloop
  endfacet
  facet normal -0.998795 0.0490682 0
    outer loop
      vertex 16.1193 0 10
      vertex 16.0417 -1.57997 3
      vertex 16.0417 -1.57997 10
    endloop
  endfacet
  facet normal -0.427555 0.903989 0
    outer loop
      vertex 7.59858 -14.2159 3
      vertex 6.16859 -14.8923 10
      vertex 7.59858 -14.2159 10
    endloop
  endfacet
  facet normal -0.427555 0.903989 0
    outer loop
      vertex 6.16859 -14.8923 10
      vertex 7.59858 -14.2159 3
      vertex 6.16859 -14.8923 3
    endloop
  endfacet
  facet normal 0.5957 -0.803207 0
    outer loop
      vertex -10.226 12.4604 3
      vertex -8.9554 13.4027 10
      vertex -10.226 12.4604 10
    endloop
  endfacet
  facet normal 0.5957 -0.803207 0
    outer loop
      vertex -8.9554 13.4027 10
      vertex -10.226 12.4604 3
      vertex -8.9554 13.4027 3
    endloop
  endfacet
  facet normal -0.941544 0.33689 0
    outer loop
      vertex 14.8923 -6.16859 3
      vertex 15.4252 -4.67918 10
      vertex 15.4252 -4.67918 3
    endloop
  endfacet
  facet normal -0.941544 0.33689 0
    outer loop
      vertex 15.4252 -4.67918 10
      vertex 14.8923 -6.16859 3
      vertex 14.8923 -6.16859 10
    endloop
  endfacet
  facet normal 0.0490682 0.998795 -0
    outer loop
      vertex 0 -16.1193 3
      vertex -1.57997 -16.0417 10
      vertex 0 -16.1193 10
    endloop
  endfacet
  facet normal 0.0490682 0.998795 0
    outer loop
      vertex -1.57997 -16.0417 10
      vertex 0 -16.1193 3
      vertex -1.57997 -16.0417 3
    endloop
  endfacet
  facet normal -0.33689 0.941544 0
    outer loop
      vertex 6.16859 -14.8923 3
      vertex 4.67918 -15.4252 10
      vertex 6.16859 -14.8923 10
    endloop
  endfacet
  facet normal -0.33689 0.941544 0
    outer loop
      vertex 4.67918 -15.4252 10
      vertex 6.16859 -14.8923 3
      vertex 4.67918 -15.4252 3
    endloop
  endfacet
  facet normal -0.514103 0.857729 0
    outer loop
      vertex 8.9554 -13.4027 3
      vertex 7.59858 -14.2159 10
      vertex 8.9554 -13.4027 10
    endloop
  endfacet
  facet normal -0.514103 0.857729 0
    outer loop
      vertex 7.59858 -14.2159 10
      vertex 8.9554 -13.4027 3
      vertex 7.59858 -14.2159 3
    endloop
  endfacet
  facet normal -0.989177 -0.14673 0
    outer loop
      vertex 16.0417 1.57997 3
      vertex 15.8096 3.14472 10
      vertex 15.8096 3.14472 3
    endloop
  endfacet
  facet normal -0.989177 -0.14673 0
    outer loop
      vertex 15.8096 3.14472 10
      vertex 16.0417 1.57997 3
      vertex 16.0417 1.57997 10
    endloop
  endfacet
  facet normal -0.803207 -0.5957 0
    outer loop
      vertex 13.4027 8.9554 3
      vertex 12.4604 10.226 10
      vertex 12.4604 10.226 3
    endloop
  endfacet
  facet normal -0.803207 -0.5957 0
    outer loop
      vertex 12.4604 10.226 10
      vertex 13.4027 8.9554 3
      vertex 13.4027 8.9554 10
    endloop
  endfacet
  facet normal -0.671559 -0.740951 0
    outer loop
      vertex 10.226 12.4604 3
      vertex 11.3981 11.3981 10
      vertex 10.226 12.4604 10
    endloop
  endfacet
  facet normal -0.671559 -0.740951 -0
    outer loop
      vertex 11.3981 11.3981 10
      vertex 10.226 12.4604 3
      vertex 11.3981 11.3981 3
    endloop
  endfacet
  facet normal 0.0490682 -0.998795 0
    outer loop
      vertex -1.57997 16.0417 3
      vertex 0 16.1193 10
      vertex -1.57997 16.0417 10
    endloop
  endfacet
  facet normal 0.0490682 -0.998795 0
    outer loop
      vertex 0 16.1193 10
      vertex -1.57997 16.0417 3
      vertex 0 16.1193 3
    endloop
  endfacet
  facet normal -0.14673 -0.989177 0
    outer loop
      vertex 1.57997 16.0417 3
      vertex 3.14472 15.8096 10
      vertex 1.57997 16.0417 10
    endloop
  endfacet
  facet normal -0.14673 -0.989177 -0
    outer loop
      vertex 3.14472 15.8096 10
      vertex 1.57997 16.0417 3
      vertex 3.14472 15.8096 3
    endloop
  endfacet
  facet normal -0.5957 -0.803207 0
    outer loop
      vertex 8.9554 13.4027 3
      vertex 10.226 12.4604 10
      vertex 8.9554 13.4027 10
    endloop
  endfacet
  facet normal -0.5957 -0.803207 -0
    outer loop
      vertex 10.226 12.4604 10
      vertex 8.9554 13.4027 3
      vertex 10.226 12.4604 3
    endloop
  endfacet
  facet normal -0.514103 -0.857729 0
    outer loop
      vertex 7.59858 14.2159 3
      vertex 8.9554 13.4027 10
      vertex 7.59858 14.2159 10
    endloop
  endfacet
  facet normal -0.514103 -0.857729 -0
    outer loop
      vertex 8.9554 13.4027 10
      vertex 7.59858 14.2159 3
      vertex 8.9554 13.4027 3
    endloop
  endfacet
  facet normal 0.998795 -0.0490682 0
    outer loop
      vertex -16.1193 0 10
      vertex -16.0417 1.57997 3
      vertex -16.0417 1.57997 10
    endloop
  endfacet
  facet normal 0.998795 -0.0490682 0
    outer loop
      vertex -16.0417 1.57997 3
      vertex -16.1193 0 10
      vertex -16.1193 0 3
    endloop
  endfacet
  facet normal 0.941544 -0.33689 0
    outer loop
      vertex -15.4252 4.67918 10
      vertex -14.8923 6.16859 3
      vertex -14.8923 6.16859 10
    endloop
  endfacet
  facet normal 0.941544 -0.33689 0
    outer loop
      vertex -14.8923 6.16859 3
      vertex -15.4252 4.67918 10
      vertex -15.4252 4.67918 3
    endloop
  endfacet
  facet normal 0.970031 -0.24298 0
    outer loop
      vertex -15.8096 3.14472 10
      vertex -15.4252 4.67918 3
      vertex -15.4252 4.67918 10
    endloop
  endfacet
  facet normal 0.970031 -0.24298 0
    outer loop
      vertex -15.4252 4.67918 3
      vertex -15.8096 3.14472 10
      vertex -15.8096 3.14472 3
    endloop
  endfacet
  facet normal 0.740951 -0.671559 0
    outer loop
      vertex -12.4604 10.226 10
      vertex -11.3981 11.3981 3
      vertex -11.3981 11.3981 10
    endloop
  endfacet
  facet normal 0.740951 -0.671559 0
    outer loop
      vertex -11.3981 11.3981 3
      vertex -12.4604 10.226 10
      vertex -12.4604 10.226 3
    endloop
  endfacet
  facet normal 0.803207 -0.5957 0
    outer loop
      vertex -13.4027 8.9554 10
      vertex -12.4604 10.226 3
      vertex -12.4604 10.226 10
    endloop
  endfacet
  facet normal 0.803207 -0.5957 0
    outer loop
      vertex -12.4604 10.226 3
      vertex -13.4027 8.9554 10
      vertex -13.4027 8.9554 3
    endloop
  endfacet
  facet normal 0.14673 -0.989177 0
    outer loop
      vertex -3.14472 15.8096 3
      vertex -1.57997 16.0417 10
      vertex -3.14472 15.8096 10
    endloop
  endfacet
  facet normal 0.14673 -0.989177 0
    outer loop
      vertex -1.57997 16.0417 10
      vertex -3.14472 15.8096 3
      vertex -1.57997 16.0417 3
    endloop
  endfacet
  facet normal 0.24298 -0.970031 0
    outer loop
      vertex -4.67918 15.4252 3
      vertex -3.14472 15.8096 10
      vertex -4.67918 15.4252 10
    endloop
  endfacet
  facet normal 0.24298 -0.970031 0
    outer loop
      vertex -3.14472 15.8096 10
      vertex -4.67918 15.4252 3
      vertex -3.14472 15.8096 3
    endloop
  endfacet
  facet normal 0.427555 -0.903989 0
    outer loop
      vertex -7.59858 14.2159 3
      vertex -6.16859 14.8923 10
      vertex -7.59858 14.2159 10
    endloop
  endfacet
  facet normal 0.427555 -0.903989 0
    outer loop
      vertex -6.16859 14.8923 10
      vertex -7.59858 14.2159 3
      vertex -6.16859 14.8923 3
    endloop
  endfacet
  facet normal 0.514103 -0.857729 0
    outer loop
      vertex -8.9554 13.4027 3
      vertex -7.59858 14.2159 10
      vertex -8.9554 13.4027 10
    endloop
  endfacet
  facet normal 0.514103 -0.857729 0
    outer loop
      vertex -7.59858 14.2159 10
      vertex -8.9554 13.4027 3
      vertex -7.59858 14.2159 3
    endloop
  endfacet
  facet normal 0.671559 -0.740951 0
    outer loop
      vertex -11.3981 11.3981 3
      vertex -10.226 12.4604 10
      vertex -11.3981 11.3981 10
    endloop
  endfacet
  facet normal 0.671559 -0.740951 0
    outer loop
      vertex -10.226 12.4604 10
      vertex -11.3981 11.3981 3
      vertex -10.226 12.4604 3
    endloop
  endfacet
  facet normal -0.998795 -0.0490682 0
    outer loop
      vertex 16.1193 0 3
      vertex 16.0417 1.57997 10
      vertex 16.0417 1.57997 3
    endloop
  endfacet
  facet normal -0.998795 -0.0490682 0
    outer loop
      vertex 16.0417 1.57997 10
      vertex 16.1193 0 3
      vertex 16.1193 0 10
    endloop
  endfacet
  facet normal -0.857729 0.514103 0
    outer loop
      vertex 13.4027 -8.9554 3
      vertex 14.2159 -7.59858 10
      vertex 14.2159 -7.59858 3
    endloop
  endfacet
  facet normal -0.857729 0.514103 0
    outer loop
      vertex 14.2159 -7.59858 10
      vertex 13.4027 -8.9554 3
      vertex 13.4027 -8.9554 10
    endloop
  endfacet
  facet normal 0.803207 0.5957 0
    outer loop
      vertex -12.4604 -10.226 10
      vertex -13.4027 -8.9554 3
      vertex -13.4027 -8.9554 10
    endloop
  endfacet
  facet normal 0.803207 0.5957 0
    outer loop
      vertex -13.4027 -8.9554 3
      vertex -12.4604 -10.226 10
      vertex -12.4604 -10.226 3
    endloop
  endfacet
  facet normal 0.970031 0.24298 0
    outer loop
      vertex -15.4252 -4.67918 10
      vertex -15.8096 -3.14472 3
      vertex -15.8096 -3.14472 10
    endloop
  endfacet
  facet normal 0.970031 0.24298 0
    outer loop
      vertex -15.8096 -3.14472 3
      vertex -15.4252 -4.67918 10
      vertex -15.4252 -4.67918 3
    endloop
  endfacet
  facet normal -0.14673 0.989177 0
    outer loop
      vertex 3.14472 -15.8096 3
      vertex 1.57997 -16.0417 10
      vertex 3.14472 -15.8096 10
    endloop
  endfacet
  facet normal -0.14673 0.989177 0
    outer loop
      vertex 1.57997 -16.0417 10
      vertex 3.14472 -15.8096 3
      vertex 1.57997 -16.0417 3
    endloop
  endfacet
  facet normal -0.903989 -0.427555 0
    outer loop
      vertex 14.8923 6.16859 3
      vertex 14.2159 7.59858 10
      vertex 14.2159 7.59858 3
    endloop
  endfacet
  facet normal -0.903989 -0.427555 0
    outer loop
      vertex 14.2159 7.59858 10
      vertex 14.8923 6.16859 3
      vertex 14.8923 6.16859 10
    endloop
  endfacet
  facet normal -0.941544 -0.33689 0
    outer loop
      vertex 15.4252 4.67918 3
      vertex 14.8923 6.16859 10
      vertex 14.8923 6.16859 3
    endloop
  endfacet
  facet normal -0.941544 -0.33689 0
    outer loop
      vertex 14.8923 6.16859 10
      vertex 15.4252 4.67918 3
      vertex 15.4252 4.67918 10
    endloop
  endfacet
  facet normal -0.970031 -0.24298 0
    outer loop
      vertex 15.8096 3.14472 3
      vertex 15.4252 4.67918 10
      vertex 15.4252 4.67918 3
    endloop
  endfacet
  facet normal -0.970031 -0.24298 0
    outer loop
      vertex 15.4252 4.67918 10
      vertex 15.8096 3.14472 3
      vertex 15.8096 3.14472 10
    endloop
  endfacet
  facet normal -0.740951 -0.671559 0
    outer loop
      vertex 12.4604 10.226 3
      vertex 11.3981 11.3981 10
      vertex 11.3981 11.3981 3
    endloop
  endfacet
  facet normal -0.740951 -0.671559 0
    outer loop
      vertex 11.3981 11.3981 10
      vertex 12.4604 10.226 3
      vertex 12.4604 10.226 10
    endloop
  endfacet
  facet normal -0.0490682 -0.998795 0
    outer loop
      vertex 0 16.1193 3
      vertex 1.57997 16.0417 10
      vertex 0 16.1193 10
    endloop
  endfacet
  facet normal -0.0490682 -0.998795 -0
    outer loop
      vertex 1.57997 16.0417 10
      vertex 0 16.1193 3
      vertex 1.57997 16.0417 3
    endloop
  endfacet
  facet normal -0.24298 -0.970031 0
    outer loop
      vertex 3.14472 15.8096 3
      vertex 4.67918 15.4252 10
      vertex 3.14472 15.8096 10
    endloop
  endfacet
  facet normal -0.24298 -0.970031 -0
    outer loop
      vertex 4.67918 15.4252 10
      vertex 3.14472 15.8096 3
      vertex 4.67918 15.4252 3
    endloop
  endfacet
  facet normal -0.427555 -0.903989 0
    outer loop
      vertex 6.16859 14.8923 3
      vertex 7.59858 14.2159 10
      vertex 6.16859 14.8923 10
    endloop
  endfacet
  facet normal -0.427555 -0.903989 -0
    outer loop
      vertex 7.59858 14.2159 10
      vertex 6.16859 14.8923 3
      vertex 7.59858 14.2159 3
    endloop
  endfacet
  facet normal 0.989177 -0.14673 0
    outer loop
      vertex -16.0417 1.57997 10
      vertex -15.8096 3.14472 3
      vertex -15.8096 3.14472 10
    endloop
  endfacet
  facet normal 0.989177 -0.14673 0
    outer loop
      vertex -15.8096 3.14472 3
      vertex -16.0417 1.57997 10
      vertex -16.0417 1.57997 3
    endloop
  endfacet
  facet normal 0.857729 -0.514103 0
    outer loop
      vertex -14.2159 7.59858 10
      vertex -13.4027 8.9554 3
      vertex -13.4027 8.9554 10
    endloop
  endfacet
  facet normal 0.857729 -0.514103 0
    outer loop
      vertex -13.4027 8.9554 3
      vertex -14.2159 7.59858 10
      vertex -14.2159 7.59858 3
    endloop
  endfacet
  facet normal -0.989177 0.14673 0
    outer loop
      vertex 15.8096 -3.14472 3
      vertex 16.0417 -1.57997 10
      vertex 16.0417 -1.57997 3
    endloop
  endfacet
  facet normal -0.989177 0.14673 0
    outer loop
      vertex 16.0417 -1.57997 10
      vertex 15.8096 -3.14472 3
      vertex 15.8096 -3.14472 10
    endloop
  endfacet
  facet normal -0.970031 0.24298 0
    outer loop
      vertex 15.4252 -4.67918 3
      vertex 15.8096 -3.14472 10
      vertex 15.8096 -3.14472 3
    endloop
  endfacet
  facet normal -0.970031 0.24298 0
    outer loop
      vertex 15.8096 -3.14472 10
      vertex 15.4252 -4.67918 3
      vertex 15.4252 -4.67918 10
    endloop
  endfacet
  facet normal -0.903989 0.427555 0
    outer loop
      vertex 14.2159 -7.59858 3
      vertex 14.8923 -6.16859 10
      vertex 14.8923 -6.16859 3
    endloop
  endfacet
  facet normal -0.903989 0.427555 0
    outer loop
      vertex 14.8923 -6.16859 10
      vertex 14.2159 -7.59858 3
      vertex 14.2159 -7.59858 10
    endloop
  endfacet
  facet normal 0.671559 0.740951 -0
    outer loop
      vertex -10.226 -12.4604 3
      vertex -11.3981 -11.3981 10
      vertex -10.226 -12.4604 10
    endloop
  endfacet
  facet normal 0.671559 0.740951 0
    outer loop
      vertex -11.3981 -11.3981 10
      vertex -10.226 -12.4604 3
      vertex -11.3981 -11.3981 3
    endloop
  endfacet
  facet normal 0.33689 0.941544 -0
    outer loop
      vertex -4.67918 -15.4252 3
      vertex -6.16859 -14.8923 10
      vertex -4.67918 -15.4252 10
    endloop
  endfacet
  facet normal 0.33689 0.941544 0
    outer loop
      vertex -6.16859 -14.8923 10
      vertex -4.67918 -15.4252 3
      vertex -6.16859 -14.8923 3
    endloop
  endfacet
  facet normal 0.998795 0.0490682 0
    outer loop
      vertex -16.0417 -1.57997 10
      vertex -16.1193 0 3
      vertex -16.1193 0 10
    endloop
  endfacet
  facet normal 0.998795 0.0490682 0
    outer loop
      vertex -16.1193 0 3
      vertex -16.0417 -1.57997 10
      vertex -16.0417 -1.57997 3
    endloop
  endfacet
  facet normal 0.941544 0.33689 0
    outer loop
      vertex -14.8923 -6.16859 10
      vertex -15.4252 -4.67918 3
      vertex -15.4252 -4.67918 10
    endloop
  endfacet
  facet normal 0.941544 0.33689 0
    outer loop
      vertex -15.4252 -4.67918 3
      vertex -14.8923 -6.16859 10
      vertex -14.8923 -6.16859 3
    endloop
  endfacet
  facet normal 0.740951 0.671559 0
    outer loop
      vertex -11.3981 -11.3981 10
      vertex -12.4604 -10.226 3
      vertex -12.4604 -10.226 10
    endloop
  endfacet
  facet normal 0.740951 0.671559 0
    outer loop
      vertex -12.4604 -10.226 3
      vertex -11.3981 -11.3981 10
      vertex -11.3981 -11.3981 3
    endloop
  endfacet
  facet normal -0.803207 0.5957 0
    outer loop
      vertex 12.4604 -10.226 3
      vertex 13.4027 -8.9554 10
      vertex 13.4027 -8.9554 3
    endloop
  endfacet
  facet normal -0.803207 0.5957 0
    outer loop
      vertex 13.4027 -8.9554 10
      vertex 12.4604 -10.226 3
      vertex 12.4604 -10.226 10
    endloop
  endfacet
  facet normal -0.0490682 0.998795 0
    outer loop
      vertex 1.57997 -16.0417 3
      vertex 0 -16.1193 10
      vertex 1.57997 -16.0417 10
    endloop
  endfacet
  facet normal -0.0490682 0.998795 0
    outer loop
      vertex 0 -16.1193 10
      vertex 1.57997 -16.0417 3
      vertex 0 -16.1193 3
    endloop
  endfacet
  facet normal 0 0 1
    outer loop
      vertex 16.0417 1.57997 3
      vertex 16.0417 -1.57997 3
      vertex 16.1193 0 3
    endloop
  endfacet
  facet normal 0 0 1
    outer loop
      vertex 15.8096 3.14472 3
      vertex 16.0417 -1.57997 3
      vertex 16.0417 1.57997 3
    endloop
  endfacet
  facet normal 0 0 1
    outer loop
      vertex 15.8096 3.14472 3
      vertex 15.8096 -3.14472 3
      vertex 16.0417 -1.57997 3
    endloop
  endfacet
  facet normal 0 0 1
    outer loop
      vertex 15.4252 4.67918 3
      vertex 15.8096 -3.14472 3
      vertex 15.8096 3.14472 3
    endloop
  endfacet
  facet normal 0 0 1
    outer loop
      vertex 15.4252 4.67918 3
      vertex 15.4252 -4.67918 3
      vertex 15.8096 -3.14472 3
    endloop
  endfacet
  facet normal 0 0 1
    outer loop
      vertex 14.8923 6.16859 3
      vertex 15.4252 -4.67918 3
      vertex 15.4252 4.67918 3
    endloop
  endfacet
  facet normal 0 0 1
    outer loop
      vertex 14.8923 6.16859 3
      vertex 14.8923 -6.16859 3
      vertex 15.4252 -4.67918 3
    endloop
  endfacet
  facet normal 0 0 1
    outer loop
      vertex 14.2159 7.59858 3
      vertex 14.8923 -6.16859 3
      vertex 14.8923 6.16859 3
    endloop
  endfacet
  facet normal 0 0 1
    outer loop
      vertex 14.2159 7.59858 3
      vertex 14.2159 -7.59858 3
      vertex 14.8923 -6.16859 3
    endloop
  endfacet
  facet normal 0 0 1
    outer loop
      vertex 13.4027 8.9554 3
      vertex 14.2159 -7.59858 3
      vertex 14.2159 7.59858 3
    endloop
  endfacet
  facet normal 0 0 1
    outer loop
      vertex 13.4027 8.9554 3
      vertex 13.4027 -8.9554 3
      vertex 14.2159 -7.59858 3
    endloop
  endfacet
  facet normal 0 0 1
    outer loop
      vertex 12.4604 10.226 3
      vertex 13.4027 -8.9554 3
      vertex 13.4027 8.9554 3
    endloop
  endfacet
  facet normal 0 0 1
    outer loop
      vertex 12.4604 10.226 3
      vertex 12.4604 -10.226 3
      vertex 13.4027 -8.9554 3
    endloop
  endfacet
  facet normal 0 0 1
    outer loop
      vertex 11.3981 11.3981 3
      vertex 12.4604 -10.226 3
      vertex 12.4604 10.226 3
    endloop
  endfacet
  facet normal 0 0 1
    outer loop
      vertex 11.3981 11.3981 3
      vertex 11.3981 -11.3981 3
      vertex 12.4604 -10.226 3
    endloop
  endfacet
  facet normal 0 0 1
    outer loop
      vertex 10.226 12.4604 3
      vertex 11.3981 -11.3981 3
      vertex 11.3981 11.3981 3
    endloop
  endfacet
  facet normal 0 0 1
    outer loop
      vertex 10.226 12.4604 3
      vertex 10.226 -12.4604 3
      vertex 11.3981 -11.3981 3
    endloop
  endfacet
  facet normal 0 0 1
    outer loop
      vertex 8.9554 13.4027 3
      vertex 10.226 -12.4604 3
      vertex 10.226 12.4604 3
    endloop
  endfacet
  facet normal 0 0 1
    outer loop
      vertex 8.9554 13.4027 3
      vertex 8.9554 -13.4027 3
      vertex 10.226 -12.4604 3
    endloop
  endfacet
  facet normal 0 0 1
    outer loop
      vertex 7.59858 14.2159 3
      vertex 8.9554 -13.4027 3
      vertex 8.9554 13.4027 3
    endloop
  endfacet
  facet normal 0 0 1
    outer loop
      vertex 7.59858 14.2159 3
      vertex 7.59858 -14.2159 3
      vertex 8.9554 -13.4027 3
    endloop
  endfacet
  facet normal 0 0 1
    outer loop
      vertex 6.16859 14.8923 3
      vertex 7.59858 -14.2159 3
      vertex 7.59858 14.2159 3
    endloop
  endfacet
  facet normal 0 0 1
    outer loop
      vertex 6.16859 14.8923 3
      vertex 6.16859 -14.8923 3
      vertex 7.59858 -14.2159 3
    endloop
  endfacet
  facet normal 0 0 1
    outer loop
      vertex 4.67918 15.4252 3
      vertex 6.16859 -14.8923 3
      vertex 6.16859 14.8923 3
    endloop
  endfacet
  facet normal 0 0 1
    outer loop
      vertex 4.67918 15.4252 3
      vertex 4.67918 -15.4252 3
      vertex 6.16859 -14.8923 3
    endloop
  endfacet
  facet normal 0 0 1
    outer loop
      vertex 3.14472 15.8096 3
      vertex 4.67918 -15.4252 3
      vertex 4.67918 15.4252 3
    endloop
  endfacet
  facet normal 0 0 1
    outer loop
      vertex 3.14472 15.8096 3
      vertex 3.14472 -15.8096 3
      vertex 4.67918 -15.4252 3
    endloop
  endfacet
  facet normal 0 0 1
    outer loop
      vertex 1.57997 16.0417 3
      vertex 3.14472 -15.8096 3
      vertex 3.14472 15.8096 3
    endloop
  endfacet
  facet normal 0 0 1
    outer loop
      vertex 1.57997 16.0417 3
      vertex 1.57997 -16.0417 3
      vertex 3.14472 -15.8096 3
    endloop
  endfacet
  facet normal 0 0 1
    outer loop
      vertex 0 16.1193 3
      vertex 1.57997 -16.0417 3
      vertex 1.57997 16.0417 3
    endloop
  endfacet
  facet normal 0 0 1
    outer loop
      vertex 0 16.1193 3
      vertex 0 -16.1193 3
      vertex 1.57997 -16.0417 3
    endloop
  endfacet
  facet normal -0 0 1
    outer loop
      vertex -1.57997 16.0417 3
      vertex 0 -16.1193 3
      vertex 0 16.1193 3
    endloop
  endfacet
  facet normal 0 0 1
    outer loop
      vertex -1.57997 16.0417 3
      vertex -1.57997 -16.0417 3
      vertex 0 -16.1193 3
    endloop
  endfacet
  facet normal -0 0 1
    outer loop
      vertex -3.14472 15.8096 3
      vertex -1.57997 -16.0417 3
      vertex -1.57997 16.0417 3
    endloop
  endfacet
  facet normal 0 0 1
    outer loop
      vertex -3.14472 15.8096 3
      vertex -3.14472 -15.8096 3
      vertex -1.57997 -16.0417 3
    endloop
  endfacet
  facet normal -0 0 1
    outer loop
      vertex -4.67918 15.4252 3
      vertex -3.14472 -15.8096 3
      vertex -3.14472 15.8096 3
    endloop
  endfacet
  facet normal 0 0 1
    outer loop
      vertex -4.67918 15.4252 3
      vertex -4.67918 -15.4252 3
      vertex -3.14472 -15.8096 3
    endloop
  endfacet
  facet normal -0 0 1
    outer loop
      vertex -6.16859 14.8923 3
      vertex -4.67918 -15.4252 3
      vertex -4.67918 15.4252 3
    endloop
  endfacet
  facet normal 0 0 1
    outer loop
      vertex -6.16859 14.8923 3
      vertex -6.16859 -14.8923 3
      vertex -4.67918 -15.4252 3
    endloop
  endfacet
  facet normal -0 0 1
    outer loop
      vertex -7.59858 14.2159 3
      vertex -6.16859 -14.8923 3
      vertex -6.16859 14.8923 3
    endloop
  endfacet
  facet normal 0 0 1
    outer loop
      vertex -7.59858 14.2159 3
      vertex -7.59858 -14.2159 3
      vertex -6.16859 -14.8923 3
    endloop
  endfacet
  facet normal -0 0 1
    outer loop
      vertex -8.9554 13.4027 3
      vertex -7.59858 -14.2159 3
      vertex -7.59858 14.2159 3
    endloop
  endfacet
  facet normal 0 0 1
    outer loop
      vertex -8.9554 13.4027 3
      vertex -8.9554 -13.4027 3
      vertex -7.59858 -14.2159 3
    endloop
  endfacet
  facet normal -0 0 1
    outer loop
      vertex -10.226 12.4604 3
      vertex -8.9554 -13.4027 3
      vertex -8.9554 13.4027 3
    endloop
  endfacet
  facet normal 0 0 1
    outer loop
      vertex -10.226 12.4604 3
      vertex -10.226 -12.4604 3
      vertex -8.9554 -13.4027 3
    endloop
  endfacet
  facet normal -0 0 1
    outer loop
      vertex -11.3981 11.3981 3
      vertex -10.226 -12.4604 3
      vertex -10.226 12.4604 3
    endloop
  endfacet
  facet normal 0 0 1
    outer loop
      vertex -11.3981 11.3981 3
      vertex -11.3981 -11.3981 3
      vertex -10.226 -12.4604 3
    endloop
  endfacet
  facet normal -0 0 1
    outer loop
      vertex -12.4604 10.226 3
      vertex -11.3981 -11.3981 3
      vertex -11.3981 11.3981 3
    endloop
  endfacet
  facet normal 0 0 1
    outer loop
      vertex -12.4604 10.226 3
      vertex -12.4604 -10.226 3
      vertex -11.3981 -11.3981 3
    endloop
  endfacet
  facet normal -0 0 1
    outer loop
      vertex -13.4027 8.9554 3
      vertex -12.4604 -10.226 3
      vertex -12.4604 10.226 3
    endloop
  endfacet
  facet normal 0 0 1
    outer loop
      vertex -13.4027 8.9554 3
      vertex -13.4027 -8.9554 3
      vertex -12.4604 -10.226 3
    endloop
  endfacet
  facet normal -0 0 1
    outer loop
      vertex -14.2159 7.59858 3
      vertex -13.4027 -8.9554 3
      vertex -13.4027 8.9554 3
    endloop
  endfacet
  facet normal 0 0 1
    outer loop
      vertex -14.2159 7.59858 3
      vertex -14.2159 -7.59858 3
      vertex -13.4027 -8.9554 3
    endloop
  endfacet
  facet normal -0 0 1
    outer loop
      vertex -14.8923 6.16859 3
      vertex -14.2159 -7.59858 3
      vertex -14.2159 7.59858 3
    endloop
  endfacet
  facet normal 0 0 1
    outer loop
      vertex -14.8923 6.16859 3
      vertex -14.8923 -6.16859 3
      vertex -14.2159 -7.59858 3
    endloop
  endfacet
  facet normal -0 0 1
    outer loop
      vertex -15.4252 4.67918 3
      vertex -14.8923 -6.16859 3
      vertex -14.8923 6.16859 3
    endloop
  endfacet
  facet normal 0 0 1
    outer loop
      vertex -15.4252 4.67918 3
      vertex -15.4252 -4.67918 3
      vertex -14.8923 -6.16859 3
    endloop
  endfacet
  facet normal -0 0 1
    outer loop
      vertex -15.8096 3.14472 3
      vertex -15.4252 -4.67918 3
      vertex -15.4252 4.67918 3
    endloop
  endfacet
  facet normal 0 0 1
    outer loop
      vertex -15.8096 3.14472 3
      vertex -15.8096 -3.14472 3
      vertex -15.4252 -4.67918 3
    endloop
  endfacet
  facet normal -0 0 1
    outer loop
      vertex -16.0417 1.57997 3
      vertex -15.8096 -3.14472 3
      vertex -15.8096 3.14472 3
    endloop
  endfacet
  facet normal 0 0 1
    outer loop
      vertex -16.0417 1.57997 3
      vertex -16.0417 -1.57997 3
      vertex -15.8096 -3.14472 3
    endloop
  endfacet
  facet normal 0 -0 1
    outer loop
      vertex -16.0417 -1.57997 3
      vertex -16.0417 1.57997 3
      vertex -16.1193 0 3
    endloop
  endfacet
  facet normal 0.989177 0.14673 0
    outer loop
      vertex -15.8096 -3.14472 10
      vertex -16.0417 -1.57997 3
      vertex -16.0417 -1.57997 10
    endloop
  endfacet
  facet normal 0.989177 0.14673 0
    outer loop
      vertex -16.0417 -1.57997 3
      vertex -15.8096 -3.14472 10
      vertex -15.8096 -3.14472 3
    endloop
  endfacet
  facet normal 0.857729 0.514103 0
    outer loop
      vertex -13.4027 -8.9554 10
      vertex -14.2159 -7.59858 3
      vertex -14.2159 -7.59858 10
    endloop
  endfacet
  facet normal 0.857729 0.514103 0
    outer loop
      vertex -14.2159 -7.59858 3
      vertex -13.4027 -8.9554 10
      vertex -13.4027 -8.9554 3
    endloop
  endfacet
  facet normal 0.903989 0.427555 0
    outer loop
      vertex -14.2159 -7.59858 10
      vertex -14.8923 -6.16859 3
      vertex -14.8923 -6.16859 10
    endloop
  endfacet
  facet normal 0.903989 0.427555 0
    outer loop
      vertex -14.8923 -6.16859 3
      vertex -14.2159 -7.59858 10
      vertex -14.2159 -7.59858 3
    endloop
  endfacet
  facet normal -0.24298 0.970031 0
    outer loop
      vertex 4.67918 -15.4252 3
      vertex 3.14472 -15.8096 10
      vertex 4.67918 -15.4252 10
    endloop
  endfacet
  facet normal -0.24298 0.970031 0
    outer loop
      vertex 3.14472 -15.8096 10
      vertex 4.67918 -15.4252 3
      vertex 3.14472 -15.8096 3
    endloop
  endfacet
  facet normal -0.671559 0.740951 0
    outer loop
      vertex 11.3981 -11.3981 3
      vertex 10.226 -12.4604 10
      vertex 11.3981 -11.3981 10
    endloop
  endfacet
  facet normal -0.671559 0.740951 0
    outer loop
      vertex 10.226 -12.4604 10
      vertex 11.3981 -11.3981 3
      vertex 10.226 -12.4604 3
    endloop
  endfacet
  facet normal -0.5957 0.803207 0
    outer loop
      vertex 10.226 -12.4604 3
      vertex 8.9554 -13.4027 10
      vertex 10.226 -12.4604 10
    endloop
  endfacet
  facet normal -0.5957 0.803207 0
    outer loop
      vertex 8.9554 -13.4027 10
      vertex 10.226 -12.4604 3
      vertex 8.9554 -13.4027 3
    endloop
  endfacet
  facet normal -0.740951 0.671559 0
    outer loop
      vertex 11.3981 -11.3981 3
      vertex 12.4604 -10.226 10
      vertex 12.4604 -10.226 3
    endloop
  endfacet
  facet normal -0.740951 0.671559 0
    outer loop
      vertex 12.4604 -10.226 10
      vertex 11.3981 -11.3981 3
      vertex 11.3981 -11.3981 10
    endloop
  endfacet
  facet normal 0.14673 0.989177 -0
    outer loop
      vertex -1.57997 -16.0417 3
      vertex -3.14472 -15.8096 10
      vertex -1.57997 -16.0417 10
    endloop
  endfacet
  facet normal 0.14673 0.989177 0
    outer loop
      vertex -3.14472 -15.8096 10
      vertex -1.57997 -16.0417 3
      vertex -3.14472 -15.8096 3
    endloop
  endfacet
  facet normal 0.24298 0.970031 -0
    outer loop
      vertex -3.14472 -15.8096 3
      vertex -4.67918 -15.4252 10
      vertex -3.14472 -15.8096 10
    endloop
  endfacet
  facet normal 0.24298 0.970031 0
    outer loop
      vertex -4.67918 -15.4252 10
      vertex -3.14472 -15.8096 3
      vertex -4.67918 -15.4252 3
    endloop
  endfacet
  facet normal 0.5957 0.803207 -0
    outer loop
      vertex -8.9554 -13.4027 3
      vertex -10.226 -12.4604 10
      vertex -8.9554 -13.4027 10
    endloop
  endfacet
  facet normal 0.5957 0.803207 0
    outer loop
      vertex -10.226 -12.4604 10
      vertex -8.9554 -13.4027 3
      vertex -10.226 -12.4604 3
    endloop
  endfacet
  facet normal 0.514103 0.857729 -0
    outer loop
      vertex -7.59858 -14.2159 3
      vertex -8.9554 -13.4027 10
      vertex -7.59858 -14.2159 10
    endloop
  endfacet
  facet normal 0.514103 0.857729 0
    outer loop
      vertex -8.9554 -13.4027 10
      vertex -7.59858 -14.2159 3
      vertex -8.9554 -13.4027 3
    endloop
  endfacet
  facet normal 0.427555 0.903989 -0
    outer loop
      vertex -6.16859 -14.8923 3
      vertex -7.59858 -14.2159 10
      vertex -6.16859 -14.8923 10
    endloop
  endfacet
  facet normal 0.427555 0.903989 0
    outer loop
      vertex -7.59858 -14.2159 10
      vertex -6.16859 -14.8923 3
      vertex -7.59858 -14.2159 3
    endloop
  endfacet
endsolid OpenSCAD_Model
